<svg width="299" height="199" viewBox="0 0 299 199" fill="none" xmlns="http://www.w3.org/2000/svg">
<path d="M92.0213 185.165H87.4648V183.515H98.5235V185.165H93.9671V198.465H92.0213V185.165Z" fill="#259E9C"/>
<path d="M108.375 193.021C108.375 196.987 105.617 198.711 103.03 198.711C100.124 198.711 97.8828 196.593 97.8828 193.194C97.8828 189.598 100.223 187.504 103.203 187.504C106.183 187.504 108.375 189.746 108.375 193.021ZM99.8532 193.145C99.8532 195.484 101.208 197.258 103.104 197.258C105.001 197.258 106.355 195.509 106.355 193.095C106.355 191.273 105.444 188.982 103.129 188.982C100.814 188.982 99.8286 191.1 99.8286 193.145H99.8532Z" fill="#259E9C"/>
<path d="M119.925 195.534C119.925 196.642 119.925 197.627 120.023 198.465H118.299L118.201 196.716H118.151C117.634 197.578 116.501 198.711 114.605 198.711C112.93 198.711 110.91 197.775 110.91 194.007V187.726H112.856V193.662C112.856 195.706 113.472 197.085 115.245 197.085C116.55 197.085 117.462 196.174 117.806 195.312C117.905 195.016 117.979 194.672 117.979 194.302V187.726H119.925V195.534Z" fill="#259E9C"/>
<path d="M130.908 198.071C130.391 198.342 129.258 198.686 127.829 198.686C124.603 198.686 122.484 196.494 122.484 193.219C122.484 189.943 124.75 187.529 128.248 187.529C129.405 187.529 130.415 187.825 130.957 188.096L130.514 189.598C130.046 189.327 129.307 189.081 128.248 189.081C125.785 189.081 124.455 190.904 124.455 193.145C124.455 195.632 126.056 197.159 128.174 197.159C129.282 197.159 130.021 196.864 130.563 196.618L130.908 198.071Z" fill="#259E9C"/>
<path d="M133.297 182.726H135.243V189.426H135.292C135.612 188.884 136.08 188.391 136.696 188.046C137.262 187.726 137.952 187.48 138.691 187.48C140.144 187.48 142.434 188.366 142.434 192.061V198.44H140.489V192.283C140.489 190.559 139.848 189.081 138.001 189.081C136.745 189.081 135.735 189.967 135.39 191.026C135.292 191.297 135.267 191.593 135.267 191.962V198.44H133.321V182.702L133.297 182.726Z" fill="#259E9C"/>
<path d="M150.316 196.125C151.178 196.667 152.434 197.11 153.764 197.11C155.734 197.11 156.892 196.075 156.892 194.548C156.892 193.145 156.104 192.356 154.084 191.568C151.646 190.706 150.143 189.45 150.143 187.332C150.143 184.992 152.064 183.268 154.971 183.268C156.498 183.268 157.606 183.613 158.271 184.007L157.729 185.583C157.236 185.312 156.251 184.869 154.897 184.869C152.852 184.869 152.089 186.1 152.089 187.11C152.089 188.514 153 189.204 155.069 189.992C157.606 190.977 158.887 192.184 158.887 194.376C158.887 196.691 157.187 198.686 153.665 198.686C152.212 198.686 150.66 198.268 149.848 197.726L150.34 196.1L150.316 196.125Z" fill="#259E9C"/>
<path d="M169.353 198.071C168.836 198.342 167.703 198.686 166.274 198.686C163.048 198.686 160.93 196.494 160.93 193.219C160.93 189.943 163.196 187.529 166.693 187.529C167.851 187.529 168.86 187.825 169.402 188.096L168.959 189.598C168.491 189.327 167.752 189.081 166.693 189.081C164.23 189.081 162.9 190.904 162.9 193.145C162.9 195.632 164.501 197.159 166.619 197.159C167.727 197.159 168.466 196.864 169.008 196.618L169.353 198.071Z" fill="#259E9C"/>
<path d="M171.747 191.076C171.747 189.82 171.747 188.736 171.648 187.726H173.348L173.422 189.844H173.52C174.013 188.391 175.195 187.504 176.5 187.504C176.722 187.504 176.87 187.504 177.042 187.578V189.426C176.845 189.376 176.648 189.352 176.377 189.352C174.998 189.352 174.038 190.386 173.767 191.864C173.717 192.135 173.668 192.43 173.668 192.775V198.489H171.747V191.1V191.076Z" fill="#259E9C"/>
<path d="M179.977 193.465C180.027 196.1 181.701 197.184 183.647 197.184C185.051 197.184 185.888 196.938 186.627 196.618L186.947 198.021C186.258 198.342 185.076 198.686 183.376 198.686C180.076 198.686 178.105 196.519 178.105 193.268C178.105 190.017 180.002 187.48 183.13 187.48C186.627 187.48 187.563 190.559 187.563 192.529C187.563 192.923 187.514 193.243 187.489 193.44H179.953L179.977 193.465ZM185.691 192.061C185.691 190.83 185.174 188.884 182.982 188.884C181.012 188.884 180.15 190.706 179.977 192.061H185.667H185.691Z" fill="#259E9C"/>
<path d="M191.184 193.465C191.234 196.1 192.908 197.184 194.854 197.184C196.258 197.184 197.095 196.938 197.834 196.618L198.155 198.021C197.465 198.342 196.283 198.686 194.583 198.686C191.283 198.686 189.312 196.519 189.312 193.268C189.312 190.017 191.209 187.48 194.337 187.48C197.834 187.48 198.77 190.559 198.77 192.529C198.77 192.923 198.721 193.243 198.696 193.44H191.16L191.184 193.465ZM196.898 192.061C196.898 190.83 196.381 188.884 194.189 188.884C192.219 188.884 191.357 190.706 191.184 192.061H196.874H196.898Z" fill="#259E9C"/>
<path d="M201.306 190.633C201.306 189.524 201.306 188.613 201.207 187.726H202.931L203.03 189.5H203.079C203.621 188.49 204.852 187.48 206.626 187.48C208.103 187.48 210.419 188.367 210.419 192.036V198.44H208.473V192.258C208.473 190.534 207.832 189.081 205.985 189.081C204.704 189.081 203.695 189.992 203.374 191.076C203.276 191.322 203.251 191.642 203.251 191.987V198.44H201.306V190.608V190.633Z" fill="#259E9C"/>
<path d="M0 159.895C0 164.821 5.04911 168.811 11.2804 168.811H287.157C293.388 168.811 298.437 164.821 298.437 159.895V8.91591C298.437 3.98999 293.388 0 287.157 0H11.2804C5.04911 0 0 3.98999 0 8.91591V159.895ZM11.2804 1.03444H287.157C292.649 1.03444 297.107 4.55644 297.107 8.89126V159.871C297.107 164.206 292.649 167.728 287.157 167.728H11.2804C5.788 167.728 1.33002 164.206 1.33002 159.871V8.89126C1.33002 4.55644 5.788 1.03444 11.2804 1.03444Z" fill="#259E9C"/>
<path d="M146.858 5.83692C146.636 6.25563 146.39 7.75802 146.07 7.97969C145.774 8.05358 143.656 8.02896 143.656 8.02896C143.656 8.02896 142.77 7.93042 142.08 8.47227C141.39 8.9895 141.267 9.45748 141.169 9.8023C141.07 10.1471 140.75 11.3786 140.75 11.3786H141.809C141.809 11.3786 142.326 9.13728 142.646 9.01413C142.967 8.89098 145.7 8.96488 145.922 8.86636L145.208 11.3786H146.366L148.016 5.59061C148.016 5.59061 147.104 5.44285 146.883 5.83692H146.858Z" fill="#259E9C"/>
<path d="M142.873 7.78266L144.351 2.4873H143.292C143.292 2.4873 141.568 8.44767 141.543 8.44767C141.937 7.95508 142.873 7.78266 142.873 7.78266Z" fill="#259E9C"/>
<path d="M153.042 6.15747H150.111C150.111 6.15747 148.683 6.05895 148.215 7.38895C147.845 8.47265 147.5 9.77799 147.5 9.77799C147.5 9.77799 147.229 11.1326 149.249 11.3543C150.678 11.4282 151.811 11.3543 151.811 11.3543L152.057 10.5415H148.757C148.757 10.5415 148.313 10.4923 148.461 9.99968C148.633 9.48246 149.225 7.31502 149.225 7.31502C149.225 7.31502 149.298 6.94558 150.062 6.97021C150.702 6.97021 152.131 6.97021 152.131 6.97021C152.131 6.97021 152.944 6.99485 153.042 6.13281V6.15747Z" fill="#259E9C"/>
<path d="M155.651 9.38363H156.291C156.291 9.38363 156.242 9.90084 156.045 10.2949C155.971 10.4427 155.872 10.5166 155.799 10.5412H153.557C153.557 10.5412 153.114 10.492 153.262 9.99937C153.434 9.48215 154.025 7.31471 154.025 7.31471C154.025 7.31471 154.099 6.94527 154.863 6.9699C155.503 6.9699 156.931 6.9699 156.931 6.9699C156.931 6.9699 157.744 6.99454 157.843 6.1325H154.912C154.912 6.1325 153.483 6.03398 153.015 7.36398C152.646 8.44768 152.301 9.75306 152.301 9.75306C152.301 9.75306 152.03 11.1077 154.05 11.3294C154.937 11.3786 155.725 11.354 156.193 11.3294H156.759L157.572 8.54619H155.454C155.084 9.3836 155.651 9.35897 155.651 9.35897V9.38363Z" fill="#259E9C"/>
<rect x="13.4" y="18.4" width="271.2" height="135.2" stroke="#259E9C" stroke-width="0.8"/>
</svg>
