<svg width="297" height="201" viewBox="0 0 297 201" fill="none" xmlns="http://www.w3.org/2000/svg">
<path d="M42.8299 187.186H38.2734V185.536H49.4061V187.186H44.8249V200.486H42.8546V187.186H42.8299Z" fill="#8A8A8A"/>
<path d="M59.2837 195.042C59.2837 199.008 56.5252 200.732 53.9144 200.732C50.9835 200.732 48.7422 198.614 48.7422 195.215C48.7422 191.619 51.1067 189.525 54.0868 189.525C57.067 189.525 59.2837 191.767 59.2837 195.042ZM50.7372 195.166C50.7372 197.505 52.0919 199.279 54.013 199.279C55.9341 199.279 57.2887 197.53 57.2887 195.116C57.2887 193.294 56.3774 191.003 54.0622 191.003C51.747 191.003 50.7372 193.121 50.7372 195.166Z" fill="#8A8A8A"/>
<path d="M70.8786 197.58C70.8786 198.688 70.8786 199.673 70.9771 200.511H69.2284L69.1053 198.762H69.056C68.5387 199.624 67.4058 200.757 65.4847 200.757C63.7853 200.757 61.7656 199.821 61.7656 196.052V189.772H63.736V195.708C63.736 197.752 64.3517 199.131 66.1497 199.131C67.4551 199.131 68.391 198.22 68.7358 197.358C68.8589 197.062 68.9082 196.718 68.9082 196.348V189.772H70.8786V197.58Z" fill="#8A8A8A"/>
<path d="M81.9413 200.092C81.4241 200.363 80.2911 200.708 78.838 200.708C75.5869 200.708 73.4688 198.515 73.4688 195.24C73.4688 191.964 75.7347 189.55 79.2567 189.55C80.4143 189.55 81.4488 189.846 81.966 190.117L81.5226 191.619C81.0546 191.348 80.3158 191.102 79.2567 191.102C76.7938 191.102 75.4391 192.925 75.4391 195.166C75.4391 197.653 77.0401 199.18 79.1828 199.18C80.2912 199.18 81.03 198.885 81.5965 198.639L81.9413 200.092Z" fill="#8A8A8A"/>
<path d="M84.3281 184.747H86.2985V191.446H86.3478C86.668 190.88 87.1605 190.412 87.7516 190.067C88.3427 189.747 89.0323 189.501 89.7466 189.501C91.1997 189.501 93.5149 190.387 93.5149 194.082V200.461H91.5446V194.304C91.5446 192.579 90.9042 191.102 89.057 191.102C87.7762 191.102 86.7911 191.988 86.4217 193.047C86.2985 193.318 86.2985 193.614 86.2985 193.983V200.461H84.3281V184.723V184.747Z" fill="#8A8A8A"/>
<path d="M101.455 198.146C102.317 198.688 103.597 199.131 104.927 199.131C106.922 199.131 108.08 198.097 108.08 196.569C108.08 195.166 107.267 194.377 105.248 193.589C102.785 192.727 101.282 191.471 101.282 189.353C101.282 187.013 103.228 185.289 106.134 185.289C107.661 185.289 108.794 185.634 109.459 186.028L108.917 187.604C108.425 187.333 107.415 186.89 106.061 186.89C104.016 186.89 103.228 188.121 103.228 189.131C103.228 190.535 104.139 191.225 106.208 192.013C108.745 192.998 110.05 194.205 110.05 196.397C110.05 198.712 108.326 200.707 104.78 200.707C103.327 200.707 101.75 200.288 100.938 199.747L101.43 198.121L101.455 198.146Z" fill="#8A8A8A"/>
<path d="M120.586 200.092C120.069 200.363 118.936 200.708 117.483 200.708C114.231 200.708 112.113 198.515 112.113 195.24C112.113 191.964 114.379 189.55 117.901 189.55C119.059 189.55 120.093 189.846 120.61 190.117L120.167 191.619C119.699 191.348 118.96 191.102 117.901 191.102C115.438 191.102 114.084 192.925 114.084 195.166C114.084 197.653 115.685 199.18 117.827 199.18C118.936 199.18 119.675 198.885 120.241 198.639L120.586 200.092Z" fill="#8A8A8A"/>
<path d="M122.977 193.122C122.977 191.866 122.977 190.782 122.879 189.772H124.603L124.677 191.89H124.775C125.268 190.437 126.45 189.55 127.756 189.55C127.977 189.55 128.125 189.55 128.322 189.624V191.471C128.125 191.422 127.928 191.398 127.657 191.398C126.278 191.398 125.293 192.432 125.022 193.91C124.972 194.181 124.923 194.476 124.923 194.821V200.535H122.977V193.146V193.122Z" fill="#8A8A8A"/>
<path d="M131.247 195.486C131.296 198.121 132.996 199.205 134.941 199.205C136.345 199.205 137.183 198.959 137.921 198.639L138.266 200.042C137.577 200.363 136.394 200.707 134.67 200.707C131.345 200.707 129.375 198.54 129.375 195.289C129.375 192.038 131.296 189.501 134.424 189.501C137.946 189.501 138.882 192.58 138.882 194.55C138.882 194.944 138.833 195.264 138.808 195.461H131.222L131.247 195.486ZM136.986 194.082C136.986 192.851 136.468 190.905 134.276 190.905C132.281 190.905 131.419 192.727 131.271 194.082H137.01H136.986Z" fill="#8A8A8A"/>
<path d="M142.501 195.486C142.55 198.121 144.249 199.205 146.195 199.205C147.599 199.205 148.436 198.959 149.175 198.639L149.52 200.042C148.831 200.363 147.648 200.707 145.924 200.707C142.599 200.707 140.629 198.54 140.629 195.289C140.629 192.038 142.55 189.501 145.678 189.501C149.2 189.501 150.136 192.58 150.136 194.55C150.136 194.944 150.087 195.264 150.062 195.461H142.476L142.501 195.486ZM148.239 194.082C148.239 192.851 147.722 190.905 145.53 190.905C143.535 190.905 142.673 192.727 142.525 194.082H148.264H148.239Z" fill="#8A8A8A"/>
<path d="M152.708 192.678C152.708 191.57 152.708 190.658 152.609 189.772H154.358L154.481 191.545H154.53C155.072 190.535 156.304 189.525 158.102 189.525C159.604 189.525 161.919 190.412 161.919 194.082V200.486H159.949V194.304C159.949 192.579 159.309 191.126 157.461 191.126C156.156 191.126 155.171 192.038 154.826 193.121C154.728 193.368 154.703 193.688 154.703 194.033V200.486H152.732V192.653L152.708 192.678Z" fill="#8A8A8A"/>
<path d="M175.732 188.688V193.909H180.781V195.239H175.732V200.486H174.303V195.239H169.254V193.909H174.303V188.688H175.732Z" fill="#8A8A8A"/>
<path d="M188.293 185.757C189.13 185.585 190.485 185.437 191.84 185.437C193.785 185.437 195.017 185.782 195.953 186.521C196.741 187.087 197.209 187.974 197.209 189.156C197.209 190.609 196.248 191.865 194.672 192.432V192.481C196.101 192.826 197.775 194.008 197.775 196.225C197.775 197.506 197.258 198.491 196.495 199.23C195.436 200.19 193.761 200.634 191.298 200.634C189.968 200.634 188.933 200.535 188.293 200.461V185.757ZM190.239 191.865H192.012C194.056 191.865 195.263 190.806 195.263 189.353C195.263 187.604 193.933 186.915 191.963 186.915C191.076 186.915 190.559 186.989 190.239 187.038V191.841V191.865ZM190.239 199.033C190.608 199.106 191.175 199.131 191.864 199.131C193.859 199.131 195.731 198.392 195.731 196.225C195.731 194.181 193.958 193.343 191.864 193.343H190.263V199.033H190.239Z" fill="#8A8A8A"/>
<path d="M209.449 197.58C209.449 198.688 209.449 199.673 209.547 200.511H207.799L207.676 198.762H207.626C207.109 199.624 205.976 200.757 204.055 200.757C202.356 200.757 200.336 199.821 200.336 196.052V189.772H202.306V195.708C202.306 197.752 202.922 199.131 204.72 199.131C206.025 199.131 206.961 198.22 207.306 197.358C207.429 197.062 207.479 196.718 207.479 196.348V189.772H209.449V197.58Z" fill="#8A8A8A"/>
<path d="M215.158 186.668V189.747H217.966V191.225H215.158V197.013C215.158 198.343 215.528 199.106 216.636 199.106C217.153 199.106 217.523 199.033 217.769 198.983L217.868 200.436C217.498 200.584 216.882 200.707 216.119 200.707C215.208 200.707 214.469 200.412 214.001 199.895C213.434 199.328 213.237 198.368 213.237 197.111V191.25H211.562V189.772H213.237V187.21L215.158 186.693V186.668Z" fill="#8A8A8A"/>
<path d="M222.651 186.668V189.747H225.458V191.225H222.651V197.013C222.651 198.343 223.02 199.106 224.128 199.106C224.646 199.106 225.015 199.033 225.261 198.983L225.36 200.436C224.99 200.584 224.375 200.707 223.611 200.707C222.7 200.707 221.961 200.412 221.493 199.895C220.927 199.328 220.73 198.368 220.73 197.111V191.25H219.055V189.772H220.73V187.21L222.651 186.693V186.668Z" fill="#8A8A8A"/>
<path d="M237.405 195.042C237.405 199.008 234.646 200.732 232.036 200.732C229.105 200.732 226.863 198.614 226.863 195.215C226.863 191.619 229.228 189.525 232.208 189.525C235.188 189.525 237.405 191.767 237.405 195.042ZM228.858 195.166C228.858 197.505 230.213 199.279 232.134 199.279C234.055 199.279 235.41 197.53 235.41 195.116C235.41 193.294 234.498 191.003 232.183 191.003C229.868 191.003 228.858 193.121 228.858 195.166Z" fill="#8A8A8A"/>
<path d="M239.985 192.678C239.985 191.57 239.985 190.658 239.887 189.772H241.635L241.759 191.545H241.808C242.35 190.535 243.581 189.525 245.379 189.525C246.881 189.525 249.197 190.412 249.197 194.082V200.486H247.226V194.304C247.226 192.579 246.586 191.126 244.739 191.126C243.433 191.126 242.448 192.038 242.103 193.121C242.005 193.368 241.98 193.688 241.98 194.033V200.486H240.01V192.653L239.985 192.678Z" fill="#8A8A8A"/>
<path d="M252.204 198.491C252.795 198.86 253.804 199.254 254.79 199.254C256.218 199.254 256.883 198.54 256.883 197.653C256.883 196.767 256.317 196.225 254.888 195.683C252.942 194.993 252.031 193.934 252.031 192.654C252.031 190.929 253.435 189.501 255.75 189.501C256.834 189.501 257.794 189.821 258.41 190.166L257.918 191.594C257.499 191.324 256.711 190.979 255.701 190.979C254.543 190.979 253.903 191.644 253.903 192.432C253.903 193.318 254.543 193.713 255.947 194.254C257.819 194.969 258.78 195.905 258.78 197.481C258.78 199.377 257.302 200.707 254.74 200.707C253.558 200.707 252.474 200.412 251.711 199.969L252.204 198.491Z" fill="#8A8A8A"/>
<path d="M0 159.895C0 164.821 5.02451 168.811 11.2312 168.811H285.704C291.91 168.811 296.935 164.821 296.935 159.895V8.91591C296.935 3.98999 291.91 0 285.704 0H11.2312C5.02451 0 0 3.98999 0 8.91591V159.895ZM11.2312 1.0344H285.704C291.171 1.0344 295.605 4.55644 295.605 8.89126V159.871C295.605 164.206 291.171 167.728 285.704 167.728H11.2312C5.7634 167.728 1.33002 164.206 1.33002 159.871V8.89126C1.33002 4.55644 5.7634 1.0344 11.2312 1.0344Z" fill="#8A8A8A"/>
<path d="M232.131 132.853H231.787L63.2461 132.656V132.335L63.4184 14.5566H63.7633L232.304 14.7536V15.0738L232.131 132.853ZM64.1081 131.794L231.245 131.991L231.417 15.5664L64.2805 15.3694L64.1081 131.794Z" fill="#8A8A8A"/>
<path opacity="0.2" d="M126.943 159.698H100.196C98.9642 159.698 97.9297 158.787 97.9297 157.654V139.256C97.9297 138.123 98.9395 137.211 100.196 137.211H126.943C128.175 137.211 129.209 138.123 129.209 139.256V157.654C129.209 158.787 128.199 159.698 126.943 159.698ZM100.196 137.852C99.3336 137.852 98.644 138.492 98.644 139.256V157.654C98.644 158.417 99.3336 159.058 100.196 159.058H126.943C127.805 159.058 128.495 158.417 128.495 157.654V139.256C128.495 138.492 127.805 137.852 126.943 137.852H100.196Z" fill="#8A8A8A"/>
<path opacity="0.2" d="M92.2598 159.698H65.512C64.2805 159.698 63.2461 158.787 63.2461 157.654V139.256C63.2461 138.123 64.2559 137.211 65.512 137.211H92.2598C93.4913 137.211 94.5257 138.123 94.5257 139.256V157.654C94.5257 158.787 93.5159 159.698 92.2598 159.698ZM65.512 137.852C64.6499 137.852 63.9603 138.492 63.9603 139.256V157.654C63.9603 158.417 64.6499 159.058 65.512 159.058H92.2598C93.1218 159.058 93.8115 158.417 93.8115 157.654V139.256C93.8115 138.492 93.1218 137.852 92.2598 137.852H65.512Z" fill="#8A8A8A"/>
<path opacity="0.2" d="M161.1 159.698H134.352C133.096 159.698 132.086 158.787 132.086 157.654V139.256C132.086 138.123 133.096 137.211 134.352 137.211H161.1C162.331 137.211 163.366 138.123 163.366 139.256V157.654C163.366 158.787 162.356 159.698 161.1 159.698ZM134.352 137.852C133.49 137.852 132.8 138.492 132.8 139.256V157.654C132.8 158.417 133.49 159.058 134.352 159.058H161.1C161.962 159.058 162.651 158.417 162.651 157.654V139.256C162.651 138.492 161.962 137.852 161.1 137.852H134.352Z" fill="#8A8A8A"/>
<path opacity="0.2" d="M195.705 159.698H168.957C167.701 159.698 166.691 158.787 166.691 157.654V139.256C166.691 138.123 167.701 137.211 168.957 137.211H195.705C196.937 137.211 197.971 138.123 197.971 139.256V157.654C197.971 158.787 196.961 159.698 195.705 159.698ZM168.957 137.852C168.095 137.852 167.406 138.492 167.406 139.256V157.654C167.406 158.417 168.095 159.058 168.957 159.058H195.705C196.567 159.058 197.257 158.417 197.257 157.654V139.256C197.257 138.492 196.567 137.852 195.705 137.852H168.957Z" fill="#8A8A8A"/>
<path opacity="0.2" d="M230.045 159.698H203.297C202.041 159.698 201.031 158.787 201.031 157.654V139.256C201.031 138.123 202.041 137.211 203.297 137.211H230.045C231.276 137.211 232.311 138.123 232.311 139.256V157.654C232.311 158.787 231.301 159.698 230.045 159.698ZM203.297 137.852C202.435 137.852 201.745 138.492 201.745 139.256V157.654C201.745 158.417 202.435 159.058 203.297 159.058H230.045C230.907 159.058 231.597 158.417 231.597 157.654V139.256C231.597 138.492 230.907 137.852 230.045 137.852H203.297Z" fill="#8A8A8A"/>
<path d="M48.5254 134.256H25.8908C22.3687 134.256 19.5117 131.67 19.5117 128.468V18.891C19.5117 15.6892 22.3687 13.103 25.8908 13.103H48.5254C52.0474 13.103 54.9045 15.6892 54.9045 18.891V128.468C54.9045 131.67 52.0474 134.256 48.5254 134.256ZM25.8908 13.7434C22.7628 13.7434 20.2013 16.0586 20.2013 18.891V128.468C20.2013 131.301 22.7382 133.616 25.8908 133.616H48.5254C51.6534 133.616 54.2148 131.301 54.2148 128.468V18.891C54.2148 16.0586 51.678 13.7434 48.5254 13.7434H25.8908Z" fill="#8A8A8A"/>
<path d="M271.667 134.748H246.52C242.998 134.748 240.141 132.162 240.141 128.96V19.1121C240.141 15.9103 242.998 13.3242 246.52 13.3242H271.667C275.189 13.3242 278.046 15.9103 278.046 19.1121V128.96C278.046 132.162 275.189 134.748 271.667 134.748ZM246.52 13.9645C243.392 13.9645 240.83 16.2797 240.83 19.1121V128.96C240.83 131.793 243.367 134.108 246.52 134.108H271.667C274.795 134.108 277.356 131.793 277.356 128.96V19.1121C277.356 16.2797 274.819 13.9645 271.667 13.9645H246.52Z" fill="#8A8A8A"/>
<path d="M79.8242 151.768H78.5928V145.488H76.918V144.724C77.9524 144.724 78.5928 144.355 78.8637 143.641H79.7997V151.793L79.8242 151.768Z" fill="#8A8A8A"/>
<path d="M116.996 151.768H110.888C111.134 150.98 111.504 150.265 112.021 149.625C112.44 149.108 113.08 148.517 113.868 147.901C114.533 147.384 114.976 146.965 115.223 146.645C115.469 146.3 115.592 145.955 115.592 145.586C115.592 144.921 115.001 144.601 113.843 144.601C112.686 144.601 112.144 145.192 112.046 146.374L110.863 146.004C110.962 145.216 111.282 144.601 111.799 144.157C112.316 143.714 113.006 143.492 113.843 143.492C114.755 143.492 115.494 143.689 116.06 144.059C116.602 144.428 116.898 144.945 116.898 145.61C116.898 146.177 116.676 146.719 116.257 147.236C115.986 147.556 115.469 148.024 114.73 148.591C114.09 149.108 113.671 149.428 113.474 149.6C113.055 149.97 112.76 150.364 112.538 150.733H116.971V151.817L116.996 151.768Z" fill="#8A8A8A"/>
<path d="M150.955 149.526C150.955 150.265 150.635 150.856 150.019 151.275C149.453 151.669 148.689 151.866 147.778 151.866C146.078 151.866 145.044 151.201 144.699 149.847L145.955 149.477C146.079 149.994 146.3 150.339 146.571 150.536C146.842 150.733 147.261 150.832 147.778 150.832C148.344 150.832 148.788 150.709 149.133 150.462C149.477 150.216 149.65 149.896 149.65 149.502C149.65 148.517 149.083 148.024 147.975 148.024H146.67V147.039H148.024C148.394 147.039 148.689 146.916 148.96 146.645C149.231 146.374 149.354 146.054 149.354 145.635C149.354 144.921 148.837 144.551 147.827 144.551C146.817 144.551 146.251 144.945 146.079 145.758L144.847 145.438C145.118 144.108 146.128 143.443 147.827 143.443C148.665 143.443 149.33 143.64 149.847 144.034C150.364 144.453 150.635 144.97 150.635 145.61C150.635 146.374 150.266 146.94 149.527 147.384C149.97 147.556 150.315 147.827 150.561 148.221C150.807 148.59 150.931 149.009 150.931 149.477L150.955 149.526Z" fill="#8A8A8A"/>
<path d="M185.879 149.921H184.795V151.768H183.539V149.921H179.5V148.936L183.687 143.616H184.795V148.862H185.879V149.945V149.921ZM183.539 148.837V145.611L180.978 148.837H183.539Z" fill="#8A8A8A"/>
<path d="M219.867 145.389H213.488V151.226H219.867V145.389Z" fill="#8A8A8A"/>
<path d="M146.797 6.15821C146.575 6.57692 146.329 8.07931 146.009 8.30098C145.714 8.37487 143.62 8.35021 143.62 8.35021C143.62 8.35021 142.733 8.25167 142.068 8.79353C141.403 9.31075 141.28 9.77873 141.157 10.1235C141.034 10.4684 140.738 11.6999 140.738 11.6999H141.797C141.797 11.6999 142.315 9.45853 142.61 9.33538C142.906 9.21223 145.64 9.28613 145.861 9.18761L145.172 11.6999H146.305L147.93 5.9119C147.93 5.9119 147.019 5.76414 146.822 6.15821H146.797Z" fill="#8A8A8A"/>
<path d="M142.877 8.10346L144.33 2.80811H143.271L141.547 8.76851C141.916 8.27591 142.877 8.10346 142.877 8.10346Z" fill="#8A8A8A"/>
<path d="M152.933 6.47819H150.027C150.027 6.47819 148.598 6.37967 148.155 7.70967C147.786 8.79338 147.465 10.0987 147.465 10.0987C147.465 10.0987 147.195 11.4534 149.19 11.6751C150.593 11.749 151.726 11.6751 151.726 11.6751L151.948 10.8623H148.697C148.697 10.8623 148.254 10.8131 148.426 10.3205C148.598 9.80326 149.19 7.63579 149.19 7.63579C149.19 7.63579 149.263 7.26638 150.002 7.29101C150.643 7.29101 152.047 7.29101 152.047 7.29101C152.047 7.29101 152.835 7.31565 152.958 6.45361L152.933 6.47819Z" fill="#8A8A8A"/>
<path d="M155.515 9.70443H156.155C156.155 9.70443 156.106 10.2216 155.909 10.6157C155.835 10.7635 155.736 10.8374 155.662 10.862H153.446C153.446 10.862 153.002 10.8128 153.175 10.3202C153.347 9.80295 153.938 7.63547 153.938 7.63547C153.938 7.63547 154.012 7.26607 154.751 7.2907C155.391 7.2907 156.795 7.2907 156.795 7.2907C156.795 7.2907 157.584 7.31534 157.707 6.4533H154.8C154.8 6.4533 153.372 6.35478 152.929 7.68478C152.559 8.76848 152.239 10.0739 152.239 10.0739C152.239 10.0739 151.968 11.4284 153.963 11.6501C154.85 11.6994 155.638 11.6747 156.081 11.6501H156.648L157.46 8.86695H155.367C154.997 9.70436 155.564 9.67977 155.564 9.67977L155.515 9.70443Z" fill="#8A8A8A"/>
<path opacity="0.25" d="M55.5151 49.9985H20.9844V50.6389H55.5151V49.9985Z" fill="#8A8A8A"/>
<path opacity="0.25" d="M54.2812 104.602H19.5781V105.242H54.2812V104.602Z" fill="#8A8A8A"/>
<path opacity="0.25" d="M55.5151 77.2876H20.9844V77.928H55.5151V77.2876Z" fill="#8A8A8A"/>
<path opacity="0.25" d="M278.143 49.9985H240.41V50.6389H278.143V49.9985Z" fill="#8A8A8A"/>
<path opacity="0.25" d="M278.143 112.607H240.41V113.247H278.143V112.607Z" fill="#8A8A8A"/>
<path opacity="0.25" d="M278.143 81.3027H240.41V81.9431H278.143V81.3027Z" fill="#8A8A8A"/>
</svg>
