<svg width="355" height="256" viewBox="0 0 355 256" fill="none" xmlns="http://www.w3.org/2000/svg">
<path fill-rule="evenodd" clip-rule="evenodd" d="M58.3691 128.757L32.3532 71.3683H237.811L211.795 128.757H58.3691ZM64.3728 142.001L90.3882 199.389H179.776L205.792 142.001H64.3728ZM116.052 256L96.3919 212.632H173.772L154.113 256H116.052ZM243.815 58.1248H26.3495L0 2.54454e-05L270.164 0L243.815 58.1248Z" fill="url(#paint0_linear_792_90)"/>
<path d="M129.061 229.588V236.055C129.061 236.761 128.917 237.39 128.63 237.941C128.348 238.493 127.919 238.928 127.345 239.247C126.771 239.562 126.051 239.719 125.185 239.719C123.95 239.719 123.009 239.384 122.362 238.714C121.719 238.044 121.398 237.148 121.398 236.027V229.588H122.567V236.062C122.567 236.909 122.79 237.563 123.237 238.023C123.688 238.484 124.36 238.714 125.253 238.714C125.864 238.714 126.363 238.604 126.75 238.386C127.142 238.162 127.432 237.853 127.618 237.456C127.81 237.055 127.906 236.592 127.906 236.068V229.588H129.061ZM136.389 237.531C136.389 238.01 136.268 238.413 136.027 238.741C135.79 239.065 135.448 239.309 135.001 239.473C134.559 239.637 134.031 239.719 133.415 239.719C132.891 239.719 132.438 239.678 132.055 239.596C131.672 239.514 131.337 239.397 131.05 239.247V238.201C131.355 238.352 131.72 238.488 132.144 238.611C132.568 238.734 133.001 238.796 133.443 238.796C134.09 238.796 134.559 238.691 134.851 238.481C135.142 238.272 135.288 237.987 135.288 237.627C135.288 237.422 135.229 237.242 135.111 237.087C134.997 236.927 134.803 236.775 134.53 236.629C134.256 236.479 133.878 236.314 133.395 236.137C132.916 235.954 132.502 235.774 132.151 235.597C131.804 235.414 131.535 235.193 131.344 234.934C131.157 234.674 131.064 234.337 131.064 233.922C131.064 233.288 131.319 232.803 131.829 232.466C132.344 232.124 133.019 231.953 133.853 231.953C134.304 231.953 134.725 231.999 135.117 232.09C135.514 232.176 135.883 232.295 136.225 232.445L135.842 233.354C135.532 233.222 135.202 233.111 134.851 233.02C134.5 232.928 134.142 232.883 133.778 232.883C133.253 232.883 132.85 232.969 132.568 233.143C132.29 233.316 132.151 233.553 132.151 233.854C132.151 234.086 132.214 234.277 132.342 234.428C132.474 234.578 132.684 234.719 132.971 234.852C133.258 234.984 133.636 235.139 134.106 235.316C134.575 235.49 134.981 235.67 135.322 235.856C135.664 236.039 135.926 236.262 136.109 236.526C136.295 236.786 136.389 237.121 136.389 237.531ZM141.099 231.953C141.737 231.953 142.284 232.094 142.739 232.377C143.195 232.66 143.544 233.056 143.785 233.566C144.027 234.072 144.148 234.665 144.148 235.344V236.048H138.973C138.987 236.927 139.205 237.597 139.629 238.058C140.053 238.518 140.65 238.748 141.42 238.748C141.894 238.748 142.313 238.705 142.678 238.618C143.043 238.532 143.421 238.404 143.813 238.235V239.233C143.434 239.402 143.058 239.525 142.685 239.603C142.316 239.68 141.878 239.719 141.372 239.719C140.652 239.719 140.023 239.573 139.486 239.281C138.952 238.985 138.538 238.552 138.241 237.982C137.945 237.413 137.797 236.715 137.797 235.891C137.797 235.084 137.932 234.387 138.2 233.799C138.474 233.206 138.857 232.751 139.349 232.432C139.846 232.113 140.429 231.953 141.099 231.953ZM141.085 232.883C140.479 232.883 139.996 233.081 139.636 233.478C139.276 233.874 139.062 234.428 138.993 235.139H142.958C142.954 234.692 142.883 234.3 142.746 233.963C142.614 233.621 142.411 233.357 142.138 233.17C141.864 232.979 141.514 232.883 141.085 232.883ZM149.48 231.953C149.63 231.953 149.787 231.962 149.951 231.98C150.115 231.994 150.261 232.015 150.389 232.042L150.245 233.095C150.122 233.063 149.986 233.038 149.835 233.02C149.685 233.001 149.544 232.992 149.411 232.992C149.111 232.992 148.826 233.054 148.557 233.177C148.293 233.295 148.06 233.468 147.86 233.696C147.659 233.92 147.502 234.191 147.388 234.51C147.274 234.824 147.217 235.175 147.217 235.562V239.582H146.075V232.09H147.019L147.142 233.471H147.19C147.345 233.193 147.531 232.94 147.75 232.712C147.969 232.479 148.222 232.295 148.509 232.158C148.801 232.021 149.124 231.953 149.48 231.953Z" fill="black"/>
<path d="M110.834 174H105.27V164.006H110.834V165.031H106.432V168.265H110.582V169.276H106.432V172.975H110.834V174ZM114.663 170.165L112.072 166.508H113.371L115.346 169.393L117.315 166.508H118.6L116.009 170.165L118.744 174H117.445L115.346 170.944L113.234 174H111.949L114.663 170.165ZM123.091 166.371C123.729 166.371 124.276 166.512 124.732 166.795C125.188 167.077 125.536 167.474 125.778 167.984C126.019 168.49 126.14 169.083 126.14 169.762V170.466H120.965C120.979 171.345 121.198 172.015 121.622 172.476C122.045 172.936 122.642 173.166 123.413 173.166C123.887 173.166 124.306 173.123 124.67 173.036C125.035 172.95 125.413 172.822 125.805 172.653V173.651C125.427 173.82 125.051 173.943 124.677 174.021C124.308 174.098 123.871 174.137 123.365 174.137C122.645 174.137 122.016 173.991 121.478 173.699C120.945 173.403 120.53 172.97 120.234 172.4C119.938 171.831 119.79 171.133 119.79 170.309C119.79 169.502 119.924 168.805 120.193 168.217C120.466 167.624 120.849 167.169 121.341 166.85C121.838 166.531 122.421 166.371 123.091 166.371ZM123.078 167.301C122.471 167.301 121.988 167.499 121.628 167.896C121.268 168.292 121.054 168.846 120.986 169.557H124.951C124.946 169.11 124.875 168.718 124.739 168.381C124.607 168.039 124.404 167.775 124.13 167.588C123.857 167.396 123.506 167.301 123.078 167.301ZM131.069 174.137C130.394 174.137 129.8 173.998 129.285 173.72C128.77 173.442 128.369 173.018 128.082 172.448C127.794 171.879 127.651 171.161 127.651 170.295C127.651 169.388 127.801 168.647 128.102 168.073C128.407 167.494 128.827 167.066 129.36 166.788C129.893 166.51 130.499 166.371 131.178 166.371C131.552 166.371 131.912 166.41 132.258 166.487C132.609 166.56 132.896 166.654 133.12 166.768L132.778 167.718C132.55 167.627 132.286 167.545 131.985 167.472C131.689 167.399 131.411 167.362 131.151 167.362C130.631 167.362 130.198 167.474 129.852 167.697C129.51 167.921 129.253 168.249 129.08 168.682C128.911 169.115 128.827 169.648 128.827 170.281C128.827 170.887 128.909 171.405 129.073 171.833C129.241 172.261 129.49 172.59 129.818 172.817C130.151 173.041 130.565 173.152 131.062 173.152C131.458 173.152 131.816 173.111 132.135 173.029C132.454 172.943 132.744 172.842 133.003 172.729V173.74C132.753 173.868 132.472 173.966 132.163 174.034C131.857 174.103 131.493 174.137 131.069 174.137ZM140.967 166.508V174H140.038L139.874 172.947H139.812C139.657 173.207 139.457 173.426 139.21 173.604C138.964 173.781 138.686 173.913 138.376 174C138.071 174.091 137.745 174.137 137.399 174.137C136.806 174.137 136.31 174.041 135.909 173.85C135.508 173.658 135.205 173.362 134.999 172.961C134.799 172.56 134.699 172.045 134.699 171.416V166.508H135.847V171.334C135.847 171.958 135.988 172.425 136.271 172.735C136.554 173.041 136.984 173.193 137.563 173.193C138.119 173.193 138.561 173.089 138.889 172.879C139.222 172.669 139.461 172.362 139.607 171.956C139.753 171.546 139.826 171.045 139.826 170.452V166.508H140.967ZM145.787 173.207C145.973 173.207 146.165 173.191 146.361 173.159C146.557 173.127 146.716 173.089 146.839 173.043V173.925C146.707 173.984 146.523 174.034 146.286 174.075C146.053 174.116 145.825 174.137 145.602 174.137C145.206 174.137 144.846 174.068 144.522 173.932C144.198 173.79 143.939 173.553 143.743 173.221C143.551 172.888 143.456 172.428 143.456 171.84V167.396H142.389V166.843L143.462 166.398L143.914 164.771H144.597V166.508H146.791V167.396H144.597V171.806C144.597 172.275 144.704 172.626 144.918 172.858C145.137 173.091 145.427 173.207 145.787 173.207ZM149.492 166.508V174H148.357V166.508H149.492ZM148.938 163.705C149.125 163.705 149.284 163.767 149.416 163.89C149.553 164.008 149.622 164.195 149.622 164.45C149.622 164.701 149.553 164.888 149.416 165.011C149.284 165.134 149.125 165.195 148.938 165.195C148.742 165.195 148.578 165.134 148.446 165.011C148.318 164.888 148.254 164.701 148.254 164.45C148.254 164.195 148.318 164.008 148.446 163.89C148.578 163.767 148.742 163.705 148.938 163.705ZM153.545 174L150.702 166.508H151.918L153.566 171.04C153.68 171.35 153.796 171.692 153.915 172.065C154.033 172.439 154.115 172.74 154.161 172.968H154.208C154.263 172.74 154.354 172.439 154.482 172.065C154.61 171.687 154.726 171.345 154.831 171.04L156.478 166.508H157.695L154.844 174H153.545ZM161.783 166.371C162.421 166.371 162.968 166.512 163.423 166.795C163.879 167.077 164.228 167.474 164.469 167.984C164.711 168.49 164.832 169.083 164.832 169.762V170.466H159.657C159.67 171.345 159.889 172.015 160.313 172.476C160.737 172.936 161.334 173.166 162.104 173.166C162.578 173.166 162.997 173.123 163.362 173.036C163.726 172.95 164.105 172.822 164.497 172.653V173.651C164.118 173.82 163.742 173.943 163.369 174.021C162.999 174.098 162.562 174.137 162.056 174.137C161.336 174.137 160.707 173.991 160.169 173.699C159.636 173.403 159.221 172.97 158.925 172.4C158.629 171.831 158.481 171.133 158.481 170.309C158.481 169.502 158.615 168.805 158.884 168.217C159.158 167.624 159.54 167.169 160.033 166.85C160.529 166.531 161.113 166.371 161.783 166.371ZM161.769 167.301C161.163 167.301 160.68 167.499 160.32 167.896C159.96 168.292 159.746 168.846 159.677 169.557H163.642C163.637 169.11 163.567 168.718 163.43 168.381C163.298 168.039 163.095 167.775 162.822 167.588C162.548 167.396 162.197 167.301 161.769 167.301Z" fill="black"/>
<path d="M109.889 94.8877C109.337 94.8877 108.841 94.9834 108.399 95.1748C107.961 95.3617 107.587 95.6351 107.277 95.9951C106.972 96.3506 106.737 96.7812 106.573 97.2871C106.409 97.793 106.327 98.3626 106.327 98.9961C106.327 99.8346 106.457 100.564 106.717 101.184C106.981 101.799 107.373 102.275 107.893 102.612C108.417 102.95 109.071 103.118 109.855 103.118C110.301 103.118 110.721 103.082 111.112 103.009C111.509 102.931 111.894 102.836 112.268 102.722V103.733C111.903 103.87 111.52 103.97 111.119 104.034C110.718 104.103 110.242 104.137 109.691 104.137C108.674 104.137 107.824 103.927 107.141 103.508C106.462 103.084 105.951 102.487 105.61 101.717C105.272 100.947 105.104 100.037 105.104 98.9893C105.104 98.2327 105.208 97.5423 105.418 96.918C105.632 96.2891 105.942 95.7467 106.348 95.291C106.758 94.8353 107.259 94.4844 107.852 94.2383C108.449 93.9876 109.132 93.8623 109.902 93.8623C110.408 93.8623 110.896 93.9124 111.365 94.0127C111.835 94.113 112.259 94.2565 112.637 94.4434L112.172 95.4277C111.853 95.2819 111.502 95.1566 111.119 95.0518C110.741 94.9424 110.331 94.8877 109.889 94.8877ZM120.724 100.24C120.724 100.855 120.644 101.405 120.485 101.888C120.325 102.371 120.095 102.779 119.794 103.111C119.493 103.444 119.129 103.699 118.7 103.877C118.277 104.05 117.796 104.137 117.258 104.137C116.757 104.137 116.296 104.05 115.877 103.877C115.462 103.699 115.102 103.444 114.797 103.111C114.496 102.779 114.262 102.371 114.093 101.888C113.929 101.405 113.847 100.855 113.847 100.24C113.847 99.4199 113.986 98.7227 114.264 98.1484C114.542 97.5697 114.938 97.1299 115.453 96.8291C115.973 96.5238 116.59 96.3711 117.306 96.3711C117.989 96.3711 118.586 96.5238 119.097 96.8291C119.612 97.1344 120.011 97.5765 120.293 98.1553C120.58 98.7295 120.724 99.4245 120.724 100.24ZM115.023 100.24C115.023 100.842 115.102 101.364 115.262 101.806C115.421 102.248 115.667 102.59 116 102.831C116.333 103.073 116.761 103.193 117.285 103.193C117.805 103.193 118.231 103.073 118.564 102.831C118.901 102.59 119.149 102.248 119.309 101.806C119.468 101.364 119.548 100.842 119.548 100.24C119.548 99.6432 119.468 99.1283 119.309 98.6953C119.149 98.2578 118.903 97.9206 118.57 97.6836C118.238 97.4466 117.807 97.3281 117.278 97.3281C116.499 97.3281 115.927 97.5856 115.563 98.1006C115.203 98.6156 115.023 99.3288 115.023 100.24ZM130.82 96.3711C131.645 96.3711 132.267 96.5876 132.687 97.0205C133.106 97.4489 133.316 98.1393 133.316 99.0918V104H132.194V99.1465C132.194 98.5404 132.062 98.0869 131.798 97.7861C131.538 97.4808 131.151 97.3281 130.636 97.3281C129.911 97.3281 129.385 97.5378 129.057 97.957C128.729 98.3763 128.565 98.9938 128.565 99.8096V104H127.437V99.1465C127.437 98.7409 127.377 98.4036 127.259 98.1348C127.145 97.8659 126.972 97.6654 126.739 97.5332C126.512 97.3965 126.222 97.3281 125.871 97.3281C125.374 97.3281 124.976 97.4307 124.675 97.6357C124.374 97.8408 124.155 98.1462 124.019 98.5518C123.887 98.9528 123.82 99.4473 123.82 100.035V104H122.686V96.5078H123.602L123.773 97.5674H123.834C123.985 97.3076 124.174 97.0889 124.402 96.9111C124.629 96.7334 124.885 96.599 125.167 96.5078C125.45 96.4167 125.75 96.3711 126.069 96.3711C126.639 96.3711 127.115 96.4782 127.498 96.6924C127.886 96.902 128.166 97.2233 128.339 97.6562H128.401C128.647 97.2233 128.984 96.902 129.412 96.6924C129.841 96.4782 130.31 96.3711 130.82 96.3711ZM139.167 96.3711C140.101 96.3711 140.847 96.6924 141.402 97.335C141.958 97.9775 142.236 98.9437 142.236 100.233C142.236 101.086 142.109 101.801 141.854 102.38C141.598 102.959 141.238 103.396 140.774 103.692C140.313 103.989 139.769 104.137 139.14 104.137C138.743 104.137 138.395 104.084 138.094 103.979C137.793 103.875 137.536 103.733 137.321 103.556C137.107 103.378 136.93 103.184 136.788 102.975H136.706C136.72 103.152 136.736 103.367 136.754 103.617C136.777 103.868 136.788 104.087 136.788 104.273V107.35H135.647V96.5078H136.583L136.734 97.6152H136.788C136.934 97.3874 137.112 97.18 137.321 96.9932C137.531 96.8018 137.786 96.6514 138.087 96.542C138.392 96.4281 138.752 96.3711 139.167 96.3711ZM138.969 97.3281C138.449 97.3281 138.03 97.4284 137.711 97.6289C137.397 97.8294 137.166 98.1302 137.021 98.5312C136.875 98.9277 136.797 99.4268 136.788 100.028V100.247C136.788 100.881 136.857 101.416 136.993 101.854C137.135 102.291 137.365 102.624 137.684 102.852C138.007 103.079 138.44 103.193 138.983 103.193C139.447 103.193 139.835 103.068 140.145 102.817C140.455 102.567 140.685 102.218 140.835 101.771C140.99 101.32 141.068 100.803 141.068 100.22C141.068 99.3356 140.894 98.6338 140.548 98.1143C140.206 97.5902 139.68 97.3281 138.969 97.3281ZM147.022 96.3848C147.915 96.3848 148.578 96.5853 149.011 96.9863C149.444 97.3874 149.66 98.0277 149.66 98.9072V104H148.833L148.614 102.893H148.56C148.35 103.166 148.131 103.396 147.903 103.583C147.676 103.765 147.411 103.904 147.111 104C146.814 104.091 146.45 104.137 146.017 104.137C145.561 104.137 145.155 104.057 144.8 103.897C144.449 103.738 144.171 103.496 143.966 103.173C143.765 102.849 143.665 102.439 143.665 101.942C143.665 101.195 143.961 100.621 144.554 100.22C145.146 99.8187 146.049 99.5999 147.261 99.5635L148.553 99.5088V99.0508C148.553 98.4036 148.414 97.9502 148.136 97.6904C147.858 97.4307 147.466 97.3008 146.96 97.3008C146.568 97.3008 146.194 97.3577 145.839 97.4717C145.484 97.5856 145.146 97.7201 144.827 97.875L144.479 97.0137C144.816 96.8405 145.203 96.6924 145.641 96.5693C146.078 96.4463 146.539 96.3848 147.022 96.3848ZM148.539 100.309L147.398 100.356C146.463 100.393 145.805 100.546 145.422 100.814C145.039 101.083 144.848 101.464 144.848 101.956C144.848 102.384 144.978 102.701 145.237 102.906C145.497 103.111 145.841 103.214 146.27 103.214C146.935 103.214 147.48 103.029 147.903 102.66C148.327 102.291 148.539 101.737 148.539 100.999V100.309ZM155.546 96.3711C156.435 96.3711 157.107 96.5898 157.563 97.0273C158.018 97.4603 158.246 98.1576 158.246 99.1191V104H157.125V99.1943C157.125 98.57 156.982 98.1029 156.694 97.793C156.412 97.4831 155.977 97.3281 155.389 97.3281C154.559 97.3281 153.976 97.5628 153.639 98.0322C153.302 98.5016 153.133 99.1829 153.133 100.076V104H151.998V96.5078H152.914L153.085 97.5879H153.147C153.306 97.3236 153.509 97.1025 153.755 96.9248C154.001 96.7425 154.277 96.6058 154.582 96.5146C154.888 96.4189 155.209 96.3711 155.546 96.3711ZM159.402 96.5078H160.618L162.273 100.855C162.368 101.111 162.457 101.357 162.539 101.594C162.621 101.826 162.694 102.049 162.758 102.264C162.822 102.478 162.872 102.685 162.908 102.886H162.956C163.02 102.658 163.111 102.359 163.23 101.99C163.348 101.617 163.476 101.236 163.612 100.849L165.178 96.5078H166.402L163.141 105.101C162.968 105.561 162.765 105.962 162.532 106.304C162.305 106.646 162.027 106.908 161.698 107.09C161.37 107.277 160.974 107.37 160.509 107.37C160.295 107.37 160.106 107.356 159.942 107.329C159.777 107.306 159.636 107.279 159.518 107.247V106.338C159.618 106.361 159.739 106.381 159.88 106.399C160.026 106.418 160.176 106.427 160.331 106.427C160.614 106.427 160.858 106.372 161.063 106.263C161.272 106.158 161.452 106.003 161.603 105.798C161.753 105.593 161.883 105.349 161.992 105.066L162.402 104.014L159.402 96.5078Z" fill="black"/>
<path d="M108.924 34V24.0059H110.086V34H108.924ZM116.211 26.3711C117.099 26.3711 117.771 26.5898 118.227 27.0273C118.683 27.4603 118.911 28.1576 118.911 29.1191V34H117.79V29.1943C117.79 28.57 117.646 28.1029 117.359 27.793C117.077 27.4831 116.641 27.3281 116.053 27.3281C115.224 27.3281 114.641 27.5628 114.303 28.0322C113.966 28.5016 113.798 29.1829 113.798 30.0762V34H112.663V26.5078H113.579L113.75 27.5879H113.811C113.971 27.3236 114.174 27.1025 114.42 26.9248C114.666 26.7425 114.941 26.6058 115.247 26.5146C115.552 26.4189 115.873 26.3711 116.211 26.3711ZM123.915 34.1367C122.967 34.1367 122.215 33.8132 121.659 33.166C121.107 32.5189 120.832 31.5573 120.832 30.2812C120.832 28.9915 121.114 28.0186 121.679 27.3623C122.244 26.7015 122.996 26.3711 123.935 26.3711C124.332 26.3711 124.678 26.4235 124.974 26.5283C125.271 26.6331 125.526 26.7744 125.74 26.9521C125.954 27.1253 126.134 27.3236 126.28 27.5469H126.362C126.344 27.4056 126.326 27.2119 126.307 26.9658C126.289 26.7197 126.28 26.5192 126.28 26.3643V23.3633H127.415V34H126.499L126.328 32.9336H126.28C126.139 33.1569 125.959 33.3597 125.74 33.542C125.526 33.7243 125.268 33.8701 124.967 33.9795C124.671 34.0843 124.32 34.1367 123.915 34.1367ZM124.092 33.1934C124.895 33.1934 125.462 32.9655 125.795 32.5098C126.127 32.054 126.294 31.3773 126.294 30.4795V30.2744C126.294 29.3219 126.134 28.5905 125.815 28.0801C125.501 27.5697 124.926 27.3145 124.092 27.3145C123.395 27.3145 122.873 27.5833 122.527 28.1211C122.181 28.6543 122.007 29.3835 122.007 30.3086C122.007 31.2292 122.178 31.9401 122.52 32.4414C122.867 32.9427 123.391 33.1934 124.092 33.1934ZM136.007 26.5078V34H135.078L134.914 32.9473H134.852C134.697 33.207 134.497 33.4258 134.251 33.6035C134.005 33.7812 133.727 33.9134 133.417 34C133.111 34.0911 132.785 34.1367 132.439 34.1367C131.847 34.1367 131.35 34.041 130.949 33.8496C130.548 33.6582 130.245 33.362 130.04 32.9609C129.839 32.5599 129.739 32.0449 129.739 31.416V26.5078H130.887V31.334C130.887 31.9583 131.029 32.4255 131.311 32.7354C131.594 33.0407 132.024 33.1934 132.603 33.1934C133.159 33.1934 133.601 33.0885 133.929 32.8789C134.262 32.6693 134.501 32.3617 134.647 31.9561C134.793 31.5459 134.866 31.0446 134.866 30.4521V26.5078H136.007ZM143.254 31.9492C143.254 32.4277 143.133 32.8311 142.891 33.1592C142.654 33.4827 142.313 33.7266 141.866 33.8906C141.424 34.0547 140.895 34.1367 140.28 34.1367C139.756 34.1367 139.302 34.0957 138.92 34.0137C138.537 33.9316 138.202 33.8154 137.915 33.665V32.6191C138.22 32.7695 138.585 32.9062 139.008 33.0293C139.432 33.1523 139.865 33.2139 140.307 33.2139C140.954 33.2139 141.424 33.109 141.715 32.8994C142.007 32.6898 142.153 32.4049 142.153 32.0449C142.153 31.8398 142.094 31.6598 141.975 31.5049C141.861 31.3454 141.668 31.1927 141.394 31.0469C141.121 30.8965 140.743 30.7324 140.259 30.5547C139.781 30.3724 139.366 30.1924 139.015 30.0146C138.669 29.8324 138.4 29.6113 138.209 29.3516C138.022 29.0918 137.928 28.7546 137.928 28.3398C137.928 27.7064 138.184 27.221 138.694 26.8838C139.209 26.542 139.883 26.3711 140.717 26.3711C141.169 26.3711 141.59 26.4167 141.982 26.5078C142.379 26.5944 142.748 26.7129 143.09 26.8633L142.707 27.7725C142.397 27.6403 142.066 27.5286 141.715 27.4375C141.365 27.3464 141.007 27.3008 140.642 27.3008C140.118 27.3008 139.715 27.3874 139.432 27.5605C139.154 27.7337 139.015 27.9707 139.015 28.2715C139.015 28.5039 139.079 28.6953 139.207 28.8457C139.339 28.9961 139.549 29.1374 139.836 29.2695C140.123 29.4017 140.501 29.5566 140.97 29.7344C141.44 29.9076 141.845 30.0876 142.187 30.2744C142.529 30.4567 142.791 30.68 142.973 30.9443C143.16 31.2041 143.254 31.5391 143.254 31.9492ZM147.499 33.207C147.686 33.207 147.877 33.1911 148.073 33.1592C148.269 33.1273 148.428 33.0885 148.551 33.043V33.9248C148.419 33.984 148.235 34.0342 147.998 34.0752C147.765 34.1162 147.537 34.1367 147.314 34.1367C146.918 34.1367 146.558 34.0684 146.234 33.9316C145.91 33.7904 145.651 33.5534 145.455 33.2207C145.263 32.888 145.168 32.4277 145.168 31.8398V27.3965H144.101V26.8428L145.174 26.3984L145.626 24.7715H146.309V26.5078H148.504V27.3965H146.309V31.8057C146.309 32.2751 146.416 32.626 146.631 32.8584C146.849 33.0908 147.139 33.207 147.499 33.207ZM153.473 26.3711C153.624 26.3711 153.781 26.3802 153.945 26.3984C154.109 26.4121 154.255 26.4326 154.382 26.46L154.239 27.5127C154.116 27.4808 153.979 27.4557 153.829 27.4375C153.678 27.4193 153.537 27.4102 153.405 27.4102C153.104 27.4102 152.819 27.4717 152.55 27.5947C152.286 27.7132 152.054 27.8864 151.853 28.1143C151.653 28.3376 151.495 28.6087 151.382 28.9277C151.268 29.2422 151.211 29.5931 151.211 29.9805V34H150.069V26.5078H151.012L151.135 27.8887H151.183C151.338 27.6107 151.525 27.3577 151.744 27.1299C151.963 26.8975 152.215 26.7129 152.503 26.5762C152.794 26.4395 153.118 26.3711 153.473 26.3711ZM154.615 26.5078H155.832L157.486 30.8555C157.582 31.1107 157.671 31.3568 157.753 31.5938C157.835 31.8262 157.908 32.0495 157.971 32.2637C158.035 32.4779 158.085 32.6852 158.122 32.8857H158.17C158.233 32.6579 158.325 32.3594 158.443 31.9902C158.562 31.6165 158.689 31.236 158.826 30.8486L160.391 26.5078H161.615L158.354 35.1006C158.181 35.5609 157.978 35.9619 157.746 36.3037C157.518 36.6455 157.24 36.9076 156.912 37.0898C156.584 37.2767 156.187 37.3701 155.722 37.3701C155.508 37.3701 155.319 37.3564 155.155 37.3291C154.991 37.3063 154.85 37.279 154.731 37.2471V36.3379C154.831 36.3607 154.952 36.3812 155.093 36.3994C155.239 36.4176 155.39 36.4268 155.545 36.4268C155.827 36.4268 156.071 36.3721 156.276 36.2627C156.486 36.1579 156.666 36.0029 156.816 35.7979C156.966 35.5928 157.096 35.349 157.206 35.0664L157.616 34.0137L154.615 26.5078Z" fill="black"/>
<path d="M290.354 9.64645C290.158 9.45118 289.842 9.45118 289.646 9.64645L286.464 12.8284C286.269 13.0237 286.269 13.3403 286.464 13.5355C286.66 13.7308 286.976 13.7308 287.172 13.5355L290 10.7071L292.828 13.5355C293.024 13.7308 293.34 13.7308 293.536 13.5355C293.731 13.3403 293.731 13.0237 293.536 12.8284L290.354 9.64645ZM350.078 247.34C350.273 247.535 350.59 247.535 350.785 247.34L353.967 244.158C354.162 243.963 354.162 243.646 353.967 243.451C353.772 243.255 353.455 243.255 353.26 243.451L350.432 246.279L347.603 243.451C347.408 243.255 347.091 243.255 346.896 243.451C346.701 243.646 346.701 243.963 346.896 244.158L350.078 247.34ZM289.5 10V11.9892H290.5V10H289.5ZM289.5 15.9675V19.9458H290.5V15.9675H289.5ZM289.5 23.9241V27.9024H290.5V23.9241H289.5ZM289.5 31.8807V35.859H290.5V31.8807H289.5ZM289.5 39.8373V43.8156H290.5V39.8373H289.5ZM289.5 47.7939V51.7722H290.5V47.7939H289.5ZM289.5 55.7505V59.7288H290.5V55.7505H289.5ZM289.5 63.7071V67.6854H290.5V63.7071H289.5ZM289.5 71.6637V75.642H290.5V71.6637H289.5ZM289.5 79.6203V83.5986H290.5V79.6203H289.5ZM289.5 87.5769V91.5552H290.5V87.5769H289.5ZM289.5 95.5335V99.5118H290.5V95.5335H289.5ZM289.5 103.49V107.468H290.5V103.49H289.5ZM289.5 111.447V115.425H290.5V111.447H289.5ZM289.5 119.403V123.382H290.5V119.403H289.5ZM289.5 127.36V131.338H290.5V127.36H289.5ZM289.5 135.317V139.295H290.5V135.317H289.5ZM289.5 143.273V147.251H290.5V143.273H289.5ZM289.5 151.23V155.208H290.5V151.23H289.5ZM289.5 159.186V163.165H290.5V159.186H289.5ZM289.5 167.143V171.121H290.5V167.143H289.5ZM289.5 175.1V179.078H290.5V175.1H289.5ZM289.5 183.056V187.034H290.5V183.056H289.5ZM289.5 191.013V194.991H290.5V191.013H289.5ZM289.5 198.969V202.948H290.5V198.969H289.5ZM289.5 206.926V210.904H290.5V206.926H289.5ZM289.5 214.883V218.861H290.5V214.883H289.5ZM289.5 222.839V226.817H290.5V222.839H289.5ZM289.5 230.796V232.785H290.5V230.796H289.5ZM289.5 232.785C289.5 233.435 289.542 234.076 289.624 234.704L290.616 234.575C290.539 233.989 290.5 233.392 290.5 232.785H289.5ZM290.616 238.413C291.111 239.608 291.76 240.724 292.538 241.735L293.33 241.126C292.606 240.183 292.001 239.143 291.539 238.029L290.616 238.413ZM295.251 244.449C296.263 245.226 297.378 245.875 298.574 246.371L298.957 245.447C297.843 244.985 296.803 244.38 295.86 243.656L295.251 244.449ZM302.282 247.362C302.91 247.444 303.551 247.486 304.201 247.486V246.486C303.594 246.486 302.997 246.447 302.411 246.37L302.282 247.362ZM304.201 247.486C304.852 247.486 305.492 247.444 306.121 247.362L305.992 246.37C305.406 246.447 304.808 246.486 304.201 246.486V247.486ZM309.829 246.371C311.025 245.875 312.14 245.226 313.152 244.449L312.542 243.656C311.599 244.38 310.56 244.985 309.446 245.447L309.829 246.371ZM315.865 241.735C316.643 240.724 317.291 239.608 317.787 238.413L316.863 238.029C316.402 239.143 315.797 240.183 315.072 241.126L315.865 241.735ZM318.779 234.704C318.861 234.076 318.903 233.435 318.903 232.785H317.903C317.903 233.392 317.863 233.989 317.787 234.575L318.779 234.704ZM318.903 232.785V230.801H317.903V232.785H318.903ZM318.903 226.833V222.866H317.903V226.833H318.903ZM318.903 218.898V214.93H317.903V218.898H318.903ZM318.903 210.963V206.995H317.903V210.963H318.903ZM318.903 203.027V199.06H317.903V203.027H318.903ZM318.903 195.092V191.124H317.903V195.092H318.903ZM318.903 187.157V183.189H317.903V187.157H318.903ZM318.903 179.222V175.254H317.903V179.222H318.903ZM318.903 171.286V167.319H317.903V171.286H318.903ZM318.903 163.351V159.383H317.903V163.351H318.903ZM318.903 155.416V151.448H317.903V155.416H318.903ZM318.903 147.48V143.513H317.903V147.48H318.903ZM318.903 139.545V135.577H317.903V139.545H318.903ZM318.903 131.61V127.642H317.903V131.61H318.903ZM318.903 123.674V119.707H317.903V123.674H318.903ZM318.903 115.739V111.771H317.903V115.739H318.903ZM318.903 107.804V103.836H317.903V107.804H318.903ZM318.903 99.8684V95.9007H317.903V99.8684H318.903ZM318.903 91.9331V87.9654H317.903V91.9331H318.903ZM318.903 83.9978V80.0301H317.903V83.9978H318.903ZM318.903 76.0625V72.0948H317.903V76.0625H318.903ZM318.903 68.1272V64.1595H317.903V68.1272H318.903ZM318.903 60.1919V56.2242H317.903V60.1919H318.903ZM318.903 52.2566V48.2889H317.903V52.2566H318.903ZM318.903 44.3213V42.3374H317.903V44.3213H318.903ZM318.903 42.3374C318.903 41.6502 318.947 40.9736 319.034 40.3104L318.042 40.1811C317.95 40.887 317.903 41.6068 317.903 42.3374H318.903ZM320.08 36.3988C320.603 35.1378 321.287 33.9605 322.108 32.8928L321.315 32.2834C320.442 33.4197 319.713 34.6729 319.156 36.0158L320.08 36.3988ZM324.973 30.0281C326.04 29.2076 327.218 28.523 328.479 28.0001L328.096 27.0764C326.753 27.6332 325.499 28.362 324.363 29.2352L324.973 30.0281ZM332.39 26.9542C333.053 26.8677 333.73 26.823 334.417 26.823V25.823C333.687 25.823 332.967 25.8705 332.261 25.9626L332.39 26.9542ZM334.417 26.823C335.104 26.823 335.781 26.8677 336.444 26.9542L336.573 25.9626C335.867 25.8705 335.148 25.823 334.417 25.823V26.823ZM340.356 28.0001C341.617 28.523 342.794 29.2076 343.862 30.0281L344.471 29.2351C343.335 28.362 342.082 27.6332 340.739 27.0763L340.356 28.0001ZM346.726 32.8928C347.547 33.9605 348.232 35.1378 348.754 36.3988L349.678 36.0158C349.121 34.6729 348.393 33.4197 347.519 32.2834L346.726 32.8928ZM349.8 40.3104C349.887 40.9736 349.932 41.6502 349.932 42.3374H350.932C350.932 41.6068 350.884 40.887 350.792 40.1811L349.8 40.3104ZM349.932 42.3374V44.3052H350.932V42.3374H349.932ZM349.932 48.2407V52.1763H350.932V48.2407H349.932ZM349.932 56.1118V60.0474H350.932V56.1118H349.932ZM349.932 63.9829V67.9185H350.932V63.9829H349.932ZM349.932 71.8541V75.7896H350.932V71.8541H349.932ZM349.932 79.7252V83.6607H350.932V79.7252H349.932ZM349.932 87.5963V91.5318H350.932V87.5963H349.932ZM349.932 95.4674V99.4029H350.932V95.4674H349.932ZM349.932 103.338V107.274H350.932V103.338H349.932ZM349.932 111.21V115.145H350.932V111.21H349.932ZM349.932 119.081V123.016H350.932V119.081H349.932ZM349.932 126.952V130.887H350.932V126.952H349.932ZM349.932 134.823V138.758H350.932V134.823H349.932ZM349.932 142.694V146.63H350.932V142.694H349.932ZM349.932 150.565V154.501H350.932V150.565H349.932ZM349.932 158.436V162.372H350.932V158.436H349.932ZM349.932 166.307V170.243H350.932V166.307H349.932ZM349.932 174.178V178.114H350.932V174.178H349.932ZM349.932 182.05V185.985H350.932V182.05H349.932ZM349.932 189.921V193.856H350.932V189.921H349.932ZM349.932 197.792V201.727H350.932V197.792H349.932ZM349.932 205.663V209.599H350.932V205.663H349.932ZM349.932 213.534V217.47H350.932V213.534H349.932ZM349.932 221.405V225.341H350.932V221.405H349.932ZM349.932 229.276V233.212H350.932V229.276H349.932ZM349.932 237.147V241.083H350.932V237.147H349.932ZM349.932 245.019V246.986H350.932V245.019H349.932Z" fill="#810202"/>
<defs>
<linearGradient id="paint0_linear_792_90" x1="135.082" y1="0" x2="135.082" y2="297.98" gradientUnits="userSpaceOnUse">
<stop stop-color="#F2B1B1"/>
<stop offset="1" stop-color="#F6C5A1"/>
</linearGradient>
</defs>
</svg>
