<svg width="771" height="143" viewBox="0 0 771 143" fill="none" xmlns="http://www.w3.org/2000/svg">
<path d="M173.037 70.9745C173.037 73.6981 173.309 76.574 172.936 79.2808C172.562 81.9875 171.118 84.4574 170.591 87.1472C169.997 90.2261 169.98 93.4911 169.589 96.6038C169.504 97.2805 169.317 97.9741 169.521 98.6339C169.657 99.0399 170.031 99.3782 170.183 99.7843C170.54 100.715 170.37 101.628 171.084 102.457C171.627 103.1 172.46 103.218 173.02 103.811C173.87 104.724 174.583 105.248 175.858 105.688C176.622 105.959 177.675 105.942 177.947 106.856C178.202 107.701 177.488 108.716 176.843 109.207C174.719 110.814 171.237 109.545 168.875 109.275C167.703 109.139 166.514 109.106 165.342 108.987C164.458 108.903 162.454 108.987 161.842 108.175C161.231 107.363 161.961 105.333 162.046 104.386C162.182 102.846 162.233 101.29 162.284 99.7335C162.42 96.5193 162.539 93.2881 162.539 90.0569C161.299 90.7675 159.243 91.478 158.36 92.6453C158.003 93.102 158.003 93.7618 157.731 94.2524C157.238 95.0813 156.474 95.5042 156.117 96.4685C155.641 97.7373 155.811 99.0907 156.083 100.393C156.287 101.408 157.17 103.388 155.54 103.692C154.248 103.929 152.872 102.288 152.193 101.391C150.885 99.6658 149.662 97.8557 148.421 96.0963C147.793 95.2166 146.315 93.9648 147.368 93.0174C148.37 92.1208 150.137 91.9009 151.275 91.1058C152.516 90.243 152.906 88.9573 153.909 87.9423C155.268 86.5551 156.746 85.2525 158.19 83.9499C160.279 82.0721 163.762 80.6003 163.048 77.3015C162.675 75.5759 161.995 73.8673 161.536 72.1587C160.993 70.1625 160.364 68.8091 159.141 67.1343C158.139 65.781 157.119 63.8863 155.709 62.9558C154.792 62.3468 154.86 62.3299 154.894 61.1795C154.928 60.1138 155.098 59.048 155.2 57.9991C155.624 53.8714 156.032 49.7267 156.474 45.5989C156.865 41.8095 156.797 37.5295 158.02 33.9092C158.563 32.319 159.447 30.9995 160.534 29.7307C161.621 28.4619 162.726 27.227 162.471 25.4507C162.233 23.8436 161.35 22.3549 160.908 20.7985C160.364 18.8869 160.721 17.0768 161.519 15.3005C162.861 12.3231 165.987 12.8306 168.688 13.5918C171.39 14.3531 174.617 15.6557 173.751 19.1576C173.615 19.7158 173.156 20.1726 173.088 20.7478C172.986 21.6782 173.904 21.9489 173.921 22.7778C173.921 23.3868 173.292 23.9451 173.071 24.4864C172.783 25.18 172.834 26.009 172.375 26.6349C171.627 27.6838 170.387 27.5992 169.385 28.1913C168.094 28.9695 168.705 30.1706 169.198 31.2702C170.846 34.8735 172.256 38.5783 172.613 42.5538C173.003 46.8169 173.649 51.1308 173.683 55.4108C173.683 57.4239 172.919 59.8092 173.564 61.7378C174.21 63.6663 175.739 65.0197 176.673 66.6945C177.335 67.8787 178.406 69.6719 177.183 70.8561C176.078 71.9219 174.312 71.2452 173.02 70.9914L173.037 70.9745Z" fill="#10A09C"/>
<path d="M40.7249 36.7214C41.5937 35.9414 42.4795 34.6699 43.5356 34.229C43.5356 34.8564 43.4845 34.9242 43.2119 35.4159C43.3993 35.2124 43.6208 35.1107 43.8763 35.1446C44.4895 35.5006 42.6328 37.2809 42.4624 37.3995C42.6668 37.62 43.2801 36.7044 43.6889 37.0944C43.8933 37.2809 42.4284 38.2981 42.2239 38.4338C40.8101 39.3324 39.7369 40.0445 39.0215 41.706C38.3061 43.3676 38.1698 45.2834 37.6588 47.0637C37.0966 49.0304 36.0916 50.9971 35.2058 52.8282C34.32 54.6593 33.0936 56.27 32.2248 58.1011C31.833 58.9149 31.4583 59.7796 31.1517 60.6273C30.811 61.5598 31.1687 62.0515 31.2198 63.0349C31.322 65.1033 31.0495 67.104 30.6066 69.1216C30.0955 71.4104 29.4993 73.428 30.0785 75.7339C30.2148 76.2764 30.334 76.7681 30.317 77.3276C30.317 77.5819 30.0274 77.7515 30.0444 78.0397C30.0785 78.9044 30.845 79.9386 31.2198 80.7185C32.1737 82.7191 33.1447 84.6689 33.7749 86.8052C33.9964 87.5512 33.8771 88.009 33.9282 88.7211C34.0134 89.7214 34.3882 90.8065 34.6267 91.7729C35.2058 94.0618 35.3591 95.825 34.4052 98.063C34.0305 98.9277 33.5365 99.7416 33.0084 100.538C32.5655 101.2 31.7649 101.963 31.5435 102.726C30.9984 104.506 33.7579 105.896 34.4563 107.286C34.9844 108.338 34.3371 110.694 32.8381 109.813C31.4923 109.033 31.1006 107.151 30.0104 106.083C29.346 105.438 28.1196 104.76 27.7789 103.862C27.4212 102.912 28.1366 102.149 28.5795 101.386C29.1757 100.335 29.0224 99.3177 29.2268 98.1478C29.4312 96.978 30.0785 96.0963 30.3681 95.0451C30.7599 93.6209 29.0905 91.0947 27.9833 90.1792C27.847 90.0605 27.5574 90.247 27.3871 90.0944C27.0123 89.7723 26.859 89.0432 26.6376 88.6024C26.1777 87.6699 25.7177 86.6357 24.9171 85.9575C24.2187 87.0595 24.2869 88.5346 24.0654 89.7892C23.844 91.0438 23.1626 92.0103 22.9241 93.2988C22.6686 94.6721 22.4812 96.0454 22.5494 97.4357C22.6005 98.3682 23.1115 100.861 21.8169 101.132C21.3399 101.234 20.386 100.708 20.0112 100.403C19.2277 99.7924 18.1375 98.9616 17.7968 97.9783C17.3198 96.6558 17.6435 95.0112 17.4731 93.6209C17.405 93.0275 17.422 91.9424 17.1495 91.3999C16.7747 90.6708 16.6044 91.0269 16.5874 89.9757C16.5022 86.7374 16.6896 83.533 16.894 80.2946C16.911 79.9047 16.9451 79.6165 16.8769 79.2604C16.7236 78.5144 16.6385 78.0058 16.7407 77.1241C16.911 75.4456 16.7066 74.0384 16.4511 72.3938C16.2296 70.9527 16.1274 69.4607 15.9912 68.0026C15.923 67.3583 15.8038 66.5106 15.923 65.8663C16.0423 65.222 16.2807 65.1881 16.5192 64.6116C17.0302 63.4248 16.0593 62.3906 15.429 61.492C14.4581 60.1017 13.2997 58.9658 12.2095 57.6942C10.1825 55.3036 8.2576 52.6926 6.91189 49.8781C6.21348 48.4031 5.51508 47.0297 4.61226 45.6564C4.1353 44.9274 2.7896 43.4693 3.02807 42.6046C3.4369 42.7402 3.70945 43.3676 4.0842 43.0793C4.61226 42.6894 3.50503 41.5026 3.62427 41.0956C3.94793 39.858 4.59523 41.6382 4.93591 42.0621C5.3277 41.0787 4.16937 39.7732 4.6293 39.0441C5.31067 37.976 5.63432 40.4175 5.90687 40.7396C5.95797 39.9936 5.83873 38.8576 6.4179 38.332C6.94596 38.9933 6.80968 40.4005 6.87782 41.2143C8.66642 38.9085 7.30368 43.0454 7.25258 43.8762C7.1163 45.809 9.67144 47.9114 10.7957 49.2847C12.1925 50.9971 13.4019 52.8452 14.7988 54.5576C15.5483 55.4731 16.3318 56.4735 17.2687 57.2025C17.4902 57.372 19.2958 58.5419 19.1425 57.8129C18.4271 58.1689 18.8359 57.1855 18.7507 56.7617C18.5974 56.0157 18.4782 55.9309 18.0182 55.3036C17.1665 54.1337 17.4391 53.2012 17.3709 51.8448C17.3028 50.7089 17.0643 49.5221 17.5753 48.4878C18.1204 47.4027 19.4491 46.2498 20.5052 45.6903C22.9241 44.4526 25.7348 44.7917 27.8129 46.5211C28.6306 47.1993 29.6015 48.3013 29.9252 49.3356C30.2659 50.4546 30.0955 51.8449 30.2488 53.0147C32.0885 50.4207 33.3491 47.1315 34.7289 44.2661C35.3251 43.0115 36.2619 41.5873 36.6367 40.2649C37.0115 38.9424 35.9383 37.3826 35.9213 35.9245C35.9213 35.4837 35.768 34.3816 36.4834 34.7885C36.8922 35.0089 36.8752 36.1619 37.0285 36.5518C37.6417 38.1455 38.7319 37.2639 39.5155 36.3653C39.788 36.0432 41.3382 33.6187 41.8492 34.0595C42.3602 34.5003 40.282 36.3314 40.6909 36.7383L40.7249 36.7214Z" fill="#13997F"/>
<path d="M467.893 109.673C466.074 110.283 465.664 110.085 465.485 108.831C464.719 103.471 463.987 98.0936 463.078 92.734C461.384 82.6243 459.6 72.5324 457.852 62.4406C457.585 60.9528 457.3 59.465 457.014 57.9773C456.979 57.8159 456.925 57.6188 456.818 57.4933C455.909 56.4716 455.909 56.4716 456.194 55.8442C455.124 55.5753 454.018 55.2885 452.609 54.93C452.788 56.4357 452.966 57.9773 453.144 59.5367C452.395 60.0028 451.771 59.7877 451.468 59.0528C450.719 57.2961 450.237 55.4857 451.45 53.5677C449.31 52.7073 447.206 51.8827 444.851 50.9327C445.493 53.5677 446.028 56.0055 446.67 58.4254C447.134 60.1462 447.669 61.8491 448.293 63.5161C448.668 64.502 448.561 65.2728 447.651 65.8464C446.991 66.2587 446.956 66.7068 447.081 67.4238C447.883 71.672 448.668 75.9203 449.328 80.1864C449.934 84.1837 449.595 88.199 448.704 92.1245C448.026 95.1001 446.884 98.004 445.993 100.944C445.85 101.428 445.886 101.965 445.814 102.718C444.548 103.579 444.602 104.636 446.349 105.407C449.185 106.644 451.967 108.006 455.177 108.311C455.534 108.347 455.819 108.92 456.14 109.243C455.784 109.458 455.409 109.835 455.053 109.835C451.29 109.835 447.544 109.709 443.781 109.691C442.051 109.691 440.322 109.781 438.592 109.888C437.468 109.942 437.04 109.512 437.236 108.454C437.468 107.235 437.432 105.909 437.896 104.78C439.59 100.549 438.538 96.3549 437.967 92.1425C437.789 90.9056 437.593 89.6509 437.076 88.4141C433.919 92.8236 430.87 97.287 427.535 101.571C426.714 102.629 426.5 103.417 426.928 104.475C427.142 104.995 427.624 105.443 428.052 105.855C428.301 106.106 428.801 106.16 428.979 106.429C429.336 106.949 429.532 107.558 429.799 108.132C429.211 108.114 428.605 108.221 428.07 108.06C424.467 107.002 421.489 105.174 419.491 102.001C419.046 101.284 417.958 100.926 417.191 100.37C416.103 99.5993 415.461 98.8465 416.602 97.5379C417.226 96.8388 417.209 95.6379 417.815 94.9209C419.384 93.0567 421.114 91.3 424.003 91.1028C423.611 88.7726 425.002 87.5716 426.964 86.7112C427.267 86.5678 427.517 86.2272 427.695 85.9225C428.676 84.2017 429.675 82.4809 430.566 80.7242C431.173 79.5411 431.583 78.2505 433.331 78.627C433.42 78.376 433.491 78.2685 433.473 78.2326C431.529 76.1891 432.421 73.5004 431.726 71.1881C431.619 70.8116 431.636 70.3814 431.458 70.0408C430.37 68.0332 429.14 66.0794 428.141 64.018C427.481 62.6557 426.304 62.1897 425.002 61.7953C423.95 61.4727 423.451 60.8991 423.558 59.8235C423.861 56.9018 424.128 53.98 424.431 51.0582C424.788 47.5628 425.109 44.0495 425.519 40.5541C425.947 36.8794 426.304 33.1869 427 29.566C427.731 25.8555 429.336 22.4677 432.778 20.2629C434.311 19.277 436.113 18.6676 437.736 17.7892C438.948 17.126 440.072 16.3194 441.195 15.5307C441.695 15.1901 442.176 14.975 441.463 14.1146C440.839 13.3617 440.857 11.9994 440.874 10.9239C440.91 9.68708 441.802 8.91631 442.943 8.30685C443.692 7.9125 444.263 7.1955 444.887 6.60397C446.777 4.82939 448.115 4.65013 450.612 5.49261C454.072 6.65774 455.712 8.8446 455.677 12.34C455.659 13.8816 456.069 15.4052 456.194 16.9467C456.212 17.2515 455.766 17.8251 455.498 17.8609C454.535 17.9505 454.268 18.56 454.072 19.277C453.697 20.6393 453.162 21.5356 451.289 21.5714C447.687 21.6431 445.654 24.4932 445.993 27.9348C446.278 30.8028 446.1 33.7246 446.118 36.6106C446.118 38.2955 446.028 39.9984 446.153 41.6834C446.189 42.2928 446.528 43.0636 447.009 43.44C448.9 44.9099 450.897 46.2543 452.841 47.6345C453.715 48.2619 454.856 48.5845 455.053 49.8751C455.088 50.1261 455.873 50.3591 456.354 50.4487C457.496 50.628 458.28 51.0223 458.316 52.295C458.316 52.7073 458.691 53.1016 458.815 53.5318C458.922 53.9441 459.136 54.5715 458.94 54.7866C457.817 55.9517 458.334 57.2244 458.548 58.4612C459.85 66.0615 461.17 73.6438 462.489 81.244C463.916 89.5433 465.307 97.8427 466.787 106.142C467.001 107.361 467.59 108.526 468 109.709L467.893 109.673Z" fill="#025CA0"/>
<path d="M328.34 103.318C328.071 103.25 327.784 103.25 327.515 103.318C325.897 103.673 324.313 103.402 322.729 103.081C319.477 101.963 316.714 100.355 316.023 96.5797C315.787 94.1927 315.315 91.8564 314.675 89.554C314.388 87.5733 313.899 85.6095 313.832 83.6288C313.596 77.4157 310.917 71.9984 308.507 66.4963C307.749 64.414 306.991 62.3317 306.266 60.2325C306.165 59.9447 305.794 59.64 306.081 59.3522C307.833 57.5238 306.991 55.4077 306.789 53.3592V47.8064C308.406 48.2296 309.737 48.9576 311.237 49.1608C313.782 50.0749 315.45 52.0895 317.32 53.8671C318.971 55.4415 320.707 55.2384 322.139 53.3423C322.965 51.9202 322.83 50.9045 321.735 49.7363C321.061 49.0253 320.202 48.7037 319.275 48.5852C316.461 48.2466 314.068 47.0615 311.979 45.1824C310.563 43.9127 309.131 42.6599 307.699 41.4071C307.311 40.4422 307.294 39.4264 307.362 38.4106C307.581 35.0248 307.041 31.7744 305.811 28.6255C305.457 27.7283 304.952 26.8141 304.918 25.883C304.851 24.1054 304.312 22.6495 303.031 21.4306C302.357 20.7873 302.475 20.0424 302.778 19.2467C303.098 18.3833 303.722 18.214 304.531 18.1971C305.104 18.1971 305.727 18.3833 306.249 17.9601C307.041 17.7231 307.109 17.1813 306.907 16.4703C306.654 15.5561 306.738 14.6419 307.109 13.7616C307.749 13.3553 308.17 12.8813 307.783 12.0517C307.126 10.6297 307.008 9.10604 306.991 7.5824C306.907 6.17727 307.025 4.65364 305.356 4.01032C302.02 2.74063 298.684 2.4359 295.549 4.5182C293.443 5.9064 292.921 7.59933 293.662 9.90172C293.679 10.7651 293.932 11.5777 294.302 12.3395C294.42 13.2368 294.64 14.1171 295.078 14.9297C295.398 16.4703 294.673 17.503 293.426 18.2479C288.405 19.9069 284.647 23.005 282.271 27.796C281.227 29.8952 280.266 32.0452 278.682 33.8567C277.671 35.0079 277.199 36.5315 277.284 38.0382C277.452 40.7977 277.84 43.5402 278.126 46.2997C278.716 49.5671 278.901 52.8175 277.974 56.0848C277.014 59.4707 278.076 61.1636 281.345 62.1624C282.052 62.3825 282.474 62.2979 282.777 61.6038C283.367 60.2494 283.72 58.8443 283.586 57.3884C283.232 53.5116 283.518 49.6348 283.687 45.7749C283.788 43.6926 283.754 41.5256 284.765 39.5618C285.405 41.1363 284.765 42.8292 285.288 44.4205C285.406 48.1958 285.574 51.971 285.591 55.7632C285.591 57.1344 285.911 58.2348 287.006 59.0475C287.933 59.7246 288.118 60.6388 288.152 61.7392C288.253 64.8373 287.815 67.8846 287.545 70.9488C287.192 72.3708 286.838 73.8098 286.484 75.2319C285.338 78.1776 283.754 80.8862 282.271 83.6627C282.238 83.6965 282.187 83.7134 282.153 83.7473C278.21 90.8237 275.868 98.5604 273.122 106.128C272.768 107.093 273.206 108.092 274.183 108.227C275.952 108.481 277.739 108.989 279.525 108.498C279.946 108.379 280.334 108.295 280.738 108.413C283.114 109.057 285.574 109.192 287.933 109.818C290.039 110.377 291.472 109.649 292.837 108.159C291.825 107.567 290.865 107.144 289.753 106.873C284.715 105.705 282.423 101.591 285.102 97.3415C288 92.7198 290.528 87.8442 293.005 82.9686C294.589 79.8874 295.819 76.637 296.813 73.3019C297.538 71.5921 297.487 71.6598 299.037 72.8787C301.228 74.6055 302.492 76.9248 303.149 79.5319C305.575 89.2324 308.962 98.7128 310.445 108.65C310.496 108.938 310.31 109.412 310.748 109.48C312.602 109.751 314.506 110.343 316.242 109.26C316.831 108.904 317.388 108.701 318.011 108.616C320.168 108.346 322.308 108.024 324.414 107.499C326.049 107.398 327.548 106.89 328.947 106.009C329.57 105.62 330.126 105.112 329.975 104.384C329.823 103.639 329.014 103.504 328.357 103.351L328.34 103.318ZM294.454 46.1304C294.454 46.1304 294.488 46.0627 294.505 46.0288C294.505 46.0288 294.505 46.0119 294.505 45.995C294.538 46.0627 294.522 46.0965 294.437 46.1135L294.454 46.1304Z" fill="#0188AD"/>
<path d="M636.603 98.6982C636.038 97.6611 635.583 97.3099 634.424 97.4948C634.021 97.5584 633.617 97.7042 633.216 97.6981C631.999 97.6816 630.686 97.8808 629.597 97.4824C628.43 97.0553 627.475 96.0469 626.347 95.2337C627.649 94.4266 628.856 93.677 630.097 92.9069C629.085 90.5226 628.071 88.2472 627.146 85.9347C625.13 80.8971 622.683 76.0197 621.612 70.633C621.334 69.2303 620.846 67.8688 620.447 66.4908C619.554 63.4165 617.442 61.8372 614.319 61.6442C612.222 61.5127 610.189 61.2047 608.28 60.1676C608.28 59.1243 608.239 58.8799 607.086 58.6314C605.636 58.3193 604.129 58.2823 602.648 58.1037C602.261 58.0564 601.843 57.9907 601.509 57.8059C600.36 57.1734 599.248 56.4751 598.106 55.8303C597.913 55.7214 597.643 55.7173 597.409 55.7173C595.187 55.7214 593.518 54.5098 591.904 53.1934C591.749 53.0661 591.667 52.7744 591.655 52.5526C591.513 50.1211 590.493 48.0059 589.338 45.9317C587.12 41.9496 584.917 37.9614 582.711 33.9733C582.648 33.8603 582.613 33.7309 582.474 33.3859C583.543 32.9382 584.606 32.5439 585.615 32.0408C585.988 31.8539 586.522 31.3733 586.486 31.094C586.373 30.2479 586.428 29.5086 586.715 28.6851C586.998 27.8719 586.852 26.9231 588.034 26.6787C588.253 26.6335 588.495 26.0338 588.482 25.6991C588.47 25.3212 588.222 24.9269 588.005 24.586C587.538 23.8508 587.237 23.1526 587.843 22.3208C587.993 22.1134 587.981 21.7109 587.909 21.4337C587.643 20.374 587.293 19.3369 587.037 18.2751C586.957 17.9445 586.998 17.5338 587.127 17.2155C587.385 16.5788 587.802 15.9627 587.278 15.3015C586.443 14.2479 585.449 13.4532 583.989 13.5538C583.616 13.5784 583.193 13.6667 582.875 13.5312C580.301 12.4202 577.894 13.2786 575.541 14.2027C573.434 15.0304 572.015 16.5644 571.861 18.9446C571.767 20.4048 571.882 21.8752 571.835 23.3394C571.781 24.9392 572.291 26.2228 573.797 27.0627C573.569 27.3769 573.385 27.8328 573.221 27.8267C572.074 27.7774 572.037 28.7508 571.65 29.41C571.517 29.6359 571.359 29.8577 571.169 30.0344C570.518 30.634 569.78 31.1515 569.199 31.8108C567.284 33.9794 565.621 36.2651 565.302 39.3169C565.134 40.9331 564.614 42.5123 564.183 44.4181C563.843 43.9396 563.622 43.6275 563.399 43.3153C562.856 42.5575 562.461 41.5738 561.736 41.0994C560.718 40.434 559.461 40.1178 558.173 40.4792C556.696 40.8941 555.22 41.3192 553.731 41.6847C553.082 41.8449 552.873 42.1776 553.073 42.7793C553.206 43.1798 553.387 43.5659 553.555 43.9766C554.327 43.7322 554.953 43.4755 555.607 43.342C556.313 43.1983 557.071 43.2701 557.753 43.0689C558.527 42.8409 559.242 42.4138 559.983 42.0729C561.394 41.9907 562.088 42.8019 561.974 44.2497C561.947 44.5824 561.951 44.9274 562.011 45.2519C563.36 52.5814 564.714 59.9109 566.09 67.2342C566.207 67.8585 566.131 68.1953 565.511 68.5218C556.311 73.3808 551.744 83.84 553.419 93.4593C556.252 109.722 575.955 117.579 589.056 107.556C589.629 107.116 590.346 106.798 591.046 106.601C593.989 105.777 596.658 104.442 598.902 102.364C603.738 97.8849 606.052 92.3832 605.421 85.7355C605.374 85.2447 605.253 84.7416 606.121 84.7826C606.199 85.0907 606.328 85.407 606.357 85.7335C606.572 88.128 607.706 90.3624 607.229 92.9151C607.008 94.1021 607.7 95.4616 607.942 96.5727C607.557 96.9341 607.207 97.2606 606.725 97.7124C604.491 97.9055 604.112 98.2443 603.619 100.557C603.566 100.805 603.316 101.048 603.099 101.214C602.722 101.501 602.265 101.688 601.896 101.984C599.75 103.703 599.246 106.728 600.711 108.995C602.134 111.199 604.798 111.915 607.18 110.737C609.5 109.589 610.881 106.597 609.804 104.338C609.12 102.902 609.152 101.83 610.088 100.661C610.234 100.479 610.328 100.247 610.414 100.025C610.803 99.0432 611.247 98.0657 610.78 96.9957C610.389 96.9156 610.035 96.8417 609.681 96.7698C609.787 96.7493 609.894 96.7267 610 96.7061C610.058 96.0141 610.115 95.322 610.195 94.3588C610.66 94.4882 611.516 94.5519 611.555 94.7634C611.915 96.7575 612.959 98.6448 612.552 100.772C612.495 101.068 612.644 101.436 612.785 101.727C613.113 102.409 613.588 103.031 613.838 103.736C614.692 106.147 616.359 107.239 618.868 106.931C619.265 106.882 619.66 106.835 620.148 106.775C619.343 107.482 619.331 107.975 620.174 108.461C620.555 108.681 621.159 108.716 621.6 108.599C626.015 107.426 630.412 106.182 634.825 105.009C635.786 104.754 636.017 104.338 635.415 103.514C636.243 103.126 636.456 102.59 636.116 101.805C636.036 101.623 636.118 101.218 636.265 101.111C637.248 100.403 637.123 99.6531 636.599 98.6941L636.603 98.6982ZM602.052 83.9673C601.923 84.3925 601.622 84.9819 601.272 85.0825C600.401 85.331 599.463 85.3453 598.329 85.4788C598.175 85.3618 597.71 85.1749 597.694 84.9552C597.669 84.6163 597.878 84.0146 598.116 83.9427C599.21 83.61 600.342 83.3841 601.475 83.2219C601.642 83.1972 602.109 83.7825 602.052 83.9673ZM600.588 80.4351C600.768 81.006 600.915 81.466 600.078 81.6467C598.999 81.8788 597.942 82.2156 596.76 82.5401C596.324 81.9404 596.406 81.4249 597.246 81.045C598.02 80.6938 598.759 80.2667 599.506 79.86C600.172 79.4965 600.408 79.86 600.588 80.4351ZM592.931 83.7353C593.035 84.0413 593.043 84.6697 592.916 84.719C591.812 85.1585 590.659 85.409 589.484 85.4254C589.437 85.2611 589.39 85.0969 589.34 84.9305C590.309 84.4212 591.266 83.8873 592.259 83.4272C592.414 83.3554 592.873 83.5648 592.931 83.7353ZM588.765 89.1528C588.798 89.1364 588.831 89.12 588.863 89.0994C588.964 89.0399 589.068 88.97 589.168 88.9105C589.236 88.8715 589.302 88.8386 589.361 88.8181C589.422 88.7975 589.48 88.7934 589.529 88.8078C590.084 88.9783 590.594 89.2925 591.122 89.5492C591.093 89.6621 591.065 89.7751 591.036 89.888C590.446 89.8511 589.848 89.8634 589.275 89.7504C589.175 89.7299 589.089 89.6334 589.007 89.5143C588.966 89.4547 588.927 89.391 588.886 89.3274C588.865 89.2966 588.845 89.2658 588.824 89.235C588.804 89.2062 588.783 89.1775 588.763 89.1508L588.765 89.1528ZM590.272 79.6916C590.412 79.704 590.551 79.7183 590.69 79.7307C591.128 80.4043 591.608 81.0573 591.98 81.7658C592.077 81.9507 591.927 82.4497 591.741 82.5668C590.852 83.1295 589.926 83.6367 588.986 84.107C588.536 84.3308 587.909 84.2466 588.185 83.61C588.773 82.2567 589.564 80.9916 590.272 79.6916ZM588.9 61.0014C588.914 61.1431 588.927 61.2868 588.941 61.4285C581.896 62.0672 574.851 62.7038 567.808 63.3425C567.796 63.2029 567.782 63.0612 567.769 62.9215C574.814 62.2808 581.857 61.6421 588.902 61.0014H588.9ZM578.927 83.6039C579.637 84.0721 580.252 84.4767 581.05 85.0024C580.248 85.4932 579.613 85.9389 578.925 86.2736C578.683 86.3907 578.253 86.3188 578.019 86.1648C577.897 86.0847 577.935 85.6062 578.038 85.3659C578.282 84.7826 578.603 84.2343 578.929 83.6059L578.927 83.6039ZM575.046 80.3694C575.054 80.2482 575.062 80.127 575.07 80.0059C576.35 79.9319 577.628 79.8375 578.908 79.819C579.017 79.819 579.287 80.3817 579.215 80.5911C579.035 81.1271 578.703 81.6139 578.384 82.2135C577.167 81.542 576.107 80.9546 575.044 80.3673L575.046 80.3694ZM579.758 89.1795C580.825 88.9659 581.755 88.7811 582.775 88.5757C582.242 89.9106 580.952 90.1858 579.758 89.1795ZM581.147 90.8409C580.917 91.2065 580.764 91.4488 580.542 91.8C580.106 91.5043 579.725 91.2455 579.346 90.9867C579.377 90.8964 579.406 90.804 579.437 90.7136C579.965 90.7526 580.493 90.7916 581.149 90.8409H581.147ZM580.874 86.8794L580.772 86.6186C581.245 86.3578 581.702 86.0456 582.207 85.8814C582.314 85.8464 582.597 86.364 582.99 86.8774H580.874V86.8794ZM582.502 83.9571C582.3 84.1727 581.892 84.1953 581.568 84.2877C581.517 84.3021 581.442 84.2487 581.382 84.2158C578.898 82.8419 578.884 83.1295 580.592 80.3652C581.263 81.2853 581.945 82.1622 582.549 83.0904C582.685 83.2958 582.66 83.7907 582.504 83.9571H582.502ZM578.509 92.3011C578.765 92.1306 579.355 92.4633 579.996 92.6132C579.463 93.2786 579.113 93.716 578.632 94.3157C578.331 93.486 577.704 92.8371 578.509 92.3011ZM579.688 94.1843C579.887 93.8392 580.209 93.5661 580.522 93.2088C581.269 93.6072 581.984 93.9851 582.832 94.4348C582.209 96.1701 581.593 97.8829 580.977 99.5977C580.893 99.5813 580.807 99.5669 580.723 99.5505C580.221 98.1745 579.666 96.815 579.254 95.4144C579.154 95.0735 579.471 94.5642 579.688 94.1863V94.1843ZM581.134 92.2415C581.575 91.8185 581.913 91.3625 582.363 91.1058C582.701 90.9128 583.184 90.9765 583.602 90.9272C583.623 91.2701 583.715 91.6295 583.645 91.954C583.532 92.4777 583.313 92.9767 583.098 93.6113C582.41 93.1307 581.808 92.7118 581.134 92.2415ZM583.557 82.9323C582.738 81.8603 581.906 80.7719 581.052 79.6526C582.549 79.055 583.967 79.1022 584.278 79.7019C585.068 81.2237 584.888 82.1725 583.557 82.9323ZM584.073 93.5908C584.286 92.7385 584.565 91.8944 584.903 91.0833C585.009 90.8265 585.38 90.6807 585.628 90.4836C585.795 90.7423 586.086 90.9888 586.111 91.2578C586.234 92.6379 586.289 94.0261 586.383 95.667C585.537 95.168 584.9 94.8558 584.346 94.4348C584.147 94.2828 584.01 93.8413 584.073 93.5887V93.5908ZM585.599 81.0635C584.743 79.0899 584.882 78.9297 587.319 79.0345C586.711 79.7512 586.201 80.3509 585.599 81.0635ZM569.295 86.9061C570.03 87.2265 570.776 87.5202 571.488 87.8837C571.673 87.9781 571.837 88.2862 571.839 88.4977C571.839 88.623 571.509 88.855 571.323 88.8591C570.716 88.8735 569.983 88.9967 569.539 88.7072C569.158 88.4587 569.107 87.7009 568.91 87.169C569.037 87.0807 569.166 86.9924 569.293 86.9041L569.295 86.9061ZM568.976 84.9983C569.152 84.1419 569.404 83.304 569.711 82.1478C570.718 83.6531 571.566 84.9038 572.388 86.173C572.476 86.3085 572.48 86.6617 572.396 86.7131C572.232 86.8178 571.945 86.865 571.769 86.7911C570.925 86.4379 570.088 86.058 569.279 85.6308C569.107 85.5404 568.937 85.1872 568.976 84.9983ZM571.392 90.1571C572.056 90.3049 572.127 90.7773 571.595 91.1777C571.089 91.5576 570.499 91.8226 569.762 92.2436C569.555 91.3995 569.402 90.7793 569.199 89.9517C570.026 90.0215 570.727 90.0092 571.394 90.1571H571.392ZM572.41 91.8924C573.422 92.6584 573.084 93.9029 571.396 95.5417C569.977 93.6031 570.118 93.1328 572.41 91.8924ZM570.534 81.5276C570.114 80.9957 570.395 80.5624 570.921 80.4351C571.638 80.2626 572.392 80.2256 573.133 80.1948C573.309 80.1866 573.629 80.4084 573.655 80.5644C573.948 82.2834 574.198 84.0105 574.458 85.7355L574.032 85.8834C572.865 84.4315 571.689 82.9878 570.536 81.5256L570.534 81.5276ZM573.149 96.318C573.366 95.4288 573.639 94.5498 573.934 93.6832C573.964 93.5949 574.046 93.525 574.145 93.4593C574.241 93.3936 574.354 93.3341 574.44 93.2642C574.454 93.2868 574.47 93.3094 574.487 93.3299C574.605 93.486 574.773 93.6421 574.767 93.792C574.706 95.4185 574.603 97.0429 574.507 98.8173C572.891 97.9322 572.795 97.7679 573.149 96.316V96.318ZM566.75 72.4238C567.036 74.2022 567.286 75.7445 567.534 77.2889C567.46 77.3361 567.386 77.3833 567.313 77.4306C566.373 76.3586 565.431 75.2866 564.388 74.0996C565.228 73.504 565.906 73.0234 566.75 72.4238ZM559.422 79.9812C560.636 78.3917 561.857 76.8063 563.096 75.2352C563.481 74.7465 563.942 74.7054 564.366 75.2147C565.189 76.2087 566.043 77.1821 566.797 78.2274C567.014 78.5293 567.063 79.0879 566.958 79.4657C566.561 80.9054 566.07 82.3162 565.574 83.8667C563.628 82.9426 561.699 82.0246 559.77 81.1107C559.236 80.8581 559.037 80.4885 559.426 79.9812H559.422ZM557.214 86.7131C557.61 85.1954 558.015 83.6798 558.423 82.1642C558.593 81.5276 559.006 81.4804 559.524 81.735C561.421 82.6674 563.321 83.5956 565.205 84.5547C565.406 84.6574 565.627 84.951 565.635 85.1667C565.68 86.1812 565.656 87.1977 565.656 88.2903C562.969 88.0726 560.46 87.8734 557.952 87.6639C557.384 87.6167 557.05 87.3394 557.214 86.7151V86.7131ZM557.229 91.6891C557.118 90.8779 557.104 90.0544 557.063 89.235C557.03 88.5819 557.382 88.2697 558.007 88.3314C560.415 88.5655 562.822 88.8078 565.224 89.0933C565.424 89.1179 565.695 89.4526 565.748 89.6847C566.022 90.882 566.27 92.0875 566.451 93.3012C566.494 93.5908 566.344 94.0795 566.125 94.211C563.936 95.5212 561.712 96.776 559.363 98.1232C558.076 96.0284 557.528 93.8968 557.225 91.687L557.229 91.6891ZM563.153 103.068C561.931 101.721 560.772 100.316 559.401 98.6961C562.125 97.3263 564.542 96.1126 566.942 94.9051C568.251 96.8581 568.261 97.429 566.993 99.1418C566.061 100.401 565.103 101.643 564.097 102.845C563.921 103.054 563.264 103.192 563.153 103.068ZM568.455 106.438C567.239 105.767 566.018 105.099 564.814 104.403C564.255 104.081 564.228 103.666 564.657 103.157C566.033 101.518 567.382 99.8565 568.814 98.115C569.332 98.8194 569.873 99.341 570.143 99.9776C570.434 100.664 570.684 101.491 570.571 102.196C570.368 103.461 569.887 104.683 569.512 105.921C569.348 106.461 569.041 106.759 568.455 106.436V106.438ZM574.751 107.88C573.407 107.677 572.064 107.453 570.729 107.198C570.243 107.106 569.928 106.816 570.118 106.239C570.645 104.66 571.169 103.079 571.708 101.452C572.844 102.3 573.866 103.038 574.853 103.818C575.07 103.988 575.267 104.294 575.306 104.561C575.431 105.405 575.48 106.26 575.552 107.112C575.599 107.689 575.298 107.962 574.751 107.88ZM575.052 81.0162C576.162 81.7309 577.032 82.2916 577.989 82.9077C577.405 83.8934 577.284 85.0763 575.918 85.828C575.617 84.1563 575.357 82.7187 575.052 81.0162ZM575.928 93.905C575.939 93.7489 576.524 93.5024 576.827 93.523C577.321 93.5558 578.015 95.1248 577.733 95.5561C577.276 96.2543 576.735 96.8992 576.232 97.5666C576.117 97.5235 576.002 97.4783 575.887 97.4352C575.887 96.2564 575.853 95.0776 575.928 93.905ZM576.61 98.4127C577.133 97.7597 577.681 97.1271 578.341 96.3385C579.047 97.8808 579.748 99.2342 580.264 100.655C580.407 101.05 580.061 101.676 579.809 102.122C579.75 102.226 579.127 102.093 578.818 101.953C578.171 101.66 577.522 101.341 576.94 100.939C575.933 100.243 575.84 99.378 576.612 98.4168L576.61 98.4127ZM576.967 107.886C576.729 107.919 576.219 107.496 576.189 107.243C576.088 106.412 576.152 105.559 576.152 104.685C578.13 105.379 580.065 106.058 581.999 106.736C582.017 106.827 582.035 106.917 582.054 107.007C580.36 107.311 578.671 107.648 576.969 107.886H576.967ZM585.339 103.559C584.706 103.434 584.059 103.391 583.422 103.286C582.076 103.062 581.251 101.945 581.614 100.635C582.14 98.7372 582.793 96.8746 583.446 94.8312C584.409 95.3651 585.228 95.7758 585.99 96.2728C586.219 96.4227 586.398 96.8129 586.414 97.1025C586.516 98.8707 586.561 100.643 586.633 102.413C586.67 103.333 586.297 103.748 585.339 103.559ZM586.783 83.3143C586.535 83.2445 586.244 82.9734 586.176 82.731C586.119 82.5277 586.285 82.1622 586.469 82.0041C587.139 81.427 587.856 80.9074 588.554 80.3652C588.597 80.4022 588.638 80.4392 588.681 80.4761C588.249 81.2791 587.837 82.0924 587.374 82.8789C587.254 83.0843 586.932 83.3595 586.785 83.3163L586.783 83.3143ZM590.526 100.052C589.676 101.169 588.765 102.241 587.874 103.329C587.706 103.272 587.538 103.216 587.368 103.159C587.272 101.224 587.176 99.2896 587.061 97.0183C588.335 97.8767 589.375 98.5483 590.371 99.2814C590.534 99.4026 590.635 99.9078 590.526 100.052ZM591.648 98.1745C591.595 98.2813 590.842 98.1088 590.455 97.9568C590.016 97.7843 589.654 97.4105 589.211 97.2647C587.333 96.6466 586.787 95.3261 587.03 93.4758C587.127 92.7385 587.004 91.9725 587.069 91.2291C587.094 90.9436 587.37 90.6828 587.622 90.2556C588.101 90.6766 588.452 90.8923 588.679 91.1983C589.857 92.7837 590.999 94.3958 592.163 95.9935C592.83 96.9095 591.984 97.5112 591.648 98.1786V98.1745ZM593.023 95.6814C592.912 95.6916 592.801 95.704 592.691 95.7142C591.655 94.1945 590.618 92.6728 589.498 91.0278C590.821 90.4877 591.976 90.5637 593.07 91.034C593.365 91.1613 593.651 91.7712 593.617 92.1265C593.498 93.3197 593.232 94.4964 593.023 95.6793V95.6814ZM589.601 87.3169C589.66 87.1957 589.717 87.0766 589.777 86.9554C590.782 86.8219 591.79 86.7028 592.791 86.5488C593.387 86.4564 593.703 86.6823 593.748 87.2778C593.799 87.9473 593.84 88.6168 593.905 89.5841C592.345 88.6928 590.631 88.6353 589.598 87.3189L589.601 87.3169ZM598.173 77.5415C598.628 77.5825 599.074 78.2027 599.404 78.6504C599.459 78.7264 598.958 79.3487 598.616 79.5602C597.839 80.0387 597.004 80.4207 596.043 80.9177C595.488 79.8436 594.987 78.8702 594.372 77.6832C595.824 77.6072 597.01 77.4367 598.171 77.5394L598.173 77.5415ZM597.368 99.1849C596.643 99.7948 595.908 100.395 595.009 100.881C595.54 99.608 596.068 98.3347 596.631 96.9813C596.906 97.2175 597.121 97.427 597.36 97.6056C598.065 98.1334 597.989 98.6612 597.368 99.1849ZM600.653 94.519C600.119 95.4288 599.57 96.3303 599.031 97.236C598.747 97.7165 598.419 97.6775 598.03 97.3572C597.284 96.7452 596.723 96.1332 597.143 95.016C597.461 94.1699 597.551 93.2375 597.772 92.2128C598.695 92.6789 599.478 93.0897 600.274 93.4675C600.772 93.7037 600.942 94.0282 600.653 94.5211V94.519ZM602.388 87.5017C602.183 88.9844 601.976 90.4672 601.726 91.9417C601.63 92.5085 601.229 92.7508 600.662 92.5475C599.896 92.2723 599.115 92.0136 598.396 91.6439C598.136 91.5104 597.893 91.0791 597.88 90.7732C597.823 89.5163 597.856 88.2554 597.856 86.9431C599.033 86.863 600.248 86.7993 601.46 86.6905C602.091 86.633 602.486 86.7911 602.388 87.5017ZM603.07 77.8208C604.44 77.6647 605.044 78.8805 605.069 80.7821C603.701 80.0818 603.828 78.7079 603.07 77.8208ZM606.934 79.8087C606.543 77.5661 605.419 76.1245 603.027 75.8246C603 75.7301 602.976 75.6377 602.949 75.5433C603.199 75.3461 603.43 75.0175 603.705 74.9785C604.305 74.8943 604.927 74.9457 605.54 74.96C606.519 74.9826 607.158 75.5207 607.412 76.4202C607.797 77.792 608.089 79.1906 608.421 80.5788C608.335 80.6692 608.249 80.7575 608.163 80.8478C607.737 80.5049 607.008 80.2153 606.938 79.8108L606.934 79.8087ZM610.981 92.3791C609.652 92.3935 609.226 91.7425 609.068 90.654C608.839 89.0727 608.548 87.4914 608.128 85.9512C608.03 85.5918 607.975 85.2529 607.975 84.9285C607.975 84.2158 608.235 83.5813 608.888 82.9734C609.58 86.0826 610.273 89.1959 610.981 92.3771V92.3791ZM612.894 91.494C612.789 91.5145 612.687 91.5371 612.583 91.5576C612.536 91.2968 612.47 91.0381 612.398 90.7814C612.304 90.4384 612.2 90.0975 612.112 89.7545C612.003 89.3253 611.921 88.89 611.921 88.4423C611.921 88.0829 611.972 87.7173 612.105 87.3374C612.368 88.7236 612.632 90.1078 612.894 91.494ZM613.94 95.4021C613.906 95.6116 613.871 95.8292 613.832 96.0675C613.574 95.5561 613.416 95.207 613.371 94.9667C613.355 94.8866 613.353 94.8188 613.363 94.7593C613.373 94.6997 613.394 94.6525 613.43 94.6114C613.484 94.5498 613.566 94.5067 613.676 94.4738C613.787 94.441 613.93 94.4184 614.104 94.4019C614.074 94.5909 614.043 94.7757 614.012 94.9626C613.99 95.1064 613.965 95.2522 613.94 95.4021ZM619.738 103.658C619.085 104.144 618.481 104.744 617.756 105.069C617.41 105.223 616.668 104.999 616.392 104.689C615.9 104.134 615.626 103.385 615.188 102.586C616.429 102.582 617.561 102.528 618.526 102.881C618.964 103.042 619.37 103.286 619.736 103.658H619.738Z" fill="#0241A0"/>
<path d="M724.69 57.5077C724.457 59.0461 724.044 60.5788 724.022 62.1171C723.976 65.3805 722.952 68.4006 722.046 71.4603C719.674 79.4688 717.24 87.4547 714.913 95.4745C714.647 96.3907 714.947 97.454 714.913 98.4494C714.891 99.0093 714.704 99.5579 714.591 100.112C714.092 99.9991 713.498 100.016 713.113 99.7502C711.619 98.7096 709.983 98.3476 708.188 98.3702C707.679 98.3759 707.169 97.9913 706.654 97.7877C706.926 97.2617 707.152 96.7018 707.486 96.221C707.928 95.5876 708.692 95.0842 708.907 94.3942C710.639 88.9308 712.275 83.4391 713.934 77.9531C714.036 77.6081 714.07 77.2405 713.877 76.7711C713.056 78.1624 712.23 79.548 711.42 80.9506C708.884 85.3451 706.314 89.717 703.852 94.1567C703.382 95.0051 703.235 96.0853 703.167 97.0807C703.105 98.0082 702.997 98.8113 701.995 99.0659C700.959 99.326 700.818 98.4155 700.478 97.7651C699.634 96.1532 698.548 94.7901 696.787 94.0606C696.413 93.9079 695.972 93.3083 696.006 92.952C696.045 92.5731 696.566 91.9906 696.94 91.934C698.191 91.7587 698.785 90.9273 699.351 89.9771C702.98 83.8859 706.62 77.7947 710.254 71.7035C711.856 69.0171 713.339 66.2514 715.089 63.6611C716.074 62.2076 717.449 61.0086 718.717 59.7587C719.544 58.9443 719.765 58.0789 719.816 56.8969C719.963 53.4073 719.929 49.8838 721.055 46.496C721.321 45.6986 721.525 44.8559 721.593 44.0188C721.836 41.0779 722.68 38.3518 723.891 35.6541C724.446 34.4211 724.203 32.8319 724.31 31.401C724.316 31.3161 724.214 31.2087 724.242 31.1351C725.176 28.2677 724.14 24.9082 726.241 22.3914C727.022 21.4582 728.313 20.8078 729.501 20.395C730.622 20.0104 731.59 19.6541 732.162 18.5568C732.332 18.2345 732.638 17.98 732.904 17.7141C734.738 15.9269 734.76 14.6374 733.119 12.5392C732.292 11.4872 731.76 10.3221 732.1 8.87427C732.258 8.21255 732.122 7.47731 732.077 6.776C731.924 4.29315 733.639 1.31824 735.898 0.396364C736.606 0.107923 737.489 -0.101338 738.208 0.051366C742.063 0.848821 744.667 2.6643 743.829 7.28502C743.388 9.71132 743.291 12.1942 742.487 14.5639C742.391 14.8524 742.487 15.4462 742.691 15.565C745.092 16.9959 747.112 19.0376 750.107 19.5409C751.194 19.7219 752.434 21.0454 752.966 22.1482C754.919 26.1921 755.36 30.5752 755.389 35.0319C755.406 37.3225 755.7 39.613 755.926 41.898C756.238 45.1387 755.542 48.2267 754.817 51.36C754.183 54.1256 753.951 56.9987 753.724 59.8379C753.566 61.8513 752.502 63.729 749.96 64.1645C749.032 64.3228 748.516 64.781 748.448 65.8555C748.335 67.6823 747.945 69.4865 747.837 71.3133C747.758 72.6141 748.013 73.9262 747.979 75.2327C747.967 75.7304 747.554 76.2224 747.322 76.7088C747.158 77.0538 746.841 77.3988 746.841 77.7382C746.852 79.8874 746.994 82.0365 746.977 84.1857C746.96 86.5894 746.586 89.01 746.807 91.3798C747.005 93.495 747.633 95.6272 748.414 97.618C748.918 98.8962 750.141 99.8746 750.843 101.102C751.358 102.001 751.669 103.07 751.856 104.099C752.196 105.988 752.326 107.917 752.626 109.817C752.847 111.214 752.558 111.836 751.16 111.927C749.53 112.034 747.877 111.989 746.241 111.876C745.295 111.808 744.712 111.282 744.95 110.145C745.239 108.743 745.68 107.295 745.578 105.898C745.392 103.319 745.952 100.847 746.11 98.3363C746.252 96.1249 745.692 93.8174 744.373 91.6908C742.94 89.3833 742.097 86.6968 741.101 84.1348C739.997 81.3126 738.995 78.4565 737.981 75.6003C737.812 75.1252 737.846 74.5823 737.761 74.0733C737.551 72.8347 737.33 71.6017 736.827 70.3858C736.634 71.9467 736.572 73.536 736.232 75.063C735.593 77.9474 735.785 80.8149 735.91 83.7276C735.989 85.5035 735.355 87.302 735.128 89.1005C734.828 91.4533 734.596 93.8174 734.387 96.1758C734.358 96.4925 734.647 96.8375 734.783 97.1712C735.445 98.8509 736.181 100.508 736.73 102.227C737.047 103.223 736.413 104.049 735.485 104.303C734.285 104.631 733.005 104.665 731.766 104.897C730.951 105.05 730.045 105.14 729.366 105.559C727.26 106.854 725.012 107.074 722.731 106.486C721.967 106.288 720.75 105.202 720.851 104.789C721.089 103.817 721.803 102.589 722.657 102.205C724.588 101.339 726.11 100.084 727.265 98.4155C728.584 96.5095 729.728 94.5639 729.173 91.9566C728.386 88.2635 728.375 84.5081 728.777 80.73C728.918 79.4123 728.279 78.004 727.979 76.6466C727.95 76.5279 727.814 76.3525 727.713 76.3469C726.043 76.2281 726.439 74.9612 726.348 73.9489C726.026 70.1595 725.652 66.3815 725.386 62.5922C725.267 60.9294 725.369 59.2497 725.369 57.5756C725.148 57.5473 724.922 57.5247 724.701 57.4964L724.69 57.5077ZM716.764 73.2023C716.606 73.4907 716.459 73.6774 716.396 73.8923C714.296 80.747 712.207 87.6074 710.13 94.4734C710.045 94.7619 710.033 95.3387 710.147 95.384C711.086 95.7686 712.054 96.1532 713.045 96.2946C713.255 96.3228 713.719 95.4123 713.877 94.875C715.587 89.2249 717.262 83.5579 718.944 77.8965C719.578 75.77 718.851 74.2052 716.764 73.2023ZM702.25 94.0662C702.397 93.9361 702.527 93.8626 702.595 93.7495C706.11 87.7544 709.632 81.765 713.102 75.7417C713.322 75.3515 713.283 74.6332 713.073 74.2147C712.705 73.4794 712.111 72.863 711.511 72.0542C711.137 72.6254 710.849 73.0383 710.588 73.4738C707.469 78.7166 704.361 83.9708 701.236 89.2136C700.195 90.9631 700.412 92.5354 701.887 93.9305C701.95 93.987 702.057 93.9927 702.255 94.0606L702.25 94.0662ZM720.336 72.6085C721.955 69.6562 723.427 61.7382 722.748 59.1366C722.471 59.6003 722.357 60.1376 722.108 60.6014C721.774 61.2292 721.219 61.7495 720.953 62.3999C720.099 64.4699 719.47 66.6473 718.491 68.6551C717.393 70.9117 717.268 70.8495 719.425 72.0485C719.708 72.2069 719.985 72.3879 720.336 72.6028V72.6085ZM750.373 39.138C750.203 39.1267 750.033 39.1097 749.864 39.0984C749.813 39.2228 749.733 39.3472 749.711 39.4773C749.082 42.6445 748.369 45.7947 747.905 48.9846C747.78 49.8216 748.284 50.8679 748.777 51.6484C749.23 52.3667 749.456 52.9379 748.771 53.4695C747.633 54.3518 748.25 55.1719 748.856 56.0485C750.679 50.5116 750.99 44.8615 750.379 39.138H750.373ZM719.782 60.3299C719.538 60.4996 719.289 60.6579 719.057 60.8446C716.979 62.5243 715.604 64.7357 714.319 67.0376C712.439 70.4084 712.315 69.1358 714.528 72.4671C714.562 72.518 714.687 72.5123 714.902 72.5745C717.596 68.9775 717.212 64.0683 719.782 60.3356V60.3299Z" fill="#162573"/>
<path d="M8.07955 134.006H7.02273C6.96023 133.702 6.85085 133.435 6.6946 133.205C6.54119 132.975 6.35369 132.782 6.1321 132.625C5.91335 132.466 5.67045 132.347 5.40341 132.267C5.13636 132.188 4.85795 132.148 4.56818 132.148C4.03977 132.148 3.56108 132.282 3.1321 132.549C2.70597 132.816 2.36648 133.209 2.11364 133.729C1.86364 134.249 1.73864 134.887 1.73864 135.642C1.73864 136.398 1.86364 137.036 2.11364 137.556C2.36648 138.076 2.70597 138.469 3.1321 138.736C3.56108 139.003 4.03977 139.137 4.56818 139.137C4.85795 139.137 5.13636 139.097 5.40341 139.017C5.67045 138.938 5.91335 138.82 6.1321 138.664C6.35369 138.505 6.54119 138.31 6.6946 138.08C6.85085 137.847 6.96023 137.58 7.02273 137.279H8.07955C8 137.725 7.85511 138.124 7.64489 138.476C7.43466 138.829 7.1733 139.128 6.8608 139.375C6.5483 139.62 6.19744 139.806 5.80824 139.934C5.42188 140.062 5.00852 140.125 4.56818 140.125C3.82386 140.125 3.16193 139.944 2.58239 139.58C2.00284 139.216 1.54688 138.699 1.21449 138.029C0.882102 137.358 0.715909 136.563 0.715909 135.642C0.715909 134.722 0.882102 133.927 1.21449 133.256C1.54688 132.586 2.00284 132.069 2.58239 131.705C3.16193 131.341 3.82386 131.16 4.56818 131.16C5.00852 131.16 5.42188 131.223 5.80824 131.351C6.19744 131.479 6.5483 131.667 6.8608 131.914C7.1733 132.158 7.43466 132.456 7.64489 132.809C7.85511 133.158 8 133.557 8.07955 134.006ZM10.6566 136.069V140.006H9.65092V131.279H10.6566V134.483H10.7418C10.8952 134.145 11.1254 133.877 11.4322 133.678C11.7418 133.476 12.1538 133.375 12.668 133.375C13.114 133.375 13.5046 133.465 13.8398 133.644C14.1751 133.82 14.435 134.091 14.6197 134.458C14.8072 134.821 14.9009 135.285 14.9009 135.847V140.006H13.8952V135.915C13.8952 135.395 13.7603 134.993 13.4904 134.709C13.2234 134.422 12.8526 134.279 12.3782 134.279C12.0487 134.279 11.7532 134.348 11.4918 134.488C11.2333 134.627 11.0288 134.83 10.8782 135.097C10.7305 135.364 10.6566 135.688 10.6566 136.069ZM16.7408 140.006V133.461H17.7464V140.006H16.7408ZM17.2521 132.37C17.0561 132.37 16.8871 132.303 16.745 132.169C16.6058 132.036 16.5362 131.875 16.5362 131.688C16.5362 131.5 16.6058 131.34 16.745 131.206C16.8871 131.073 17.0561 131.006 17.2521 131.006C17.4482 131.006 17.6158 131.073 17.755 131.206C17.897 131.34 17.968 131.5 17.968 131.688C17.968 131.875 17.897 132.036 17.755 132.169C17.6158 132.303 17.4482 132.37 17.2521 132.37ZM20.5941 131.279V140.006H19.5884V131.279H20.5941ZM24.9077 140.142C24.3622 140.142 23.8807 140.005 23.4631 139.729C23.0455 139.451 22.7188 139.059 22.483 138.553C22.2472 138.044 22.1293 137.444 22.1293 136.75C22.1293 136.063 22.2472 135.466 22.483 134.961C22.7188 134.455 23.0469 134.064 23.4673 133.789C23.8878 133.513 24.3736 133.375 24.9247 133.375C25.3509 133.375 25.6875 133.446 25.9347 133.588C26.1847 133.728 26.375 133.887 26.5057 134.066C26.6392 134.242 26.7429 134.387 26.8168 134.5H26.902V131.279H27.9077V140.006H26.9361V139H26.8168C26.7429 139.12 26.6378 139.27 26.5014 139.452C26.3651 139.631 26.1705 139.792 25.9176 139.934C25.6648 140.073 25.3281 140.142 24.9077 140.142ZM25.044 139.239C25.4474 139.239 25.7884 139.134 26.0668 138.924C26.3452 138.711 26.5568 138.417 26.7017 138.042C26.8466 137.664 26.919 137.228 26.919 136.733C26.919 136.245 26.848 135.817 26.706 135.451C26.5639 135.081 26.3537 134.794 26.0753 134.59C25.7969 134.383 25.4531 134.279 25.044 134.279C24.6179 134.279 24.2628 134.388 23.9787 134.607C23.6974 134.823 23.4858 135.117 23.3438 135.489C23.2045 135.858 23.1349 136.273 23.1349 136.733C23.1349 137.199 23.206 137.623 23.348 138.003C23.4929 138.381 23.706 138.682 23.9872 138.907C24.2713 139.128 24.6236 139.239 25.044 139.239ZM29.8892 140.006V133.461H30.8608V134.449H30.929C31.0483 134.125 31.2642 133.863 31.5767 133.661C31.8892 133.459 32.2415 133.358 32.6335 133.358C32.7074 133.358 32.7997 133.36 32.9105 133.363C33.0213 133.365 33.1051 133.37 33.1619 133.375V134.398C33.1278 134.39 33.0497 134.377 32.9276 134.36C32.8082 134.34 32.6818 134.33 32.5483 134.33C32.2301 134.33 31.946 134.397 31.696 134.53C31.4489 134.661 31.2528 134.843 31.108 135.076C30.9659 135.306 30.8949 135.569 30.8949 135.864V140.006H29.8892ZM36.8991 140.142C36.2685 140.142 35.7244 140.003 35.267 139.725C34.8125 139.444 34.4616 139.052 34.2145 138.549C33.9702 138.043 33.848 137.455 33.848 136.785C33.848 136.114 33.9702 135.523 34.2145 135.012C34.4616 134.498 34.8054 134.097 35.2457 133.81C35.6889 133.52 36.206 133.375 36.7969 133.375C37.1378 133.375 37.4744 133.432 37.8068 133.546C38.1392 133.66 38.4418 133.844 38.7145 134.1C38.9872 134.353 39.2045 134.688 39.3665 135.106C39.5284 135.523 39.6094 136.037 39.6094 136.648V137.074H34.5639V136.205H38.5866C38.5866 135.836 38.5128 135.506 38.3651 135.216C38.2202 134.927 38.0128 134.698 37.7429 134.53C37.4759 134.363 37.1605 134.279 36.7969 134.279C36.3963 134.279 36.0497 134.378 35.7571 134.577C35.4673 134.773 35.2443 135.029 35.0881 135.344C34.9318 135.66 34.8537 135.998 34.8537 136.358V136.938C34.8537 137.432 34.9389 137.851 35.1094 138.195C35.2827 138.536 35.5227 138.796 35.8295 138.975C36.1364 139.151 36.4929 139.239 36.8991 139.239C37.1634 139.239 37.402 139.202 37.6151 139.128C37.831 139.052 38.017 138.938 38.1733 138.787C38.3295 138.634 38.4503 138.444 38.5355 138.216L39.5071 138.489C39.4048 138.819 39.233 139.108 38.9915 139.358C38.75 139.606 38.4517 139.799 38.0966 139.938C37.7415 140.074 37.3423 140.142 36.8991 140.142ZM42.1449 136.069V140.006H41.1392V133.461H42.1108V134.483H42.196C42.3494 134.151 42.5824 133.884 42.8949 133.682C43.2074 133.478 43.6108 133.375 44.1051 133.375C44.5483 133.375 44.9361 133.466 45.2685 133.648C45.6009 133.827 45.8594 134.1 46.044 134.466C46.2287 134.83 46.321 135.29 46.321 135.847V140.006H45.3153V135.915C45.3153 135.401 45.1818 135 44.9148 134.713C44.6477 134.424 44.2813 134.279 43.8153 134.279C43.4943 134.279 43.2074 134.348 42.9545 134.488C42.7045 134.627 42.5071 134.83 42.3622 135.097C42.2173 135.364 42.1449 135.688 42.1449 136.069Z" fill="#13997F"/>
<path d="M130.415 140.006H129.307L132.511 131.279H133.602L136.807 140.006H135.699L133.091 132.66H133.023L130.415 140.006ZM130.824 136.597H135.29V137.535H130.824V136.597ZM140.501 140.142C139.956 140.142 139.474 140.005 139.057 139.729C138.639 139.451 138.313 139.059 138.077 138.553C137.841 138.044 137.723 137.444 137.723 136.75C137.723 136.063 137.841 135.466 138.077 134.961C138.313 134.455 138.641 134.064 139.061 133.789C139.482 133.513 139.967 133.375 140.518 133.375C140.945 133.375 141.281 133.446 141.528 133.588C141.778 133.728 141.969 133.887 142.099 134.066C142.233 134.242 142.337 134.387 142.411 134.5H142.496V131.279H143.501V140.006H142.53V139H142.411C142.337 139.12 142.232 139.27 142.095 139.452C141.959 139.631 141.764 139.792 141.511 139.934C141.259 140.073 140.922 140.142 140.501 140.142ZM140.638 139.239C141.041 139.239 141.382 139.134 141.661 138.924C141.939 138.711 142.151 138.417 142.295 138.042C142.44 137.664 142.513 137.228 142.513 136.733C142.513 136.245 142.442 135.817 142.3 135.451C142.158 135.081 141.947 134.794 141.669 134.59C141.391 134.383 141.047 134.279 140.638 134.279C140.212 134.279 139.857 134.388 139.572 134.607C139.291 134.823 139.08 135.117 138.938 135.489C138.798 135.858 138.729 136.273 138.729 136.733C138.729 137.199 138.8 137.623 138.942 138.003C139.087 138.381 139.3 138.682 139.581 138.907C139.865 139.128 140.217 139.239 140.638 139.239ZM148.142 140.142C147.551 140.142 147.033 140.002 146.587 139.721C146.143 139.439 145.797 139.046 145.547 138.54C145.3 138.035 145.176 137.444 145.176 136.767C145.176 136.086 145.3 135.49 145.547 134.982C145.797 134.473 146.143 134.079 146.587 133.797C147.033 133.516 147.551 133.375 148.142 133.375C148.733 133.375 149.25 133.516 149.693 133.797C150.139 134.079 150.486 134.473 150.733 134.982C150.983 135.49 151.108 136.086 151.108 136.767C151.108 137.444 150.983 138.035 150.733 138.54C150.486 139.046 150.139 139.439 149.693 139.721C149.25 140.002 148.733 140.142 148.142 140.142ZM148.142 139.239C148.591 139.239 148.96 139.124 149.25 138.894C149.54 138.664 149.754 138.361 149.893 137.986C150.033 137.611 150.102 137.205 150.102 136.767C150.102 136.33 150.033 135.922 149.893 135.544C149.754 135.167 149.54 134.861 149.25 134.628C148.96 134.395 148.591 134.279 148.142 134.279C147.693 134.279 147.324 134.395 147.034 134.628C146.744 134.861 146.53 135.167 146.391 135.544C146.251 135.922 146.182 136.33 146.182 136.767C146.182 137.205 146.251 137.611 146.391 137.986C146.53 138.361 146.744 138.664 147.034 138.894C147.324 139.124 147.693 139.239 148.142 139.239ZM153.649 131.279V140.006H152.643V131.279H153.649ZM158.235 140.142C157.604 140.142 157.06 140.003 156.603 139.725C156.148 139.444 155.798 139.052 155.55 138.549C155.306 138.043 155.184 137.455 155.184 136.785C155.184 136.114 155.306 135.523 155.55 135.012C155.798 134.498 156.141 134.097 156.582 133.81C157.025 133.52 157.542 133.375 158.133 133.375C158.474 133.375 158.81 133.432 159.143 133.546C159.475 133.66 159.778 133.844 160.05 134.1C160.323 134.353 160.54 134.688 160.702 135.106C160.864 135.523 160.945 136.037 160.945 136.648V137.074H155.9V136.205H159.923C159.923 135.836 159.849 135.506 159.701 135.216C159.556 134.927 159.349 134.698 159.079 134.53C158.812 134.363 158.496 134.279 158.133 134.279C157.732 134.279 157.386 134.378 157.093 134.577C156.803 134.773 156.58 135.029 156.424 135.344C156.268 135.66 156.19 135.998 156.19 136.358V136.938C156.19 137.432 156.275 137.851 156.445 138.195C156.619 138.536 156.859 138.796 157.165 138.975C157.472 139.151 157.829 139.239 158.235 139.239C158.499 139.239 158.738 139.202 158.951 139.128C159.167 139.052 159.353 138.938 159.509 138.787C159.665 138.634 159.786 138.444 159.871 138.216L160.843 138.489C160.741 138.819 160.569 139.108 160.327 139.358C160.086 139.606 159.788 139.799 159.433 139.938C159.077 140.074 158.678 140.142 158.235 140.142ZM167.112 134.927L166.208 135.182C166.151 135.032 166.067 134.885 165.957 134.743C165.849 134.598 165.701 134.479 165.513 134.385C165.326 134.292 165.086 134.245 164.793 134.245C164.393 134.245 164.059 134.337 163.792 134.522C163.528 134.704 163.396 134.935 163.396 135.216C163.396 135.466 163.487 135.664 163.668 135.809C163.85 135.954 164.134 136.074 164.521 136.171L165.492 136.41C166.077 136.552 166.513 136.769 166.8 137.062C167.087 137.351 167.231 137.725 167.231 138.182C167.231 138.557 167.123 138.892 166.907 139.188C166.694 139.483 166.396 139.716 166.012 139.887C165.629 140.057 165.183 140.142 164.674 140.142C164.006 140.142 163.454 139.998 163.016 139.708C162.579 139.418 162.302 138.995 162.185 138.438L163.14 138.199C163.231 138.552 163.403 138.816 163.656 138.992C163.911 139.168 164.245 139.256 164.657 139.256C165.126 139.256 165.498 139.157 165.773 138.958C166.052 138.756 166.191 138.515 166.191 138.233C166.191 138.006 166.112 137.816 165.952 137.662C165.793 137.506 165.549 137.39 165.219 137.313L164.129 137.057C163.529 136.915 163.089 136.695 162.808 136.397C162.529 136.096 162.39 135.719 162.39 135.267C162.39 134.898 162.494 134.571 162.701 134.287C162.911 134.003 163.197 133.78 163.558 133.618C163.921 133.456 164.333 133.375 164.793 133.375C165.441 133.375 165.95 133.517 166.319 133.802C166.691 134.086 166.955 134.461 167.112 134.927ZM171.404 140.142C170.79 140.142 170.262 139.998 169.819 139.708C169.375 139.418 169.034 139.019 168.796 138.51C168.557 138.002 168.438 137.421 168.438 136.767C168.438 136.103 168.56 135.516 168.804 135.008C169.051 134.496 169.395 134.097 169.836 133.81C170.279 133.52 170.796 133.375 171.387 133.375C171.847 133.375 172.262 133.461 172.631 133.631C173 133.802 173.303 134.04 173.539 134.347C173.775 134.654 173.921 135.012 173.978 135.421H172.972C172.895 135.123 172.725 134.858 172.461 134.628C172.199 134.395 171.847 134.279 171.404 134.279C171.012 134.279 170.668 134.381 170.373 134.586C170.08 134.787 169.851 135.073 169.686 135.442C169.525 135.809 169.444 136.239 169.444 136.733C169.444 137.239 169.523 137.679 169.682 138.054C169.844 138.429 170.071 138.721 170.364 138.928C170.659 139.135 171.006 139.239 171.404 139.239C171.665 139.239 171.902 139.194 172.115 139.103C172.328 139.012 172.509 138.881 172.657 138.711C172.804 138.54 172.909 138.336 172.972 138.097H173.978C173.921 138.483 173.78 138.831 173.556 139.141C173.334 139.448 173.04 139.692 172.674 139.874C172.31 140.053 171.887 140.142 171.404 140.142ZM178.192 140.142C177.561 140.142 177.017 140.003 176.56 139.725C176.105 139.444 175.755 139.052 175.507 138.549C175.263 138.043 175.141 137.455 175.141 136.785C175.141 136.114 175.263 135.523 175.507 135.012C175.755 134.498 176.098 134.097 176.539 133.81C176.982 133.52 177.499 133.375 178.09 133.375C178.431 133.375 178.767 133.432 179.1 133.546C179.432 133.66 179.735 133.844 180.007 134.1C180.28 134.353 180.498 134.688 180.659 135.106C180.821 135.523 180.902 136.037 180.902 136.648V137.074H175.857V136.205H179.88C179.88 135.836 179.806 135.506 179.658 135.216C179.513 134.927 179.306 134.698 179.036 134.53C178.769 134.363 178.453 134.279 178.09 134.279C177.689 134.279 177.343 134.378 177.05 134.577C176.76 134.773 176.537 135.029 176.381 135.344C176.225 135.66 176.147 135.998 176.147 136.358V136.938C176.147 137.432 176.232 137.851 176.402 138.195C176.576 138.536 176.816 138.796 177.123 138.975C177.429 139.151 177.786 139.239 178.192 139.239C178.456 139.239 178.695 139.202 178.908 139.128C179.124 139.052 179.31 138.938 179.466 138.787C179.623 138.634 179.743 138.444 179.828 138.216L180.8 138.489C180.698 138.819 180.526 139.108 180.284 139.358C180.043 139.606 179.745 139.799 179.39 139.938C179.034 140.074 178.635 140.142 178.192 140.142ZM183.438 136.069V140.006H182.432V133.461H183.404V134.483H183.489C183.642 134.151 183.875 133.884 184.188 133.682C184.5 133.478 184.904 133.375 185.398 133.375C185.841 133.375 186.229 133.466 186.561 133.648C186.894 133.827 187.152 134.1 187.337 134.466C187.522 134.83 187.614 135.29 187.614 135.847V140.006H186.608V135.915C186.608 135.401 186.475 135 186.208 134.713C185.941 134.424 185.574 134.279 185.108 134.279C184.787 134.279 184.5 134.348 184.248 134.488C183.998 134.627 183.8 134.83 183.655 135.097C183.51 135.364 183.438 135.688 183.438 136.069ZM192.298 133.461V134.313H188.906V133.461H192.298ZM189.895 131.892H190.901V138.131C190.901 138.415 190.942 138.628 191.024 138.77C191.109 138.91 191.217 139.003 191.348 139.052C191.482 139.097 191.622 139.12 191.77 139.12C191.881 139.12 191.972 139.114 192.043 139.103C192.114 139.088 192.17 139.077 192.213 139.069L192.418 139.972C192.349 139.998 192.254 140.023 192.132 140.049C192.01 140.077 191.855 140.091 191.668 140.091C191.384 140.091 191.105 140.03 190.832 139.908C190.563 139.786 190.338 139.6 190.159 139.35C189.983 139.1 189.895 138.785 189.895 138.404V131.892ZM198.33 134.927L197.427 135.182C197.37 135.032 197.286 134.885 197.175 134.743C197.067 134.598 196.92 134.479 196.732 134.385C196.545 134.292 196.305 134.245 196.012 134.245C195.612 134.245 195.278 134.337 195.011 134.522C194.746 134.704 194.614 134.935 194.614 135.216C194.614 135.466 194.705 135.664 194.887 135.809C195.069 135.954 195.353 136.074 195.739 136.171L196.711 136.41C197.296 136.552 197.732 136.769 198.019 137.062C198.306 137.351 198.45 137.725 198.45 138.182C198.45 138.557 198.342 138.892 198.126 139.188C197.913 139.483 197.614 139.716 197.231 139.887C196.847 140.057 196.401 140.142 195.893 140.142C195.225 140.142 194.673 139.998 194.235 139.708C193.798 139.418 193.521 138.995 193.404 138.438L194.359 138.199C194.45 138.552 194.621 138.816 194.874 138.992C195.13 139.168 195.464 139.256 195.876 139.256C196.344 139.256 196.717 139.157 196.992 138.958C197.271 138.756 197.41 138.515 197.41 138.233C197.41 138.006 197.33 137.816 197.171 137.662C197.012 137.506 196.768 137.39 196.438 137.313L195.347 137.057C194.748 136.915 194.308 136.695 194.026 136.397C193.748 136.096 193.609 135.719 193.609 135.267C193.609 134.898 193.712 134.571 193.92 134.287C194.13 134.003 194.415 133.78 194.776 133.618C195.14 133.456 195.552 133.375 196.012 133.375C196.66 133.375 197.168 133.517 197.538 133.802C197.91 134.086 198.174 134.461 198.33 134.927Z" fill="#10A09C"/>
<path d="M277.415 140.006H276.307L279.511 131.279H280.602L283.807 140.006H282.699L280.091 132.66H280.023L277.415 140.006ZM277.824 136.597H282.29V137.535H277.824V136.597ZM287.501 140.142C286.956 140.142 286.474 140.005 286.057 139.729C285.639 139.451 285.313 139.059 285.077 138.553C284.841 138.044 284.723 137.444 284.723 136.75C284.723 136.063 284.841 135.466 285.077 134.961C285.313 134.455 285.641 134.064 286.061 133.789C286.482 133.513 286.967 133.375 287.518 133.375C287.945 133.375 288.281 133.446 288.528 133.588C288.778 133.728 288.969 133.887 289.099 134.066C289.233 134.242 289.337 134.387 289.411 134.5H289.496V131.279H290.501V140.006H289.53V139H289.411C289.337 139.12 289.232 139.27 289.095 139.452C288.959 139.631 288.764 139.792 288.511 139.934C288.259 140.073 287.922 140.142 287.501 140.142ZM287.638 139.239C288.041 139.239 288.382 139.134 288.661 138.924C288.939 138.711 289.151 138.417 289.295 138.042C289.44 137.664 289.513 137.228 289.513 136.733C289.513 136.245 289.442 135.817 289.3 135.451C289.158 135.081 288.947 134.794 288.669 134.59C288.391 134.383 288.047 134.279 287.638 134.279C287.212 134.279 286.857 134.388 286.572 134.607C286.291 134.823 286.08 135.117 285.938 135.489C285.798 135.858 285.729 136.273 285.729 136.733C285.729 137.199 285.8 137.623 285.942 138.003C286.087 138.381 286.3 138.682 286.581 138.907C286.865 139.128 287.217 139.239 287.638 139.239ZM296.608 137.33V133.461H297.614V140.006H296.608V138.898H296.54C296.386 139.231 296.148 139.513 295.824 139.746C295.5 139.976 295.091 140.091 294.597 140.091C294.188 140.091 293.824 140.002 293.506 139.823C293.188 139.641 292.938 139.368 292.756 139.005C292.574 138.638 292.483 138.177 292.483 137.62V133.461H293.489V137.552C293.489 138.029 293.622 138.41 293.889 138.694C294.159 138.978 294.503 139.12 294.92 139.12C295.17 139.12 295.425 139.056 295.683 138.928C295.945 138.8 296.163 138.604 296.339 138.34C296.518 138.076 296.608 137.739 296.608 137.33ZM300.461 131.279V140.006H299.456V131.279H300.461ZM305.15 133.461V134.313H301.758V133.461H305.15ZM302.746 131.892H303.752V138.131C303.752 138.415 303.793 138.628 303.876 138.77C303.961 138.91 304.069 139.003 304.2 139.052C304.333 139.097 304.474 139.12 304.621 139.12C304.732 139.12 304.823 139.114 304.894 139.103C304.965 139.088 305.022 139.077 305.065 139.069L305.269 139.972C305.201 139.998 305.106 140.023 304.984 140.049C304.862 140.077 304.707 140.091 304.519 140.091C304.235 140.091 303.957 140.03 303.684 139.908C303.414 139.786 303.19 139.6 303.011 139.35C302.835 139.1 302.746 138.785 302.746 138.404V131.892ZM311.182 134.927L310.278 135.182C310.222 135.032 310.138 134.885 310.027 134.743C309.919 134.598 309.771 134.479 309.584 134.385C309.396 134.292 309.156 134.245 308.864 134.245C308.463 134.245 308.129 134.337 307.862 134.522C307.598 134.704 307.466 134.935 307.466 135.216C307.466 135.466 307.557 135.664 307.739 135.809C307.92 135.954 308.205 136.074 308.591 136.171L309.562 136.41C310.148 136.552 310.584 136.769 310.871 137.062C311.158 137.351 311.301 137.725 311.301 138.182C311.301 138.557 311.193 138.892 310.977 139.188C310.764 139.483 310.466 139.716 310.082 139.887C309.699 140.057 309.253 140.142 308.744 140.142C308.077 140.142 307.524 139.998 307.087 139.708C306.649 139.418 306.372 138.995 306.256 138.438L307.21 138.199C307.301 138.552 307.473 138.816 307.726 138.992C307.982 139.168 308.315 139.256 308.727 139.256C309.196 139.256 309.568 139.157 309.844 138.958C310.122 138.756 310.261 138.515 310.261 138.233C310.261 138.006 310.182 137.816 310.023 137.662C309.864 137.506 309.619 137.39 309.29 137.313L308.199 137.057C307.599 136.915 307.159 136.695 306.878 136.397C306.599 136.096 306.46 135.719 306.46 135.267C306.46 134.898 306.564 134.571 306.771 134.287C306.982 134.003 307.267 133.78 307.628 133.618C307.991 133.456 308.403 133.375 308.864 133.375C309.511 133.375 310.02 133.517 310.389 133.802C310.761 134.086 311.026 134.461 311.182 134.927Z" fill="#0188AD"/>
<path d="M420.057 140.006V131.279H425.324V132.216H421.114V135.165H425.051V136.103H421.114V139.069H425.392V140.006H420.057ZM428.098 131.279V140.006H427.092V131.279H428.098ZM432.412 140.142C431.866 140.142 431.385 140.005 430.967 139.729C430.549 139.451 430.223 139.059 429.987 138.553C429.751 138.044 429.633 137.444 429.633 136.75C429.633 136.063 429.751 135.466 429.987 134.961C430.223 134.455 430.551 134.064 430.971 133.789C431.392 133.513 431.877 133.375 432.429 133.375C432.855 133.375 433.191 133.446 433.439 133.588C433.689 133.728 433.879 133.887 434.01 134.066C434.143 134.242 434.247 134.387 434.321 134.5H434.406V131.279H435.412V140.006H434.44V139H434.321C434.247 139.12 434.142 139.27 434.005 139.452C433.869 139.631 433.674 139.792 433.422 139.934C433.169 140.073 432.832 140.142 432.412 140.142ZM432.548 139.239C432.951 139.239 433.292 139.134 433.571 138.924C433.849 138.711 434.061 138.417 434.206 138.042C434.35 137.664 434.423 137.228 434.423 136.733C434.423 136.245 434.352 135.817 434.21 135.451C434.068 135.081 433.858 134.794 433.579 134.59C433.301 134.383 432.957 134.279 432.548 134.279C432.122 134.279 431.767 134.388 431.483 134.607C431.201 134.823 430.99 135.117 430.848 135.489C430.708 135.858 430.639 136.273 430.639 136.733C430.639 137.199 430.71 137.623 430.852 138.003C430.997 138.381 431.21 138.682 431.491 138.907C431.775 139.128 432.127 139.239 432.548 139.239ZM440.137 140.142C439.507 140.142 438.963 140.003 438.505 139.725C438.051 139.444 437.7 139.052 437.453 138.549C437.208 138.043 437.086 137.455 437.086 136.785C437.086 136.114 437.208 135.523 437.453 135.012C437.7 134.498 438.044 134.097 438.484 133.81C438.927 133.52 439.444 133.375 440.035 133.375C440.376 133.375 440.713 133.432 441.045 133.546C441.377 133.66 441.68 133.844 441.953 134.1C442.225 134.353 442.443 134.688 442.605 135.106C442.767 135.523 442.848 136.037 442.848 136.648V137.074H437.802V136.205H441.825C441.825 135.836 441.751 135.506 441.603 135.216C441.458 134.927 441.251 134.698 440.981 134.53C440.714 134.363 440.399 134.279 440.035 134.279C439.635 134.279 439.288 134.378 438.995 134.577C438.706 134.773 438.483 135.029 438.326 135.344C438.17 135.66 438.092 135.998 438.092 136.358V136.938C438.092 137.432 438.177 137.851 438.348 138.195C438.521 138.536 438.761 138.796 439.068 138.975C439.375 139.151 439.731 139.239 440.137 139.239C440.402 139.239 440.64 139.202 440.853 139.128C441.069 139.052 441.255 138.938 441.412 138.787C441.568 138.634 441.689 138.444 441.774 138.216L442.745 138.489C442.643 138.819 442.471 139.108 442.23 139.358C441.988 139.606 441.69 139.799 441.335 139.938C440.98 140.074 440.581 140.142 440.137 140.142ZM444.377 140.006V133.461H445.349V134.449H445.417C445.537 134.125 445.752 133.863 446.065 133.661C446.377 133.459 446.73 133.358 447.122 133.358C447.196 133.358 447.288 133.36 447.399 133.363C447.51 133.365 447.593 133.37 447.65 133.375V134.398C447.616 134.39 447.538 134.377 447.416 134.36C447.297 134.34 447.17 134.33 447.037 134.33C446.718 134.33 446.434 134.397 446.184 134.53C445.937 134.661 445.741 134.843 445.596 135.076C445.454 135.306 445.383 135.569 445.383 135.864V140.006H444.377ZM453.479 134.927L452.575 135.182C452.518 135.032 452.435 134.885 452.324 134.743C452.216 134.598 452.068 134.479 451.881 134.385C451.693 134.292 451.453 134.245 451.161 134.245C450.76 134.245 450.426 134.337 450.159 134.522C449.895 134.704 449.763 134.935 449.763 135.216C449.763 135.466 449.854 135.664 450.036 135.809C450.217 135.954 450.501 136.074 450.888 136.171L451.859 136.41C452.445 136.552 452.881 136.769 453.168 137.062C453.455 137.351 453.598 137.725 453.598 138.182C453.598 138.557 453.49 138.892 453.274 139.188C453.061 139.483 452.763 139.716 452.379 139.887C451.996 140.057 451.55 140.142 451.041 140.142C450.374 140.142 449.821 139.998 449.384 139.708C448.946 139.418 448.669 138.995 448.553 138.438L449.507 138.199C449.598 138.552 449.77 138.816 450.023 138.992C450.278 139.168 450.612 139.256 451.024 139.256C451.493 139.256 451.865 139.157 452.141 138.958C452.419 138.756 452.558 138.515 452.558 138.233C452.558 138.006 452.479 137.816 452.32 137.662C452.161 137.506 451.916 137.39 451.587 137.313L450.496 137.057C449.896 136.915 449.456 136.695 449.175 136.397C448.896 136.096 448.757 135.719 448.757 135.267C448.757 134.898 448.861 134.571 449.068 134.287C449.278 134.003 449.564 133.78 449.925 133.618C450.288 133.456 450.7 133.375 451.161 133.375C451.808 133.375 452.317 133.517 452.686 133.802C453.058 134.086 453.322 134.461 453.479 134.927Z" fill="#025CA0"/>
<path d="M562.642 140.006L560.256 131.279H561.33L563.153 138.387H563.239L565.097 131.279H566.29L568.148 138.387H568.233L570.057 131.279H571.131L568.744 140.006H567.653L565.727 133.052H565.659L563.733 140.006H562.642ZM573.317 136.069V140.006H572.311V131.279H573.317V134.483H573.402C573.555 134.145 573.786 133.877 574.092 133.678C574.402 133.476 574.814 133.375 575.328 133.375C575.774 133.375 576.165 133.465 576.5 133.644C576.835 133.82 577.095 134.091 577.28 134.458C577.467 134.821 577.561 135.285 577.561 135.847V140.006H576.555V135.915C576.555 135.395 576.42 134.993 576.151 134.709C575.884 134.422 575.513 134.279 575.038 134.279C574.709 134.279 574.413 134.348 574.152 134.488C573.893 134.627 573.689 134.83 573.538 135.097C573.391 135.364 573.317 135.688 573.317 136.069ZM582.145 140.142C581.515 140.142 580.971 140.003 580.513 139.725C580.059 139.444 579.708 139.052 579.461 138.549C579.216 138.043 579.094 137.455 579.094 136.785C579.094 136.114 579.216 135.523 579.461 135.012C579.708 134.498 580.051 134.097 580.492 133.81C580.935 133.52 581.452 133.375 582.043 133.375C582.384 133.375 582.721 133.432 583.053 133.546C583.385 133.66 583.688 133.844 583.961 134.1C584.233 134.353 584.451 134.688 584.613 135.106C584.775 135.523 584.855 136.037 584.855 136.648V137.074H579.81V136.205H583.833C583.833 135.836 583.759 135.506 583.611 135.216C583.466 134.927 583.259 134.698 582.989 134.53C582.722 134.363 582.407 134.279 582.043 134.279C581.642 134.279 581.296 134.378 581.003 134.577C580.713 134.773 580.49 135.029 580.334 135.344C580.178 135.66 580.1 135.998 580.1 136.358V136.938C580.1 137.432 580.185 137.851 580.355 138.195C580.529 138.536 580.769 138.796 581.076 138.975C581.382 139.151 581.739 139.239 582.145 139.239C582.409 139.239 582.648 139.202 582.861 139.128C583.077 139.052 583.263 138.938 583.419 138.787C583.576 138.634 583.696 138.444 583.782 138.216L584.753 138.489C584.651 138.819 584.479 139.108 584.238 139.358C583.996 139.606 583.698 139.799 583.343 139.938C582.988 140.074 582.588 140.142 582.145 140.142ZM589.13 140.142C588.499 140.142 587.955 140.003 587.498 139.725C587.043 139.444 586.692 139.052 586.445 138.549C586.201 138.043 586.078 137.455 586.078 136.785C586.078 136.114 586.201 135.523 586.445 135.012C586.692 134.498 587.036 134.097 587.476 133.81C587.919 133.52 588.436 133.375 589.027 133.375C589.368 133.375 589.705 133.432 590.037 133.546C590.37 133.66 590.672 133.844 590.945 134.1C591.218 134.353 591.435 134.688 591.597 135.106C591.759 135.523 591.84 136.037 591.84 136.648V137.074H586.794V136.205H590.817C590.817 135.836 590.743 135.506 590.596 135.216C590.451 134.927 590.243 134.698 589.973 134.53C589.706 134.363 589.391 134.279 589.027 134.279C588.627 134.279 588.28 134.378 587.988 134.577C587.698 134.773 587.475 135.029 587.319 135.344C587.162 135.66 587.084 135.998 587.084 136.358V136.938C587.084 137.432 587.169 137.851 587.34 138.195C587.513 138.536 587.753 138.796 588.06 138.975C588.367 139.151 588.723 139.239 589.13 139.239C589.394 139.239 589.632 139.202 589.846 139.128C590.061 139.052 590.248 138.938 590.404 138.787C590.56 138.634 590.681 138.444 590.766 138.216L591.738 138.489C591.635 138.819 591.463 139.108 591.222 139.358C590.98 139.606 590.682 139.799 590.327 139.938C589.972 140.074 589.573 140.142 589.13 140.142ZM594.375 131.279V140.006H593.37V131.279H594.375ZM598.876 140.142C598.263 140.142 597.734 139.998 597.291 139.708C596.848 139.418 596.507 139.019 596.268 138.51C596.03 138.002 595.911 137.421 595.911 136.767C595.911 136.103 596.033 135.516 596.277 135.008C596.524 134.496 596.868 134.097 597.308 133.81C597.751 133.52 598.268 133.375 598.859 133.375C599.32 133.375 599.734 133.461 600.104 133.631C600.473 133.802 600.776 134.04 601.011 134.347C601.247 134.654 601.393 135.012 601.45 135.421H600.445C600.368 135.123 600.197 134.858 599.933 134.628C599.672 134.395 599.32 134.279 598.876 134.279C598.484 134.279 598.141 134.381 597.845 134.586C597.553 134.787 597.324 135.073 597.159 135.442C596.997 135.809 596.916 136.239 596.916 136.733C596.916 137.239 596.996 137.679 597.155 138.054C597.317 138.429 597.544 138.721 597.837 138.928C598.132 139.135 598.479 139.239 598.876 139.239C599.138 139.239 599.375 139.194 599.588 139.103C599.801 139.012 599.982 138.881 600.129 138.711C600.277 138.54 600.382 138.336 600.445 138.097H601.45C601.393 138.483 601.253 138.831 601.028 139.141C600.807 139.448 600.513 139.692 600.146 139.874C599.783 140.053 599.359 140.142 598.876 140.142ZM603.926 136.069V140.006H602.92V131.279H603.926V134.483H604.011C604.165 134.145 604.395 133.877 604.702 133.678C605.011 133.476 605.423 133.375 605.938 133.375C606.384 133.375 606.774 133.465 607.109 133.644C607.445 133.82 607.705 134.091 607.889 134.458C608.077 134.821 608.17 135.285 608.17 135.847V140.006H607.165V135.915C607.165 135.395 607.03 134.993 606.76 134.709C606.493 134.422 606.122 134.279 605.648 134.279C605.318 134.279 605.023 134.348 604.761 134.488C604.503 134.627 604.298 134.83 604.148 135.097C604 135.364 603.926 135.688 603.926 136.069ZM611.936 140.16C611.522 140.16 611.145 140.081 610.807 139.925C610.469 139.766 610.201 139.537 610.002 139.239C609.803 138.938 609.703 138.574 609.703 138.148C609.703 137.773 609.777 137.469 609.925 137.236C610.073 137 610.27 136.816 610.517 136.682C610.765 136.549 611.037 136.449 611.336 136.384C611.637 136.316 611.939 136.262 612.243 136.222C612.641 136.171 612.963 136.133 613.211 136.107C613.461 136.079 613.642 136.032 613.756 135.966C613.873 135.901 613.931 135.787 613.931 135.625V135.591C613.931 135.171 613.816 134.844 613.586 134.611C613.358 134.378 613.013 134.262 612.55 134.262C612.07 134.262 611.694 134.367 611.421 134.577C611.148 134.787 610.956 135.012 610.846 135.25L609.891 134.91C610.061 134.512 610.289 134.202 610.573 133.981C610.86 133.756 611.172 133.6 611.51 133.512C611.851 133.421 612.186 133.375 612.516 133.375C612.726 133.375 612.968 133.401 613.24 133.452C613.516 133.5 613.782 133.601 614.037 133.755C614.296 133.908 614.51 134.14 614.681 134.449C614.851 134.759 614.936 135.174 614.936 135.694V140.006H613.931V139.12H613.88C613.811 139.262 613.698 139.414 613.539 139.576C613.38 139.738 613.168 139.875 612.904 139.989C612.64 140.103 612.317 140.16 611.936 140.16ZM612.09 139.256C612.488 139.256 612.823 139.178 613.096 139.022C613.371 138.865 613.578 138.664 613.718 138.417C613.86 138.169 613.931 137.91 613.931 137.637V136.716C613.888 136.767 613.794 136.814 613.65 136.857C613.507 136.897 613.343 136.932 613.155 136.963C612.971 136.992 612.79 137.017 612.614 137.04C612.441 137.06 612.3 137.077 612.192 137.091C611.931 137.125 611.686 137.181 611.459 137.258C611.235 137.331 611.053 137.444 610.914 137.594C610.777 137.742 610.709 137.944 610.709 138.199C610.709 138.549 610.838 138.813 611.097 138.992C611.358 139.168 611.689 139.256 612.09 139.256ZM616.772 140.006V133.461H617.778V140.006H616.772ZM617.283 132.37C617.087 132.37 616.918 132.303 616.776 132.169C616.637 132.036 616.567 131.875 616.567 131.688C616.567 131.5 616.637 131.34 616.776 131.206C616.918 131.073 617.087 131.006 617.283 131.006C617.479 131.006 617.647 131.073 617.786 131.206C617.928 131.34 617.999 131.5 617.999 131.688C617.999 131.875 617.928 132.036 617.786 132.169C617.647 132.303 617.479 132.37 617.283 132.37ZM619.62 140.006V133.461H620.591V134.449H620.659C620.779 134.125 620.995 133.863 621.307 133.661C621.62 133.459 621.972 133.358 622.364 133.358C622.438 133.358 622.53 133.36 622.641 133.363C622.752 133.365 622.836 133.37 622.892 133.375V134.398C622.858 134.39 622.78 134.377 622.658 134.36C622.539 134.34 622.412 134.33 622.279 134.33C621.961 134.33 621.676 134.397 621.426 134.53C621.179 134.661 620.983 134.843 620.838 135.076C620.696 135.306 620.625 135.569 620.625 135.864V140.006H619.62ZM628.721 134.927L627.817 135.182C627.761 135.032 627.677 134.885 627.566 134.743C627.458 134.598 627.31 134.479 627.123 134.385C626.935 134.292 626.695 134.245 626.403 134.245C626.002 134.245 625.668 134.337 625.401 134.522C625.137 134.704 625.005 134.935 625.005 135.216C625.005 135.466 625.096 135.664 625.278 135.809C625.46 135.954 625.744 136.074 626.13 136.171L627.102 136.41C627.687 136.552 628.123 136.769 628.41 137.062C628.697 137.351 628.84 137.725 628.84 138.182C628.84 138.557 628.732 138.892 628.516 139.188C628.303 139.483 628.005 139.716 627.621 139.887C627.238 140.057 626.792 140.142 626.283 140.142C625.616 140.142 625.063 139.998 624.626 139.708C624.188 139.418 623.911 138.995 623.795 138.438L624.749 138.199C624.84 138.552 625.012 138.816 625.265 138.992C625.521 139.168 625.854 139.256 626.266 139.256C626.735 139.256 627.107 139.157 627.383 138.958C627.661 138.756 627.8 138.515 627.8 138.233C627.8 138.006 627.721 137.816 627.562 137.662C627.403 137.506 627.158 137.39 626.829 137.313L625.738 137.057C625.138 136.915 624.698 136.695 624.417 136.397C624.138 136.096 623.999 135.719 623.999 135.267C623.999 134.898 624.103 134.571 624.31 134.287C624.521 134.003 624.806 133.78 625.167 133.618C625.531 133.456 625.942 133.375 626.403 133.375C627.05 133.375 627.559 133.517 627.928 133.802C628.3 134.086 628.565 134.461 628.721 134.927Z" fill="#0241A0"/>
<path d="M700.415 140.006H699.307L702.511 131.279H703.602L706.807 140.006H705.699L703.091 132.66H703.023L700.415 140.006ZM700.824 136.597H705.29V137.535H700.824V136.597ZM708.03 140.006V133.461H709.001V134.483H709.087C709.223 134.134 709.443 133.863 709.747 133.669C710.051 133.473 710.416 133.375 710.842 133.375C711.274 133.375 711.634 133.473 711.92 133.669C712.21 133.863 712.436 134.134 712.598 134.483H712.666C712.834 134.145 713.085 133.877 713.42 133.678C713.756 133.476 714.158 133.375 714.626 133.375C715.212 133.375 715.69 133.559 716.062 133.925C716.435 134.289 716.621 134.856 716.621 135.625V140.006H715.615V135.625C715.615 135.142 715.483 134.797 715.219 134.59C714.955 134.383 714.643 134.279 714.286 134.279C713.825 134.279 713.469 134.418 713.216 134.696C712.963 134.972 712.837 135.321 712.837 135.745V140.006H711.814V135.523C711.814 135.151 711.693 134.851 711.452 134.624C711.21 134.394 710.899 134.279 710.518 134.279C710.257 134.279 710.013 134.348 709.786 134.488C709.561 134.627 709.379 134.82 709.24 135.067C709.104 135.312 709.036 135.594 709.036 135.915V140.006H708.03ZM718.46 142.461V133.461H719.431V134.5H719.55C719.624 134.387 719.727 134.242 719.857 134.066C719.991 133.887 720.181 133.728 720.428 133.588C720.678 133.446 721.016 133.375 721.442 133.375C721.994 133.375 722.479 133.513 722.9 133.789C723.32 134.064 723.648 134.455 723.884 134.961C724.12 135.466 724.238 136.063 724.238 136.75C724.238 137.444 724.12 138.044 723.884 138.553C723.648 139.059 723.322 139.451 722.904 139.729C722.487 140.005 722.005 140.142 721.46 140.142C721.039 140.142 720.702 140.073 720.45 139.934C720.197 139.792 720.002 139.631 719.866 139.452C719.729 139.27 719.624 139.12 719.55 139H719.465V142.461H718.46ZM719.448 136.733C719.448 137.228 719.521 137.664 719.665 138.042C719.81 138.417 720.022 138.711 720.3 138.924C720.579 139.134 720.92 139.239 721.323 139.239C721.744 139.239 722.094 139.128 722.376 138.907C722.66 138.682 722.873 138.381 723.015 138.003C723.16 137.623 723.232 137.199 723.232 136.733C723.232 136.273 723.161 135.858 723.019 135.489C722.88 135.117 722.668 134.823 722.384 134.607C722.103 134.388 721.749 134.279 721.323 134.279C720.914 134.279 720.57 134.383 720.292 134.59C720.013 134.794 719.803 135.081 719.661 135.451C719.519 135.817 719.448 136.245 719.448 136.733ZM729.897 137.33V133.461H730.903V140.006H729.897V138.898H729.829C729.675 139.231 729.437 139.513 729.113 139.746C728.789 139.976 728.38 140.091 727.886 140.091C727.477 140.091 727.113 140.002 726.795 139.823C726.477 139.641 726.227 139.368 726.045 139.005C725.863 138.638 725.772 138.177 725.772 137.62V133.461H726.778V137.552C726.778 138.029 726.911 138.41 727.178 138.694C727.448 138.978 727.792 139.12 728.21 139.12C728.46 139.12 728.714 139.056 728.972 138.928C729.234 138.8 729.452 138.604 729.629 138.34C729.808 138.076 729.897 137.739 729.897 137.33ZM735.591 133.461V134.313H732.199V133.461H735.591ZM733.188 131.892H734.194V138.131C734.194 138.415 734.235 138.628 734.317 138.77C734.402 138.91 734.51 139.003 734.641 139.052C734.775 139.097 734.915 139.12 735.063 139.12C735.174 139.12 735.265 139.114 735.336 139.103C735.407 139.088 735.463 139.077 735.506 139.069L735.711 139.972C735.642 139.998 735.547 140.023 735.425 140.049C735.303 140.077 735.148 140.091 734.961 140.091C734.676 140.091 734.398 140.03 734.125 139.908C733.855 139.786 733.631 139.6 733.452 139.35C733.276 139.1 733.188 138.785 733.188 138.404V131.892ZM739.03 140.16C738.615 140.16 738.239 140.081 737.901 139.925C737.563 139.766 737.294 139.537 737.096 139.239C736.897 138.938 736.797 138.574 736.797 138.148C736.797 137.773 736.871 137.469 737.019 137.236C737.167 137 737.364 136.816 737.611 136.682C737.858 136.549 738.131 136.449 738.429 136.384C738.73 136.316 739.033 136.262 739.337 136.222C739.735 136.171 740.057 136.133 740.304 136.107C740.554 136.079 740.736 136.032 740.85 135.966C740.966 135.901 741.025 135.787 741.025 135.625V135.591C741.025 135.171 740.909 134.844 740.679 134.611C740.452 134.378 740.107 134.262 739.644 134.262C739.164 134.262 738.787 134.367 738.515 134.577C738.242 134.787 738.05 135.012 737.939 135.25L736.985 134.91C737.155 134.512 737.382 134.202 737.667 133.981C737.953 133.756 738.266 133.6 738.604 133.512C738.945 133.421 739.28 133.375 739.61 133.375C739.82 133.375 740.061 133.401 740.334 133.452C740.61 133.5 740.875 133.601 741.131 133.755C741.39 133.908 741.604 134.14 741.775 134.449C741.945 134.759 742.03 135.174 742.03 135.694V140.006H741.025V139.12H740.973C740.905 139.262 740.792 139.414 740.632 139.576C740.473 139.738 740.262 139.875 739.998 139.989C739.733 140.103 739.411 140.16 739.03 140.16ZM739.184 139.256C739.581 139.256 739.917 139.178 740.189 139.022C740.465 138.865 740.672 138.664 740.811 138.417C740.953 138.169 741.025 137.91 741.025 137.637V136.716C740.982 136.767 740.888 136.814 740.743 136.857C740.601 136.897 740.436 136.932 740.249 136.963C740.064 136.992 739.884 137.017 739.708 137.04C739.534 137.06 739.394 137.077 739.286 137.091C739.025 137.125 738.78 137.181 738.553 137.258C738.328 137.331 738.147 137.444 738.007 137.594C737.871 137.742 737.803 137.944 737.803 138.199C737.803 138.549 737.932 138.813 738.191 138.992C738.452 139.168 738.783 139.256 739.184 139.256ZM746.712 133.461V134.313H743.32V133.461H746.712ZM744.309 131.892H745.315V138.131C745.315 138.415 745.356 138.628 745.438 138.77C745.523 138.91 745.631 139.003 745.762 139.052C745.896 139.097 746.036 139.12 746.184 139.12C746.295 139.12 746.386 139.114 746.457 139.103C746.528 139.088 746.585 139.077 746.627 139.069L746.832 139.972C746.763 139.998 746.668 140.023 746.546 140.049C746.424 140.077 746.269 140.091 746.082 140.091C745.798 140.091 745.519 140.03 745.246 139.908C744.977 139.786 744.752 139.6 744.573 139.35C744.397 139.1 744.309 138.785 744.309 138.404V131.892ZM748.225 140.006V133.461H749.231V140.006H748.225ZM748.737 132.37C748.54 132.37 748.371 132.303 748.229 132.169C748.09 132.036 748.021 131.875 748.021 131.688C748.021 131.5 748.09 131.34 748.229 131.206C748.371 131.073 748.54 131.006 748.737 131.006C748.933 131.006 749.1 131.073 749.239 131.206C749.381 131.34 749.452 131.5 749.452 131.688C749.452 131.875 749.381 132.036 749.239 132.169C749.1 132.303 748.933 132.37 748.737 132.37ZM753.732 140.142C753.141 140.142 752.623 140.002 752.176 139.721C751.733 139.439 751.387 139.046 751.137 138.54C750.89 138.035 750.766 137.444 750.766 136.767C750.766 136.086 750.89 135.49 751.137 134.982C751.387 134.473 751.733 134.079 752.176 133.797C752.623 133.516 753.141 133.375 753.732 133.375C754.323 133.375 754.84 133.516 755.283 133.797C755.729 134.079 756.076 134.473 756.323 134.982C756.573 135.49 756.698 136.086 756.698 136.767C756.698 137.444 756.573 138.035 756.323 138.54C756.076 139.046 755.729 139.439 755.283 139.721C754.84 140.002 754.323 140.142 753.732 140.142ZM753.732 139.239C754.181 139.239 754.55 139.124 754.84 138.894C755.13 138.664 755.344 138.361 755.483 137.986C755.623 137.611 755.692 137.205 755.692 136.767C755.692 136.33 755.623 135.922 755.483 135.544C755.344 135.167 755.13 134.861 754.84 134.628C754.55 134.395 754.181 134.279 753.732 134.279C753.283 134.279 752.914 134.395 752.624 134.628C752.334 134.861 752.12 135.167 751.98 135.544C751.841 135.922 751.772 136.33 751.772 136.767C751.772 137.205 751.841 137.611 751.98 137.986C752.12 138.361 752.334 138.664 752.624 138.894C752.914 139.124 753.283 139.239 753.732 139.239ZM759.239 136.069V140.006H758.233V133.461H759.205V134.483H759.29C759.443 134.151 759.676 133.884 759.989 133.682C760.301 133.478 760.705 133.375 761.199 133.375C761.642 133.375 762.03 133.466 762.362 133.648C762.695 133.827 762.953 134.1 763.138 134.466C763.322 134.83 763.415 135.29 763.415 135.847V140.006H762.409V135.915C762.409 135.401 762.276 135 762.009 134.713C761.741 134.424 761.375 134.279 760.909 134.279C760.588 134.279 760.301 134.348 760.048 134.488C759.798 134.627 759.601 134.83 759.456 135.097C759.311 135.364 759.239 135.688 759.239 136.069ZM769.889 134.927L768.985 135.182C768.929 135.032 768.845 134.885 768.734 134.743C768.626 134.598 768.478 134.479 768.291 134.385C768.103 134.292 767.863 134.245 767.571 134.245C767.17 134.245 766.836 134.337 766.569 134.522C766.305 134.704 766.173 134.935 766.173 135.216C766.173 135.466 766.264 135.664 766.446 135.809C766.627 135.954 766.912 136.074 767.298 136.171L768.27 136.41C768.855 136.552 769.291 136.769 769.578 137.062C769.865 137.351 770.008 137.725 770.008 138.182C770.008 138.557 769.9 138.892 769.684 139.188C769.471 139.483 769.173 139.716 768.789 139.887C768.406 140.057 767.96 140.142 767.451 140.142C766.784 140.142 766.231 139.998 765.794 139.708C765.356 139.418 765.079 138.995 764.963 138.438L765.917 138.199C766.008 138.552 766.18 138.816 766.433 138.992C766.689 139.168 767.022 139.256 767.434 139.256C767.903 139.256 768.275 139.157 768.551 138.958C768.829 138.756 768.968 138.515 768.968 138.233C768.968 138.006 768.889 137.816 768.73 137.662C768.571 137.506 768.326 137.39 767.997 137.313L766.906 137.057C766.306 136.915 765.866 136.695 765.585 136.397C765.306 136.096 765.167 135.719 765.167 135.267C765.167 134.898 765.271 134.571 765.478 134.287C765.689 134.003 765.974 133.78 766.335 133.618C766.699 133.456 767.11 133.375 767.571 133.375C768.218 133.375 768.727 133.517 769.096 133.802C769.468 134.086 769.733 134.461 769.889 134.927Z" fill="#162573"/>
</svg>
