<svg width="297" height="209" viewBox="0 0 297 209" fill="none" xmlns="http://www.w3.org/2000/svg">
<path d="M108.392 200.78C109.254 201.322 110.535 201.766 111.865 201.766C113.86 201.766 115.018 200.731 115.018 199.204C115.018 197.8 114.205 197.012 112.185 196.224C109.722 195.362 108.22 194.106 108.22 191.988C108.22 189.648 110.166 187.924 113.072 187.924C114.599 187.924 115.732 188.269 116.397 188.663L115.855 190.239C115.362 189.968 114.353 189.525 112.998 189.525C110.954 189.525 110.166 190.756 110.166 191.766C110.166 193.17 111.077 193.86 113.146 194.648C115.683 195.633 116.988 196.84 116.988 199.032C116.988 201.347 115.264 203.342 111.717 203.342C110.264 203.342 108.688 202.923 107.875 202.381L108.368 200.756L108.392 200.78Z" fill="#8A8A8A"/>
<path d="M127.512 202.727C126.994 202.998 125.861 203.343 124.408 203.343C121.157 203.343 119.039 201.151 119.039 197.875C119.039 194.599 121.305 192.186 124.827 192.186C125.985 192.186 127.019 192.481 127.536 192.727L127.093 194.23C126.625 193.959 125.886 193.713 124.827 193.713C122.364 193.713 121.009 195.535 121.009 197.776C121.009 200.264 122.61 201.791 124.753 201.791C125.861 201.791 126.6 201.496 127.167 201.249L127.512 202.702V202.727Z" fill="#8A8A8A"/>
<path d="M129.923 195.757C129.923 194.501 129.923 193.417 129.824 192.407H131.548L131.622 194.525H131.721C132.213 193.097 133.395 192.186 134.701 192.186C134.923 192.186 135.07 192.186 135.267 192.259V194.107C135.07 194.057 134.873 194.033 134.602 194.033C133.223 194.033 132.238 195.067 131.967 196.545C131.918 196.816 131.868 197.112 131.868 197.456V203.17H129.923V195.781V195.757Z" fill="#8A8A8A"/>
<path d="M138.2 198.121C138.249 200.756 139.949 201.84 141.894 201.84C143.298 201.84 144.136 201.594 144.875 201.298L145.219 202.702C144.53 203.022 143.348 203.367 141.623 203.367C138.298 203.367 136.328 201.2 136.328 197.949C136.328 194.698 138.249 192.161 141.377 192.161C144.899 192.161 145.835 195.239 145.835 197.21C145.835 197.604 145.786 197.924 145.761 198.121H138.175H138.2ZM143.939 196.717C143.939 195.486 143.422 193.54 141.229 193.54C139.234 193.54 138.372 195.363 138.225 196.717H143.963H143.939Z" fill="#8A8A8A"/>
<path d="M149.458 198.121C149.507 200.756 151.207 201.84 153.152 201.84C154.556 201.84 155.394 201.594 156.132 201.298L156.477 202.702C155.788 203.022 154.605 203.367 152.881 203.367C149.556 203.367 147.586 201.2 147.586 197.949C147.586 194.698 149.507 192.161 152.635 192.161C156.157 192.161 157.093 195.239 157.093 197.21C157.093 197.604 157.044 197.924 157.019 198.121H149.433H149.458ZM155.196 196.717C155.196 195.486 154.679 193.54 152.487 193.54C150.492 193.54 149.63 195.363 149.482 196.717H155.221H155.196Z" fill="#8A8A8A"/>
<path d="M159.649 195.313C159.649 194.205 159.649 193.294 159.551 192.407H161.299L161.423 194.18H161.472C162.014 193.17 163.245 192.161 165.043 192.161C166.546 192.161 168.861 193.047 168.861 196.717V203.121H166.89V196.939C166.89 195.215 166.25 193.762 164.403 193.762C163.097 193.762 162.112 194.673 161.767 195.757C161.669 196.003 161.644 196.323 161.644 196.668V203.121H159.674V195.289L159.649 195.313Z" fill="#8A8A8A"/>
<path d="M182.68 191.323V196.545H187.729V197.875H182.68V203.121H181.251V197.875H176.227V196.545H181.251V191.323H182.68Z" fill="#8A8A8A"/>
<path d="M195.234 188.392C196.072 188.219 197.426 188.072 198.781 188.072C200.727 188.072 201.958 188.417 202.894 189.155C203.682 189.722 204.15 190.609 204.15 191.791C204.15 193.219 203.19 194.5 201.613 195.067V195.116C203.042 195.461 204.717 196.643 204.717 198.859C204.717 200.14 204.2 201.125 203.436 201.864C202.377 202.825 200.702 203.268 198.239 203.268C196.909 203.268 195.875 203.17 195.234 203.096V188.392ZM197.18 194.5H198.953C200.998 194.5 202.205 193.441 202.205 191.988C202.205 190.239 200.875 189.549 198.904 189.549C198.017 189.549 197.5 189.623 197.18 189.673V194.475V194.5ZM197.18 201.667C197.55 201.741 198.116 201.766 198.806 201.766C200.801 201.766 202.672 201.027 202.672 198.859C202.672 196.815 200.899 195.978 198.806 195.978H197.205V201.667H197.18Z" fill="#8A8A8A"/>
<path d="M216.394 200.189C216.394 201.298 216.394 202.283 216.493 203.12H214.744L214.621 201.372H214.572C214.054 202.234 212.921 203.367 211 203.367C209.301 203.367 207.281 202.431 207.281 198.662V192.382H209.252V198.318C209.252 200.362 209.867 201.741 211.665 201.741C212.971 201.741 213.907 200.83 214.251 199.968C214.375 199.672 214.424 199.327 214.424 198.958V192.382H216.394V200.189Z" fill="#8A8A8A"/>
<path d="M222.116 189.303V192.382H224.923V193.86H222.116V199.648C222.116 200.978 222.485 201.741 223.593 201.741C224.111 201.741 224.48 201.667 224.726 201.618L224.825 203.071C224.455 203.219 223.84 203.342 223.076 203.342C222.165 203.342 221.426 203.047 220.958 202.529C220.391 201.963 220.194 201.002 220.194 199.746V193.884H218.52V192.407H220.194V189.845L222.116 189.328V189.303Z" fill="#8A8A8A"/>
<path d="M229.604 189.303V192.382H232.412V193.86H229.604V199.648C229.604 200.978 229.973 201.741 231.082 201.741C231.599 201.741 231.968 201.667 232.215 201.618L232.313 203.071C231.944 203.219 231.328 203.342 230.564 203.342C229.653 203.342 228.914 203.047 228.446 202.529C227.88 201.963 227.683 201.002 227.683 199.746V193.884H226.008V192.407H227.683V189.845L229.604 189.328V189.303Z" fill="#8A8A8A"/>
<path d="M244.35 197.678C244.35 201.643 241.592 203.367 238.981 203.367C236.05 203.367 233.809 201.249 233.809 197.85C233.809 194.254 236.173 192.161 239.153 192.161C242.133 192.161 244.35 194.402 244.35 197.678ZM235.804 197.776C235.804 200.116 237.158 201.889 239.079 201.889C241 201.889 242.355 200.141 242.355 197.727C242.355 195.904 241.444 193.614 239.129 193.614C236.813 193.614 235.804 195.732 235.804 197.776Z" fill="#8A8A8A"/>
<path d="M246.942 195.313C246.942 194.205 246.942 193.294 246.844 192.407H248.593L248.716 194.18H248.765C249.307 193.17 250.538 192.161 252.336 192.161C253.839 192.161 256.154 193.047 256.154 196.717V203.121H254.183V196.939C254.183 195.215 253.543 193.762 251.696 193.762C250.39 193.762 249.405 194.673 249.06 195.757C248.962 196.003 248.937 196.323 248.937 196.668V203.121H246.967V195.289L246.942 195.313Z" fill="#8A8A8A"/>
<path d="M259.149 201.126C259.74 201.495 260.75 201.914 261.735 201.914C263.163 201.914 263.828 201.2 263.828 200.313C263.828 199.426 263.262 198.885 261.833 198.343C259.888 197.653 258.976 196.594 258.976 195.313C258.976 193.589 260.38 192.161 262.695 192.161C263.779 192.161 264.74 192.481 265.356 192.826L264.863 194.254C264.444 193.983 263.656 193.638 262.646 193.638C261.489 193.638 260.848 194.303 260.848 195.092C260.848 195.978 261.489 196.372 262.893 196.914C264.764 197.628 265.725 198.564 265.725 200.141C265.725 202.037 264.247 203.367 261.686 203.367C260.503 203.367 259.42 203.072 258.656 202.628L259.149 201.151V201.126Z" fill="#8A8A8A"/>
<path d="M33.1301 188.639C34.3123 188.466 35.7163 188.318 37.2433 188.318C40.0264 188.318 42.0215 188.959 43.3268 190.19C44.6568 191.422 45.4449 193.146 45.4449 195.559C45.4449 197.973 44.6814 199.993 43.2775 201.372C41.8736 202.776 39.5585 203.515 36.6276 203.515C35.2483 203.515 34.0907 203.441 33.1055 203.342V188.639H33.1301ZM35.0759 201.865C35.5685 201.963 36.2827 201.963 37.0462 201.963C41.184 201.963 43.4499 199.648 43.4499 195.609C43.4499 192.087 41.4549 189.845 37.3664 189.845C36.3566 189.845 35.5931 189.944 35.1005 190.042V201.84L35.0759 201.865Z" fill="#8A8A8A"/>
<path d="M50.1961 189.624C50.1961 190.289 49.7282 190.83 48.9401 190.83C48.2504 190.83 47.7578 190.289 47.7578 189.624C47.7578 188.959 48.275 188.392 48.9893 188.392C49.7036 188.392 50.1961 188.934 50.1961 189.624ZM48.0041 203.367V192.628H49.9745V203.367H48.0041Z" fill="#8A8A8A"/>
<path d="M53.0786 201.372C53.6697 201.741 54.6795 202.16 55.6646 202.16C57.0932 202.16 57.7582 201.446 57.7582 200.559C57.7582 199.672 57.1917 199.131 55.7632 198.589C53.8174 197.899 52.9061 196.84 52.9061 195.559C52.9061 193.835 54.31 192.407 56.6252 192.407C57.7089 192.407 58.6695 192.727 59.2852 193.072L58.7927 194.5C58.3739 194.229 57.5857 193.885 56.5759 193.885C55.4183 193.885 54.778 194.55 54.778 195.338C54.778 196.224 55.4183 196.618 56.8222 197.16C58.6941 197.874 59.6546 198.81 59.6546 200.387C59.6546 202.283 58.1769 203.613 55.6154 203.613C54.4332 203.613 53.3495 203.318 52.5859 202.874L53.0786 201.397V201.372Z" fill="#8A8A8A"/>
<path d="M62.286 196.15C62.286 194.771 62.2368 193.663 62.1875 192.653H63.9608L64.0594 194.5H64.1087C64.9215 193.195 66.1776 192.407 67.9509 192.407C70.5616 192.407 72.5073 194.599 72.5073 197.85C72.5073 201.717 70.1429 203.613 67.606 203.613C66.1775 203.613 64.9214 202.997 64.281 201.938H64.2318V207.776H62.286V196.15ZM64.2318 199.007C64.2318 199.303 64.2811 199.549 64.3303 199.796C64.6752 201.15 65.8574 202.086 67.2613 202.086C69.3302 202.086 70.537 200.411 70.537 197.948C70.537 195.806 69.404 193.958 67.3352 193.958C66.0052 193.958 64.749 194.919 64.3796 196.372C64.3057 196.618 64.2565 196.914 64.2565 197.16V199.007H64.2318Z" fill="#8A8A8A"/>
<path d="M75.0742 187.628H77.0446V203.367H75.0742V187.628Z" fill="#8A8A8A"/>
<path d="M86.4044 203.367L86.2566 202.012H86.1828C85.5916 202.849 84.4094 203.613 82.8824 203.613C80.6904 203.613 79.582 202.086 79.582 200.534C79.582 197.948 81.8972 196.52 86.0596 196.544V196.323C86.0596 195.436 85.8133 193.835 83.5966 193.835C82.5868 193.835 81.5524 194.155 80.7889 194.623L80.3455 193.342C81.2322 192.776 82.5376 192.382 83.8922 192.382C87.1926 192.382 88.0053 194.623 88.0053 196.766V200.78C88.0053 201.716 88.0546 202.628 88.1777 203.342H86.4044V203.367ZM86.1089 197.899C83.9661 197.85 81.5524 198.219 81.5524 200.313C81.5524 201.569 82.3898 202.184 83.3996 202.184C84.8035 202.184 85.6901 201.298 86.0103 200.386C86.0842 200.189 86.1334 199.968 86.1334 199.771V197.899H86.1089Z" fill="#8A8A8A"/>
<path d="M91.8213 192.628L94.1857 198.983C94.432 199.697 94.703 200.534 94.8754 201.175H94.9246C95.1216 200.534 95.3433 199.721 95.6142 198.933L97.757 192.628H99.8259L96.895 200.288C95.4911 203.958 94.5306 205.854 93.2006 207.012C92.24 207.849 91.2794 208.194 90.7868 208.268L90.2942 206.618C90.7868 206.47 91.4272 206.15 92.0183 205.657C92.5602 205.238 93.2252 204.475 93.6685 203.49C93.7671 203.293 93.8163 203.145 93.8163 203.022C93.8163 202.899 93.767 202.751 93.6931 202.505L89.7031 192.604H91.8459L91.8213 192.628Z" fill="#8A8A8A"/>
<path d="M126.742 72.2635H28.0762C22.8547 72.2635 18.5938 68.3967 18.5938 63.6678V43.6685C18.5938 38.9397 22.8547 35.0728 28.0762 35.0728H126.742C131.964 35.0728 136.225 38.9397 136.225 43.6685V63.6678C136.225 68.3967 131.964 72.2635 126.742 72.2635ZM28.0762 36.0333C23.4212 36.0333 19.6528 39.4569 19.6528 43.6685V63.6678C19.6528 67.8794 23.4458 71.303 28.0762 71.303H126.742C131.397 71.303 135.166 67.8794 135.166 63.6678V43.6685C135.166 39.4569 131.373 36.0333 126.742 36.0333H28.0762Z" fill="#8A8A8A"/>
<path d="M126.742 112.903H28.0762C22.8547 112.903 18.5938 109.036 18.5938 104.307V84.3077C18.5938 79.5788 22.8547 75.7119 28.0762 75.7119H126.742C131.964 75.7119 136.225 79.5788 136.225 84.3077V104.307C136.225 109.036 131.964 112.903 126.742 112.903ZM28.0762 76.6725C23.4212 76.6725 19.6528 80.096 19.6528 84.3077V104.307C19.6528 108.519 23.4458 111.942 28.0762 111.942H126.742C131.397 111.942 135.166 108.519 135.166 104.307V84.3077C135.166 80.096 131.373 76.6725 126.742 76.6725H28.0762Z" fill="#8A8A8A"/>
<path d="M126.742 153.517H28.0762C22.8547 153.517 18.5938 149.65 18.5938 144.921V124.922C18.5938 120.193 22.8547 116.326 28.0762 116.326H126.742C131.964 116.326 136.225 120.193 136.225 124.922V144.921C136.225 149.65 131.964 153.517 126.742 153.517ZM28.0762 117.287C23.4212 117.287 19.6528 120.71 19.6528 124.922V144.921C19.6528 149.133 23.4458 152.556 28.0762 152.556H126.742C131.397 152.556 135.166 149.133 135.166 144.921V124.922C135.166 120.71 131.373 117.287 126.742 117.287H28.0762Z" fill="#8A8A8A"/>
<path d="M256.663 15.2707C256.318 15.9111 255.924 18.2508 255.432 18.5957C254.964 18.7188 251.639 18.6942 251.639 18.6942C251.639 18.6942 250.235 18.5465 249.176 19.3592C248.116 20.172 247.919 20.8863 247.747 21.4281C247.575 21.97 247.082 23.8664 247.082 23.8664H248.757C248.757 23.8664 249.545 20.3937 250.062 20.1966C250.579 19.9996 254.84 20.1474 255.185 19.9503C255.21 19.975 254.077 23.8664 254.077 23.8664H255.875L258.436 14.8766C258.436 14.8766 257.008 14.6303 256.663 15.2707Z" fill="#8A8A8A"/>
<path d="M250.457 18.3L252.747 10.0737H251.097C251.097 10.0737 248.388 19.3345 248.363 19.3345C248.954 18.571 250.457 18.2754 250.457 18.2754V18.3Z" fill="#8A8A8A"/>
<path d="M266.339 15.7884H261.758C261.758 15.7884 259.517 15.6407 258.803 17.7095C258.236 19.3844 257.694 21.4286 257.694 21.4286C257.694 21.4286 257.276 23.5221 260.404 23.867C262.62 23.9901 264.394 23.867 264.394 23.867L264.763 22.6108H259.616C259.616 22.6108 258.901 22.5369 259.172 21.7734C259.468 20.9606 260.379 17.611 260.379 17.611C260.379 17.611 260.502 17.0199 261.684 17.0692C262.694 17.0938 264.911 17.0938 264.911 17.0938C264.911 17.0938 266.167 17.1431 266.339 15.7884Z" fill="#8A8A8A"/>
<path d="M270.428 20.8129H271.437C271.437 20.8129 271.364 21.6256 271.043 22.2167C270.92 22.463 270.772 22.5616 270.649 22.6108H267.127C267.127 22.6108 266.413 22.5369 266.684 21.7734C266.98 20.9606 267.891 17.611 267.891 17.611C267.891 17.611 268.014 17.0199 269.196 17.0692C270.206 17.0938 272.423 17.0938 272.423 17.0938C272.423 17.0938 273.679 17.1431 273.851 15.7884H269.27C269.27 15.7884 267.029 15.6407 266.314 17.7095C265.748 19.3844 265.206 21.4286 265.206 21.4286C265.206 21.4286 264.787 23.5221 267.915 23.867C269.319 23.9408 270.551 23.9162 271.265 23.8916H272.152L273.432 19.5568H270.132C269.541 20.8621 270.428 20.8129 270.428 20.8129Z" fill="#8A8A8A"/>
<path d="M274.547 69.7267H274.029L149.699 69.6529L149.822 31.9941H150.34L274.67 32.068L274.547 69.7267ZM150.857 68.643L273.365 68.7169L273.488 33.1025L150.98 33.0286L150.857 68.643Z" fill="#8A8A8A"/>
<path d="M167.189 112.73C156.303 112.73 147.461 104.701 147.461 94.8494C147.461 84.9975 156.303 76.9683 167.189 76.9683C178.076 76.9683 186.918 84.9975 186.918 94.8494C186.918 104.701 178.076 112.73 167.189 112.73ZM167.189 77.9289C156.894 77.9289 148.52 85.5148 148.52 94.8494C148.52 104.184 156.894 111.77 167.189 111.77C177.484 111.77 185.859 104.184 185.859 94.8494C185.859 85.5148 177.484 77.9289 167.189 77.9289Z" fill="#8A8A8A"/>
<path d="M167.189 151.744C156.303 151.744 147.461 143.714 147.461 133.863C147.461 124.011 156.303 115.981 167.189 115.981C178.076 115.981 186.918 124.011 186.918 133.863C186.918 143.714 178.076 151.744 167.189 151.744ZM167.189 116.942C156.894 116.942 148.52 124.528 148.52 133.863C148.52 143.197 156.894 150.783 167.189 150.783C177.484 150.783 185.859 143.197 185.859 133.863C185.859 124.528 177.484 116.942 167.189 116.942Z" fill="#8A8A8A"/>
<path d="M211.346 112.73C200.459 112.73 191.617 104.701 191.617 94.8494C191.617 84.9975 200.459 76.9683 211.346 76.9683C222.232 76.9683 231.074 84.9975 231.074 94.8494C231.074 104.701 222.232 112.73 211.346 112.73ZM211.346 77.9289C201.05 77.9289 192.676 85.5148 192.676 94.8494C192.676 104.184 201.05 111.77 211.346 111.77C221.641 111.77 230.015 104.184 230.015 94.8494C230.015 85.5148 221.641 77.9289 211.346 77.9289Z" fill="#8A8A8A"/>
<path d="M211.346 151.744C200.459 151.744 191.617 143.714 191.617 133.863C191.617 124.011 200.459 115.981 211.346 115.981C222.232 115.981 231.074 124.011 231.074 133.863C231.074 143.714 222.232 151.744 211.346 151.744ZM211.346 116.942C201.05 116.942 192.676 124.528 192.676 133.863C192.676 143.197 201.05 150.783 211.346 150.783C221.641 150.783 230.015 143.197 230.015 133.863C230.015 124.528 221.641 116.942 211.346 116.942Z" fill="#8A8A8A"/>
<path opacity="0.25" d="M59.7985 36.1074H59.2812V72.3376H59.7985V36.1074Z" fill="#8A8A8A"/>
<path opacity="0.25" d="M96.6969 35.5654H96.1797V71.7956H96.6969V35.5654Z" fill="#8A8A8A"/>
<path opacity="0.25" d="M59.7985 76.7217H59.2812V112.952H59.7985V76.7217Z" fill="#8A8A8A"/>
<path opacity="0.25" d="M96.6969 76.1797H96.1797V112.41H96.6969V76.1797Z" fill="#8A8A8A"/>
<path opacity="0.25" d="M59.7985 117.36H59.2812V153.591H59.7985V117.36Z" fill="#8A8A8A"/>
<path opacity="0.25" d="M96.6969 116.819H96.1797V153.049H96.6969V116.819Z" fill="#8A8A8A"/>
<path d="M268.294 150.487H247.063C242.014 150.487 237.926 146.768 237.926 142.212V86.4996C237.926 81.9432 242.039 78.2241 247.063 78.2241H268.294C273.343 78.2241 277.432 81.9432 277.432 86.4996V142.212C277.432 146.793 273.319 150.487 268.294 150.487ZM247.063 79.1601C242.605 79.1601 238.985 82.4358 238.985 86.4996V142.212C238.985 146.251 242.605 149.551 247.063 149.551H268.294C272.752 149.551 276.373 146.251 276.373 142.212V86.4996C276.373 82.4604 272.752 79.1601 268.294 79.1601H247.063Z" fill="#8A8A8A"/>
<path d="M169.005 101.204H165.902V90.761H163.094V88.5443H163.611C165.113 88.5443 166 88.0763 166.394 87.0419L166.517 86.7217H169.005V101.204ZM166.961 100.243H167.946V87.6823H167.256C166.837 88.495 165.975 89.3324 164.153 89.4802V89.8004H166.961V100.243Z" fill="#8A8A8A"/>
<path d="M216.423 101.228H204.945L205.118 100.637C205.536 99.2577 206.201 98.0016 207.088 96.9179C207.827 96.0066 208.911 95.0214 210.29 93.9869C211.349 93.1742 212.088 92.5092 212.457 91.9919C212.827 91.4994 212.999 91.0314 212.999 90.5142C212.999 90.194 212.999 89.3319 210.61 89.3319C209.625 89.3319 208.295 89.5782 208.098 91.8195L208.049 92.4353L205.044 91.524L205.093 91.1299C205.29 89.726 205.857 88.5931 206.817 87.7556C207.802 86.9182 209.083 86.4995 210.61 86.4995C212.26 86.4995 213.615 86.8443 214.649 87.5093C215.708 88.2236 216.25 89.2088 216.25 90.4649C216.25 91.524 215.856 92.5338 215.068 93.4451C214.6 94.0116 213.738 94.7751 212.433 95.7603C211.374 96.5731 210.684 97.1395 210.364 97.4104C209.97 97.7552 209.65 98.1247 209.379 98.4695H216.398V101.203L216.423 101.228ZM206.349 100.267H215.364V99.4547H207.605L207.975 98.7651C208.344 98.1001 208.886 97.4351 209.625 96.7701C209.97 96.4745 210.659 95.9081 211.743 95.0706C212.975 94.1347 213.812 93.4205 214.231 92.9032C214.871 92.1397 215.191 91.3515 215.191 90.4895C215.191 89.5536 214.797 88.8147 214.009 88.2975C213.172 87.7556 212.014 87.4601 210.585 87.4601C209.305 87.4601 208.295 87.7803 207.507 88.4453C206.842 89.0364 206.374 89.8492 206.177 90.859L207.113 91.1299C207.531 88.864 209.206 88.3714 210.585 88.3714C213.442 88.3714 214.034 89.5289 214.034 90.4895C214.034 91.1791 213.787 91.8688 213.295 92.5091C212.851 93.1003 212.088 93.8146 210.93 94.7012C209.625 95.711 208.59 96.6223 207.901 97.4843C207.211 98.3217 206.694 99.2577 206.3 100.292L206.349 100.267Z" fill="#8A8A8A"/>
<path d="M166.917 140.315C163.814 140.315 161.892 139.059 161.252 136.596L161.129 136.153L164.257 135.266L164.38 135.759C164.577 136.497 164.848 136.99 165.217 137.261C165.587 137.507 166.153 137.655 166.917 137.655C167.73 137.655 168.395 137.483 168.863 137.162C169.331 136.842 169.528 136.473 169.528 135.956C169.528 134.601 168.813 133.985 167.237 133.985H164.528V131.399H167.336C167.779 131.399 168.173 131.227 168.518 130.907C168.863 130.562 169.035 130.118 169.035 129.577C169.035 128.961 168.813 128.247 167.015 128.247C165.587 128.247 164.823 128.764 164.577 129.872L164.479 130.389L161.4 129.577L161.498 129.158C161.843 127.483 163.099 125.463 167.04 125.463C168.542 125.463 169.799 125.833 170.759 126.572C171.744 127.335 172.261 128.345 172.261 129.577C172.261 130.808 171.794 131.695 170.833 132.458C171.326 132.778 171.744 133.172 172.064 133.64C172.532 134.33 172.779 135.118 172.779 135.98C172.779 137.359 172.188 138.468 170.981 139.256C169.922 139.97 168.567 140.34 166.917 140.34V140.315ZM162.41 136.793C163.025 138.517 164.503 139.354 166.917 139.354C168.321 139.354 169.478 139.059 170.34 138.468C171.252 137.852 171.695 137.039 171.695 135.956C171.695 135.266 171.523 134.65 171.129 134.108C170.759 133.567 170.291 133.172 169.626 132.926L168.715 132.557L169.552 132.064C170.636 131.448 171.178 130.611 171.178 129.527C171.178 128.591 170.808 127.852 170.045 127.261C169.281 126.67 168.272 126.375 167.015 126.375C164.602 126.375 163.149 127.187 162.631 128.862L163.69 129.133C164.06 128.173 164.947 127.237 167.015 127.237C169.7 127.237 170.094 128.665 170.094 129.503C170.094 130.315 169.823 130.98 169.306 131.498C168.739 132.04 168.099 132.31 167.336 132.31H165.562V132.975H167.212C169.38 132.975 170.562 134.01 170.562 135.906C170.562 136.719 170.193 137.384 169.478 137.877C168.813 138.32 167.951 138.566 166.892 138.566C165.882 138.566 165.094 138.369 164.552 137.975C164.084 137.655 163.74 137.138 163.493 136.448L162.385 136.768L162.41 136.793Z" fill="#8A8A8A"/>
<path d="M214.793 140.168H211.64V137.089H204.867V134.823L212.133 125.661H214.768V134.355H216.591V137.089H214.768V140.168H214.793ZM212.699 139.207H213.734V136.128H215.556V135.315H213.734V126.621H212.699L205.926 135.143V136.153H212.699V139.232V139.207ZM212.699 135.291H206.862L212.699 127.976V135.291ZM208.931 134.33H211.64V130.931L208.931 134.33Z" fill="#8A8A8A"/>
<path d="M263.046 109.503H252.332V119.207H263.046V109.503Z" fill="#8A8A8A"/>
<path d="M0 159.896C0 164.821 5.02451 168.811 11.2312 168.811H285.704C291.91 168.811 296.935 164.821 296.935 159.896V8.91591C296.935 3.98999 291.91 0 285.704 0H11.2312C5.02451 0 0 3.98999 0 8.91591V159.896ZM11.2312 1.03448H285.704C291.171 1.03448 295.605 4.55652 295.605 8.89133V159.871C295.605 164.206 291.171 167.728 285.704 167.728H11.2312C5.7634 167.728 1.33002 164.206 1.33002 159.871V8.89133C1.33002 4.55652 5.7634 1.03448 11.2312 1.03448Z" fill="#8A8A8A"/>
</svg>
