<svg width="237" height="48" viewBox="0 0 237 48" fill="none" xmlns="http://www.w3.org/2000/svg">
<rect x="0.464706" y="0.464706" width="236.071" height="46.4706" rx="23.2353" fill="white" stroke="#6F6F6F" stroke-width="0.929412"/>
<path d="M64.1948 28.2236H62.9532V18.6972H59.6131V17.608H67.5204V18.6972H64.1948V28.2236ZM72.5595 20.1203C72.7193 20.1203 72.8863 20.13 73.0605 20.1494C73.2348 20.1639 73.3897 20.1857 73.5253 20.2147L73.3728 21.3329C73.2421 21.299 73.0969 21.2724 72.9371 21.253C72.7774 21.2337 72.6273 21.224 72.4869 21.224C72.1674 21.224 71.8649 21.2893 71.5793 21.42C71.2985 21.5459 71.0517 21.7299 70.8387 21.9719C70.6257 22.2091 70.4587 22.4971 70.3377 22.8359C70.2166 23.17 70.1561 23.5427 70.1561 23.9541V28.2236H68.9435V20.2655H69.9456L70.0763 21.7323H70.1271C70.2917 21.437 70.4901 21.1683 70.7225 20.9263C70.9548 20.6794 71.2235 20.4834 71.5285 20.3382C71.8383 20.1929 72.182 20.1203 72.5595 20.1203ZM73.7721 20.2655H75.0646L76.8218 24.8836C76.9234 25.1546 77.0178 25.416 77.1049 25.6678C77.1921 25.9146 77.2695 26.1518 77.3373 26.3793C77.4051 26.6068 77.4583 26.8271 77.497 27.0401H77.5479C77.6156 26.7981 77.7124 26.481 77.8383 26.0889C77.9642 25.692 78.0997 25.2878 78.2449 24.8763L79.9077 20.2655H81.2074L77.7439 29.3927C77.56 29.8816 77.3446 30.3075 77.0977 30.6706C76.8556 31.0337 76.5604 31.312 76.2118 31.5056C75.8633 31.7041 75.4422 31.8033 74.9484 31.8033C74.7209 31.8033 74.52 31.7888 74.3457 31.7598C74.1715 31.7356 74.0214 31.7065 73.8956 31.6726V30.7069C74.0021 30.7311 74.1303 30.7529 74.2804 30.7723C74.4353 30.7916 74.595 30.8013 74.7596 30.8013C75.0598 30.8013 75.3187 30.7432 75.5366 30.627C75.7592 30.5157 75.9504 30.3511 76.1102 30.1333C76.2699 29.9155 76.4079 29.6565 76.5241 29.3564L76.9597 28.2382L73.7721 20.2655ZM88.9114 27.3814C89.1098 27.3814 89.3132 27.3644 89.5213 27.3305C89.7295 27.2966 89.8989 27.2555 90.0296 27.2071V28.1438C89.8892 28.2067 89.6931 28.2599 89.4414 28.3035C89.1946 28.3471 88.9525 28.3689 88.7153 28.3689C88.2942 28.3689 87.9118 28.2962 87.5681 28.151C87.2244 28.001 86.9485 27.7492 86.7403 27.3959C86.537 27.0425 86.4354 26.5536 86.4354 25.9291V21.2095H85.3026V20.6213L86.4426 20.1494L86.9219 18.4212H87.648V20.2655H89.9787V21.2095H87.648V25.8928C87.648 26.3914 87.7617 26.7642 87.9892 27.011C88.2216 27.2579 88.529 27.3814 88.9114 27.3814ZM92.8469 16.9255V20.3018C92.8469 20.4955 92.842 20.6915 92.8323 20.89C92.8226 21.0836 92.8057 21.2627 92.7815 21.4273H92.8614C93.026 21.1465 93.2341 20.9118 93.4858 20.723C93.7424 20.5294 94.0328 20.3841 94.3571 20.2873C94.6815 20.1857 95.0252 20.1348 95.3882 20.1348C96.0272 20.1348 96.5597 20.2365 96.9856 20.4398C97.4165 20.6431 97.7384 20.9578 97.9514 21.3837C98.1692 21.8097 98.2781 22.3616 98.2781 23.0393V28.2236H97.0873V23.1191C97.0873 22.456 96.9348 21.9598 96.6298 21.6306C96.3297 21.3015 95.8674 21.1369 95.243 21.1369C94.6524 21.1369 94.1805 21.2506 93.8271 21.4781C93.4786 21.7008 93.2268 22.03 93.0719 22.4656C92.9219 22.9013 92.8469 23.4338 92.8469 24.0631V28.2236H91.6415V16.9255H92.8469ZM103.826 20.1203C104.503 20.1203 105.084 20.2704 105.568 20.5705C106.052 20.8706 106.423 21.2918 106.679 21.8339C106.936 22.3712 107.064 23.0005 107.064 23.7218V24.4697H101.567C101.582 25.4039 101.814 26.1155 102.264 26.6044C102.715 27.0933 103.349 27.3378 104.167 27.3378C104.67 27.3378 105.116 27.2918 105.503 27.1998C105.89 27.1079 106.292 26.9723 106.708 26.7932V27.8533C106.306 28.0324 105.907 28.1631 105.51 28.2454C105.118 28.3277 104.653 28.3689 104.116 28.3689C103.351 28.3689 102.683 28.214 102.112 27.9041C101.546 27.5895 101.105 27.1296 100.79 26.5246C100.476 25.9195 100.318 25.1788 100.318 24.3027C100.318 23.4459 100.461 22.7053 100.747 22.0808C101.037 21.4515 101.444 20.9674 101.967 20.6286C102.494 20.2897 103.114 20.1203 103.826 20.1203ZM103.811 21.1078C103.167 21.1078 102.654 21.3184 102.272 21.7395C101.889 22.1607 101.662 22.7488 101.589 23.504H105.801C105.796 23.0296 105.721 22.6133 105.575 22.2551C105.435 21.892 105.22 21.6113 104.929 21.4128C104.639 21.2095 104.266 21.1078 103.811 21.1078ZM115.93 17.608C117.3 17.608 118.299 17.8767 118.928 18.414C119.563 18.9465 119.88 19.7113 119.88 20.7085C119.88 21.1587 119.805 21.5871 119.655 21.9937C119.509 22.3954 119.272 22.7512 118.943 23.061C118.614 23.366 118.181 23.608 117.643 23.7871C117.111 23.9614 116.457 24.0485 115.683 24.0485H114.39V28.2236H113.156V17.608H115.93ZM115.813 18.6609H114.39V22.9884H115.545C116.223 22.9884 116.786 22.9158 117.237 22.7706C117.692 22.6254 118.033 22.3906 118.26 22.0663C118.488 21.7371 118.602 21.3015 118.602 20.7593C118.602 20.0526 118.377 19.5273 117.926 19.1837C117.476 18.8351 116.772 18.6609 115.813 18.6609ZM125.536 20.1203C125.696 20.1203 125.863 20.13 126.037 20.1494C126.211 20.1639 126.366 20.1857 126.502 20.2147L126.349 21.3329C126.219 21.299 126.073 21.2724 125.914 21.253C125.754 21.2337 125.604 21.224 125.463 21.224C125.144 21.224 124.841 21.2893 124.556 21.42C124.275 21.5459 124.028 21.7299 123.815 21.9719C123.602 22.2091 123.435 22.4971 123.314 22.8359C123.193 23.17 123.133 23.5427 123.133 23.9541V28.2236H121.92V20.2655H122.922L123.053 21.7323H123.104C123.268 21.437 123.467 21.1683 123.699 20.9263C123.931 20.6794 124.2 20.4834 124.505 20.3382C124.815 20.1929 125.158 20.1203 125.536 20.1203ZM134.866 24.2301C134.866 24.8836 134.782 25.4669 134.612 25.98C134.443 26.4931 134.198 26.9263 133.879 27.2797C133.559 27.6331 133.172 27.9041 132.717 28.0929C132.267 28.2769 131.756 28.3689 131.185 28.3689C130.653 28.3689 130.164 28.2769 129.718 28.0929C129.278 27.9041 128.895 27.6331 128.571 27.2797C128.252 26.9263 128.002 26.4931 127.823 25.98C127.649 25.4669 127.562 24.8836 127.562 24.2301C127.562 23.3587 127.709 22.6181 128.005 22.0082C128.3 21.3934 128.721 20.9263 129.268 20.6068C129.82 20.2825 130.476 20.1203 131.236 20.1203C131.962 20.1203 132.596 20.2825 133.138 20.6068C133.685 20.9311 134.109 21.4007 134.409 22.0155C134.714 22.6254 134.866 23.3636 134.866 24.2301ZM128.811 24.2301C128.811 24.869 128.895 25.4233 129.065 25.8928C129.234 26.3624 129.496 26.7254 129.849 26.982C130.202 27.2386 130.657 27.3668 131.214 27.3668C131.766 27.3668 132.219 27.2386 132.572 26.982C132.93 26.7254 133.194 26.3624 133.363 25.8928C133.533 25.4233 133.618 24.869 133.618 24.2301C133.618 23.5959 133.533 23.0489 133.363 22.5891C133.194 22.1244 132.933 21.7662 132.579 21.5144C132.226 21.2627 131.768 21.1369 131.207 21.1369C130.379 21.1369 129.772 21.4104 129.384 21.9574C129.002 22.5044 128.811 23.2619 128.811 24.2301ZM139.521 27.3814C139.719 27.3814 139.923 27.3644 140.131 27.3305C140.339 27.2966 140.508 27.2555 140.639 27.2071V28.1438C140.499 28.2067 140.303 28.2599 140.051 28.3035C139.804 28.3471 139.562 28.3689 139.325 28.3689C138.904 28.3689 138.521 28.2962 138.177 28.151C137.834 28.001 137.558 27.7492 137.35 27.3959C137.146 27.0425 137.045 26.5536 137.045 25.9291V21.2095H135.912V20.6213L137.052 20.1494L137.531 18.4212H138.257V20.2655H140.588V21.2095H138.257V25.8928C138.257 26.3914 138.371 26.7642 138.599 27.011C138.831 27.2579 139.138 27.3814 139.521 27.3814ZM149.113 24.2301C149.113 24.8836 149.028 25.4669 148.858 25.98C148.689 26.4931 148.445 26.9263 148.125 27.2797C147.806 27.6331 147.418 27.9041 146.963 28.0929C146.513 28.2769 146.002 28.3689 145.431 28.3689C144.899 28.3689 144.41 28.2769 143.965 28.0929C143.524 27.9041 143.142 27.6331 142.817 27.2797C142.498 26.9263 142.248 26.4931 142.069 25.98C141.895 25.4669 141.808 24.8836 141.808 24.2301C141.808 23.3587 141.956 22.6181 142.251 22.0082C142.546 21.3934 142.967 20.9263 143.514 20.6068C144.066 20.2825 144.722 20.1203 145.482 20.1203C146.208 20.1203 146.842 20.2825 147.384 20.6068C147.931 20.9311 148.355 21.4007 148.655 22.0155C148.96 22.6254 149.113 23.3636 149.113 24.2301ZM143.057 24.2301C143.057 24.869 143.142 25.4233 143.311 25.8928C143.48 26.3624 143.742 26.7254 144.095 26.982C144.449 27.2386 144.904 27.3668 145.46 27.3668C146.012 27.3668 146.465 27.2386 146.818 26.982C147.176 26.7254 147.44 26.3624 147.61 25.8928C147.779 25.4233 147.864 24.869 147.864 24.2301C147.864 23.5959 147.779 23.0489 147.61 22.5891C147.44 22.1244 147.179 21.7662 146.825 21.5144C146.472 21.2627 146.015 21.1369 145.453 21.1369C144.625 21.1369 144.018 21.4104 143.63 21.9574C143.248 22.5044 143.057 23.2619 143.057 24.2301ZM153.767 27.3814C153.965 27.3814 154.169 27.3644 154.377 27.3305C154.585 27.2966 154.754 27.2555 154.885 27.2071V28.1438C154.745 28.2067 154.549 28.2599 154.297 28.3035C154.05 28.3471 153.808 28.3689 153.571 28.3689C153.15 28.3689 152.767 28.2962 152.424 28.151C152.08 28.001 151.804 27.7492 151.596 27.3959C151.393 27.0425 151.291 26.5536 151.291 25.9291V21.2095H150.158V20.6213L151.298 20.1494L151.777 18.4212H152.503V20.2655H154.834V21.2095H152.503V25.8928C152.503 26.3914 152.617 26.7642 152.845 27.011C153.077 27.2579 153.384 27.3814 153.767 27.3814ZM155.241 20.2655H156.533L158.291 24.8836C158.392 25.1546 158.487 25.416 158.574 25.6678C158.661 25.9146 158.738 26.1518 158.806 26.3793C158.874 26.6068 158.927 26.8271 158.966 27.0401H159.017C159.084 26.7981 159.181 26.481 159.307 26.0889C159.433 25.692 159.568 25.2878 159.714 24.8763L161.376 20.2655H162.676L159.213 29.3927C159.029 29.8816 158.813 30.3075 158.566 30.6706C158.324 31.0337 158.029 31.312 157.681 31.5056C157.332 31.7041 156.911 31.8033 156.417 31.8033C156.19 31.8033 155.989 31.7888 155.814 31.7598C155.64 31.7356 155.49 31.7065 155.364 31.6726V30.7069C155.471 30.7311 155.599 30.7529 155.749 30.7723C155.904 30.7916 156.064 30.8013 156.228 30.8013C156.529 30.8013 156.787 30.7432 157.005 30.627C157.228 30.5157 157.419 30.3511 157.579 30.1333C157.739 29.9155 157.877 29.6565 157.993 29.3564L158.428 28.2382L155.241 20.2655ZM167.686 20.1203C168.679 20.1203 169.47 20.4616 170.061 21.1441C170.651 21.8267 170.946 22.8529 170.946 24.2228C170.946 25.128 170.811 25.888 170.54 26.5028C170.269 27.1175 169.886 27.5822 169.393 27.8969C168.904 28.2115 168.325 28.3689 167.657 28.3689C167.236 28.3689 166.866 28.3132 166.546 28.2018C166.227 28.0905 165.953 27.9405 165.726 27.7517C165.498 27.5629 165.31 27.3571 165.159 27.1345H165.072C165.087 27.3233 165.104 27.5508 165.123 27.817C165.147 28.0833 165.159 28.3156 165.159 28.5141V31.7815H163.947V20.2655H164.942L165.101 21.4418H165.159C165.314 21.1998 165.503 20.9795 165.726 20.7811C165.948 20.5778 166.22 20.418 166.539 20.3018C166.863 20.1808 167.246 20.1203 167.686 20.1203ZM167.476 21.1369C166.924 21.1369 166.479 21.2434 166.14 21.4564C165.806 21.6693 165.561 21.9888 165.406 22.4148C165.251 22.8359 165.169 23.366 165.159 24.005V24.2373C165.159 24.9102 165.232 25.479 165.377 25.9437C165.527 26.4084 165.772 26.7617 166.111 27.0038C166.454 27.2458 166.914 27.3668 167.49 27.3668C167.984 27.3668 168.395 27.2337 168.725 26.9675C169.054 26.7012 169.298 26.3309 169.458 25.8565C169.623 25.3773 169.705 24.8279 169.705 24.2083C169.705 23.2692 169.521 22.5237 169.153 21.9719C168.79 21.4152 168.231 21.1369 167.476 21.1369ZM176.116 20.1203C176.794 20.1203 177.375 20.2704 177.859 20.5705C178.343 20.8706 178.713 21.2918 178.97 21.8339C179.226 22.3712 179.355 23.0005 179.355 23.7218V24.4697H173.858C173.873 25.4039 174.105 26.1155 174.555 26.6044C175.005 27.0933 175.64 27.3378 176.458 27.3378C176.961 27.3378 177.406 27.2918 177.794 27.1998C178.181 27.1079 178.583 26.9723 178.999 26.7932V27.8533C178.597 28.0324 178.198 28.1631 177.801 28.2454C177.409 28.3277 176.944 28.3689 176.407 28.3689C175.642 28.3689 174.974 28.214 174.403 27.9041C173.836 27.5895 173.396 27.1296 173.081 26.5246C172.767 25.9195 172.609 25.1788 172.609 24.3027C172.609 23.4459 172.752 22.7053 173.038 22.0808C173.328 21.4515 173.735 20.9674 174.258 20.6286C174.785 20.2897 175.405 20.1203 176.116 20.1203ZM176.102 21.1078C175.458 21.1078 174.945 21.3184 174.562 21.7395C174.18 22.1607 173.953 22.7488 173.88 23.504H178.091C178.086 23.0296 178.011 22.6133 177.866 22.2551C177.726 21.892 177.51 21.6113 177.22 21.4128C176.93 21.2095 176.557 21.1078 176.102 21.1078ZM192.86 17.608L189.048 28.2236H187.807L183.995 17.608H185.287L187.77 24.6004C187.872 24.8811 187.961 25.1498 188.039 25.4064C188.121 25.6629 188.194 25.9098 188.257 26.147C188.32 26.3842 188.375 26.6141 188.424 26.8368C188.472 26.6141 188.528 26.3842 188.591 26.147C188.654 25.9049 188.726 25.6556 188.809 25.3991C188.891 25.1377 188.983 24.8642 189.085 24.5786L191.553 17.608H192.86ZM197.202 20.1203C197.88 20.1203 198.461 20.2704 198.945 20.5705C199.429 20.8706 199.799 21.2918 200.056 21.8339C200.312 22.3712 200.441 23.0005 200.441 23.7218V24.4697H194.944C194.959 25.4039 195.191 26.1155 195.641 26.6044C196.091 27.0933 196.726 27.3378 197.544 27.3378C198.047 27.3378 198.492 27.2918 198.88 27.1998C199.267 27.1079 199.669 26.9723 200.085 26.7932V27.8533C199.683 28.0324 199.284 28.1631 198.887 28.2454C198.495 28.3277 198.03 28.3689 197.493 28.3689C196.728 28.3689 196.06 28.214 195.489 27.9041C194.922 27.5895 194.482 27.1296 194.167 26.5246C193.853 25.9195 193.695 25.1788 193.695 24.3027C193.695 23.4459 193.838 22.7053 194.124 22.0808C194.414 21.4515 194.821 20.9674 195.344 20.6286C195.871 20.2897 196.491 20.1203 197.202 20.1203ZM197.188 21.1078C196.544 21.1078 196.031 21.3184 195.648 21.7395C195.266 22.1607 195.039 22.7488 194.966 23.504H199.177C199.173 23.0296 199.097 22.6133 198.952 22.2551C198.812 21.892 198.596 21.6113 198.306 21.4128C198.016 21.2095 197.643 21.1078 197.188 21.1078ZM206.104 20.1203C206.264 20.1203 206.431 20.13 206.605 20.1494C206.78 20.1639 206.935 20.1857 207.07 20.2147L206.918 21.3329C206.787 21.299 206.642 21.2724 206.482 21.253C206.322 21.2337 206.172 21.224 206.032 21.224C205.712 21.224 205.41 21.2893 205.124 21.42C204.843 21.5459 204.597 21.7299 204.384 21.9719C204.171 22.2091 204.004 22.4971 203.883 22.8359C203.761 23.17 203.701 23.5427 203.701 23.9541V28.2236H202.488V20.2655H203.49L203.621 21.7323H203.672C203.837 21.437 204.035 21.1683 204.267 20.9263C204.5 20.6794 204.768 20.4834 205.073 20.3382C205.383 20.1929 205.727 20.1203 206.104 20.1203ZM208.392 27.4685C208.392 27.1296 208.474 26.89 208.638 26.7496C208.803 26.6044 209.004 26.5318 209.241 26.5318C209.488 26.5318 209.696 26.6044 209.866 26.7496C210.035 26.89 210.12 27.1296 210.12 27.4685C210.12 27.8025 210.035 28.0469 209.866 28.2018C209.696 28.3519 209.488 28.4269 209.241 28.4269C209.004 28.4269 208.803 28.3519 208.638 28.2018C208.474 28.0469 208.392 27.8025 208.392 27.4685Z" fill="#2E2E2E"/>
<circle cx="25.0946" cy="24.165" r="16.7294" fill="#6F6F6F"/>
<g clip-path="url(#clip0_40_166)">
<path d="M25.0018 26.8212C25.0656 26.7639 25.1174 26.7203 25.164 26.6726C26.3579 25.4494 27.5504 24.2248 28.7443 23.0002C28.7868 22.9565 28.8307 22.9129 28.8653 22.8624C29.1312 22.4861 28.9597 21.961 28.5249 21.8342C28.2617 21.7579 28.0383 21.8465 27.8482 22.0415C27.1994 22.7097 26.5493 23.3752 25.8992 24.042C25.8367 24.1061 25.7715 24.1648 25.6665 24.2643C25.6572 24.1075 25.6466 24.0025 25.6452 23.8988C25.6452 21.897 25.6452 19.8951 25.6439 17.8932C25.6439 17.7704 25.6439 17.645 25.6253 17.5236C25.5681 17.1691 25.2025 16.9304 24.8662 17.0191C24.5152 17.1118 24.3623 17.3382 24.3623 17.7868C24.361 19.8269 24.3623 21.8683 24.361 23.9084C24.361 24.0093 24.3477 24.1116 24.3357 24.2602C24.2307 24.1593 24.1642 24.0993 24.1017 24.0352C23.4569 23.3738 22.8108 22.7138 22.1686 22.0511C21.9732 21.8492 21.7458 21.7524 21.4733 21.837C20.9854 21.9897 20.8604 22.5829 21.238 22.9715C22.4491 24.2207 23.6656 25.4644 24.8808 26.7108C24.9127 26.7435 24.9486 26.7708 25.0031 26.8212H25.0018ZM24.9925 29.9986C26.2502 29.9986 27.5092 30.0027 28.7669 29.9986C29.7826 29.9945 30.7013 29.2949 30.906 28.279C31.0164 27.7362 30.9871 27.1608 30.9991 26.5989C31.0071 26.2035 30.7159 25.9307 30.3397 25.9362C29.9781 25.9416 29.7201 26.2185 29.7162 26.6112C29.7122 26.9508 29.7175 27.2917 29.7148 27.6312C29.7082 28.2449 29.3014 28.6745 28.7084 28.6745C26.2369 28.6786 23.7667 28.6786 21.2951 28.6745C20.7128 28.6745 20.3007 28.2463 20.2914 27.6517C20.2861 27.3121 20.2914 26.9712 20.2901 26.6317C20.2874 26.2185 20.0348 25.9403 19.6625 25.9348C19.2783 25.9294 19.0058 26.2103 19.0018 26.6235C18.9978 26.948 19.0018 27.2726 19.0018 27.5972C19.0044 28.9895 19.9803 29.9959 21.3324 29.9972C22.5528 29.9986 23.7733 29.9972 24.9938 29.9972L24.9925 29.9986Z" fill="white"/>
<path d="M25.0012 26.821C24.9453 26.7719 24.9094 26.7432 24.8789 26.7105C23.6637 25.4641 22.4472 24.2204 21.2361 22.9713C20.8585 22.5826 20.9848 21.9894 21.4714 21.8367C21.7439 21.7522 21.9699 21.8476 22.1667 22.0508C22.8102 22.7136 23.455 23.3736 24.0998 24.035C24.1623 24.0991 24.2287 24.1591 24.3338 24.26C24.3444 24.11 24.359 24.0091 24.359 23.9081C24.3604 21.8681 24.359 19.8266 24.3604 17.7866C24.3604 17.3379 24.5133 17.1115 24.8642 17.0188C25.2006 16.9302 25.5675 17.1688 25.6234 17.5234C25.6433 17.6447 25.642 17.7702 25.642 17.8929C25.642 19.8948 25.642 21.8967 25.6433 23.8986C25.6433 24.0036 25.6553 24.1072 25.6646 24.2641C25.7683 24.1645 25.8348 24.1045 25.8973 24.0418C26.5474 23.3749 27.1975 22.7095 27.8463 22.0413C28.0364 21.8449 28.2584 21.7563 28.523 21.834C28.9591 21.9608 29.1306 22.4845 28.8634 22.8622C28.8288 22.9113 28.7849 22.9563 28.7424 22.9999C27.5498 24.2245 26.3559 25.4491 25.162 26.6723C25.1155 26.7201 25.0637 26.7637 24.9998 26.821H25.0012Z" fill="white"/>
<path d="M24.9926 29.9982C23.7721 29.9982 22.5516 29.9995 21.3312 29.9982C19.9791 29.9955 19.0019 28.9891 18.9992 27.5967C18.9992 27.2722 18.9966 26.9476 18.9992 26.6231C19.0032 26.2099 19.2758 25.9289 19.66 25.9344C20.0309 25.9399 20.2835 26.2181 20.2875 26.6312C20.2902 26.9708 20.2848 27.3117 20.2888 27.6513C20.2968 28.2458 20.7103 28.674 21.2926 28.674C23.7641 28.6781 26.2343 28.6781 28.7059 28.674C29.2988 28.674 29.7056 28.2431 29.7123 27.6308C29.7163 27.2913 29.711 26.9503 29.7136 26.6108C29.7176 26.2181 29.9755 25.9399 30.3371 25.9358C30.7147 25.9303 31.0045 26.2044 30.9966 26.5985C30.9846 27.1604 31.0139 27.7345 30.9035 28.2786C30.6974 29.2945 29.7788 29.9941 28.7644 29.9982C27.5067 30.0023 26.2476 29.9982 24.9899 29.9982H24.9926Z" fill="white"/>
</g>
<defs>
<clipPath id="clip0_40_166">
<rect width="12" height="13" fill="white" transform="translate(19 17)"/>
</clipPath>
</defs>
</svg>
