<svg width="61" height="58" viewBox="0 0 61 58" fill="none" xmlns="http://www.w3.org/2000/svg">
<path d="M14.1667 24.9238C7.19796 24.9238 1.72447 19.5047 1.71094 12.5837C1.71094 9.18068 3.0032 6.00093 5.37121 3.62627C7.69863 1.2922 10.8109 0 14.1329 0C17.4751 0 20.6077 1.29896 22.9622 3.65333C25.3302 6.02123 26.6292 9.17392 26.6224 12.5363C26.6224 19.3559 21.0272 24.9103 14.1667 24.9171H14.1599L14.1667 24.9238ZM14.0923 4.56666C9.76894 4.61402 6.25752 8.1794 6.26429 12.516C6.26429 16.8391 9.80277 20.3639 14.1396 20.3707C18.49 20.3707 22.0488 16.8662 22.0826 12.5566C22.0961 10.5067 21.2437 8.46355 19.7349 6.94809C18.2329 5.43264 16.2099 4.56666 14.1734 4.56666H14.0923Z" fill="#DD663C"/>
<path d="M46.7508 41.0393C39.7618 40.9243 34.3221 35.2887 34.3694 28.2053C34.4168 21.5278 40.0189 16.0884 46.859 16.0884H46.9334C53.8954 16.129 59.3215 21.6631 59.2809 28.6924C59.2471 35.3901 53.5909 41.046 46.9402 41.046H46.744L46.7508 41.0393ZM46.8184 20.6753C42.4748 20.6889 38.9296 24.2001 38.9228 28.4962C38.916 32.8125 42.4342 36.3644 46.7778 36.4252H46.8793C48.9496 36.4252 50.9117 35.5999 52.4069 34.0979C53.9225 32.5757 54.7479 30.5732 54.7411 28.4556C54.7208 24.0919 51.25 20.6753 46.8523 20.6753H46.8252H46.8184Z" fill="#DD663C"/>
<path d="M34.992 57.9998C34.9243 57.9998 34.8634 57.9998 34.7958 57.9931C33.4697 57.8781 32.624 56.8159 32.651 55.2801C32.7322 50.7541 36.7646 46.7083 41.2841 46.6136C43.2259 46.573 45.1338 46.5527 46.9606 46.5527C48.7873 46.5527 50.6547 46.573 52.4205 46.6136C56.9536 46.7151 60.9589 50.7811 60.9928 55.3072C61.0063 56.8768 60.1809 57.9051 58.8548 57.9931C58.8006 57.9931 58.7465 57.9931 58.6924 57.9931C57.4881 57.9931 56.5882 57.0256 56.4462 55.5913C56.1755 52.8446 54.3758 51.1871 51.629 51.1532C50.0052 51.1329 48.3814 51.1262 46.7508 51.1262C45.1203 51.1262 43.5845 51.1329 42.0013 51.1532C39.295 51.1871 37.5021 52.8581 37.2111 55.6184C37.0623 57.0391 36.1692 57.9931 34.992 57.9931V57.9998Z" fill="#DD663C"/>
<path d="M26.0686 41.9186C25.2026 41.9186 24.4516 41.5127 24.1066 40.8565C23.9239 40.5182 23.8495 40.004 23.7954 39.5507C23.4503 36.804 21.6777 35.2209 18.9308 35.2141C17.2867 35.2141 15.6426 35.2073 13.9986 35.2073C12.3545 35.2073 10.8795 35.2073 9.31665 35.2209C6.54946 35.2344 4.81066 36.8513 4.55357 39.6658C4.45885 40.6873 3.98524 41.9051 2.26674 41.9051H2.15849C0.798575 41.851 0.0137482 40.9647 0.000216744 39.4493C-0.033612 34.9029 3.89729 30.7963 8.41004 30.661C9.13398 30.6407 9.86468 30.6339 10.5886 30.6339C11.1975 30.6339 11.8064 30.6339 12.4154 30.6407C13.031 30.6407 13.6467 30.6474 14.2556 30.6474C14.4383 30.6474 14.6142 30.5933 14.7563 30.5054C15.3923 30.5324 16.0215 30.5527 16.644 30.5663C18.4301 30.6136 20.1216 30.6542 21.7453 31.006C25.5612 31.8382 28.5178 35.7012 28.3419 39.6252C28.2946 40.667 27.6045 41.621 26.7385 41.8307C26.5152 41.8848 26.2852 41.9119 26.0619 41.9119L26.0686 41.9186Z" fill="#DD663C"/>
</svg>
