<svg width="54" height="56" viewBox="0 0 54 56" fill="none" xmlns="http://www.w3.org/2000/svg">
<path d="M16.2939 55.261C16.0157 55.261 15.7325 55.1988 15.4492 55.0793C14.4579 54.6538 14.3264 53.8123 14.3264 52.966V51.7994C14.3264 49.7865 14.3264 47.7736 14.3264 45.7654C14.3264 45.3925 14.0078 45.0865 13.6083 45.0865C13.1531 45.0865 12.6979 45.0913 12.2377 45.0961C11.7521 45.1008 11.2717 45.1056 10.7912 45.1056C9.79484 45.1056 8.99068 45.0817 8.26238 45.0243C4.95977 44.7805 2.43097 43.2457 0.938978 40.5778C0.0842437 39.0478 0.00837971 37.427 0.00837971 35.8922C-0.00173549 27.4581 -0.00173549 19.0192 0.00332211 10.5851C0.00332211 9.81529 0.0134373 9.05985 0.114589 8.32354C0.488852 5.55521 1.84935 3.4419 4.16067 2.04099C5.52622 1.21384 7.1396 0.826559 9.23344 0.826559C14.4478 0.826559 19.6622 0.821777 24.8766 0.821777C31.4616 0.821777 38.0466 0.821777 44.6265 0.826559C45.3144 0.826559 45.9921 0.90784 46.5029 0.979558C50.4124 1.51506 53.2245 4.10171 53.8516 7.72589C54.0033 8.61042 53.9983 9.49973 53.9932 10.3651V10.8433C53.9932 15.6149 53.9932 20.3818 53.9932 25.1487C53.9932 29.0789 53.9932 32.9661 53.9932 36.858C53.9932 38.6844 53.4672 40.2814 52.4304 41.6105C50.6451 43.896 48.1213 45.0626 44.9199 45.0817C43.4279 45.0913 41.9359 45.0913 40.4388 45.0913H36.1753H28.1843C27.9921 45.0913 27.81 45.163 27.6785 45.2921L25.529 47.3193C23.0154 49.6956 20.5119 52.0576 18.0134 54.429C17.5785 54.8402 17.0323 55.2658 16.2837 55.2658L16.2939 55.261ZM16.1067 41.3476C17.4824 41.3524 18.2764 42.103 18.2865 43.3987C18.2916 44.6562 18.2916 45.9089 18.2916 47.1663C18.2916 47.4437 18.4686 47.6875 18.7367 47.7927C18.8227 47.8262 18.9187 47.8453 19.0098 47.8453C19.1969 47.8453 19.384 47.7736 19.5206 47.6445C20.1427 47.0516 20.7648 46.4539 21.3919 45.8658C23.0255 44.3263 24.2798 43.1405 25.6251 41.907C25.6656 41.8687 25.706 41.8353 25.7465 41.8066C25.8021 41.7635 25.8527 41.7109 25.8881 41.6536C26.0196 41.4575 26.2472 41.3428 26.49 41.3428H26.8642C26.9553 41.3428 27.0008 41.338 27.0413 41.338C27.0817 41.338 27.1272 41.338 27.1728 41.338H35.6695C35.6695 41.338 39.7308 41.3428 40.5349 41.3428C41.8954 41.3428 43.261 41.3428 44.6215 41.3189C47.0036 41.2854 48.5411 40.5204 49.4667 38.9091C49.932 38.0963 50.028 37.2022 50.0331 36.0213C50.0432 31.8281 50.0432 27.635 50.0382 23.4466V16.5234C50.0382 14.2618 50.0382 11.9955 50.0382 9.73401C50.0382 7.78326 49.4717 6.51145 48.2174 5.62214C47.2767 4.95277 46.1691 4.64199 44.7378 4.64199C40.7676 4.64199 36.8024 4.64199 32.8322 4.64199H15.4442C13.2593 4.64199 11.0795 4.64199 8.89458 4.65155C7.6403 4.65155 6.69959 4.92886 5.93589 5.50739C4.66137 6.4732 4.03423 7.81673 4.02411 9.62404C4.00388 12.8753 4.00894 16.1265 4.014 19.3778V23.2601V27.0038C4.014 30.2073 4.014 33.4107 4.01906 36.6141C4.01906 38.4549 4.76252 39.765 6.28486 40.6208C7.13454 41.0989 8.15112 41.3237 9.5723 41.338C10.4119 41.3476 11.2464 41.3524 12.0859 41.3524H14.9232H16.1067V41.3476Z" fill="#DD663C"/>
<path d="M27.0002 34.7971C26.4692 34.7971 25.9482 34.5437 25.5335 34.0847L23.9808 32.3682C21.3003 29.4086 18.6248 26.4491 15.9595 23.4799C15.1553 22.5858 14.6597 21.4766 14.4877 20.1856C14.255 18.4022 14.6394 16.8005 15.6358 15.4283C16.794 13.8314 18.4478 12.8512 20.5619 12.5117C20.9311 12.4544 21.3053 12.4209 21.6746 12.4209C21.8566 12.4209 22.0438 12.4305 22.2309 12.4448C22.2713 12.4591 22.3118 12.4687 22.3523 12.4735C23.293 12.55 24.001 13.2767 24.001 14.1613C24.001 15.1032 23.1918 15.8682 22.1955 15.8682C21.3104 15.8682 19.6161 16.1885 18.8423 17.0444C17.7499 18.2492 17.7347 20.2095 18.817 21.4096C20.6883 23.4847 22.5596 25.5597 24.436 27.63L26.6664 30.0971C26.7473 30.188 26.8687 30.2406 26.9951 30.2406C27.1216 30.2406 27.2379 30.188 27.3239 30.0971L29.443 27.7591C31.3497 25.6554 33.2615 23.5468 35.1581 21.4335C36.0432 20.4438 36.2506 19.2629 35.7549 18.0149C35.2846 16.8292 34.354 16.112 32.9935 15.8873C32.7912 15.8538 32.5838 15.8347 32.3764 15.8347C30.5709 15.8347 29.0334 17.0922 28.7957 18.756C28.6793 19.5928 27.9257 20.2 27.0053 20.2C26.894 20.2 26.7827 20.1904 26.6664 20.1713C26.2264 20.0996 25.837 19.8653 25.5689 19.5115C25.2756 19.1242 25.1592 18.6174 25.2503 18.1297C25.7712 15.2466 28.0674 13.052 31.1019 12.5356C31.5318 12.4639 31.9718 12.4257 32.4017 12.4257C35.8965 12.4257 38.8805 14.7733 39.4874 18.0102C39.8465 19.9035 39.447 21.6344 38.309 23.15C37.9347 23.6473 37.5048 24.111 37.0901 24.5557L37.0547 24.5939C36.903 24.7565 36.7563 24.9143 36.6046 25.0816L28.4619 34.0895C28.0471 34.5485 27.5211 34.8067 26.9901 34.8067L27.0002 34.7971Z" fill="#DD663C"/>
</svg>
