<svg width="64" height="72" viewBox="0 0 64 72" fill="none" xmlns="http://www.w3.org/2000/svg">
<path d="M57.9967 49.6147C57.4411 49.5497 56.8793 49.5084 56.2417 49.467C55.7619 49.4434 55.3895 49.0769 55.3895 48.6278V42.8714C55.3895 37.8124 55.4021 32.582 55.3642 27.4167C55.3579 26.0928 55.1937 24.8103 54.8907 23.6047C52.9085 15.8389 47.6057 10.514 39.1275 7.78943C38.6729 7.64168 38.1995 7.52348 37.7576 7.41119C37.3157 7.29889 37.0379 6.89701 37.1073 6.4774C37.5492 3.76469 36.9495 2.16307 35.0493 0.957426C34.0456 0.319142 33.0103 0 31.9813 0C31.0659 0 30.1569 0.254132 29.2857 0.762395C27.0825 2.03896 26.2681 3.95381 26.8678 6.45376C26.9752 6.89701 26.6785 7.34026 26.2113 7.45256C15.612 9.88749 8.35848 18.5339 8.57312 28.4746C8.67412 33.0135 8.64887 37.6351 8.62362 42.1504C8.61099 44.1952 8.59837 46.2401 8.59837 48.2791V48.6337C8.59837 49.071 8.23853 49.4375 7.77138 49.467L7.61987 49.4788C6.98227 49.5202 6.37623 49.5616 5.78282 49.6325C4.03415 49.8452 2.40543 50.7908 1.30699 52.2211C0.202234 53.669 -0.233354 55.4361 0.120167 57.0732C0.820897 60.3533 3.46599 62.41 7.02015 62.4336C8.91401 62.4454 10.8079 62.4513 12.7017 62.4513C15.0501 62.4513 17.3985 62.4454 19.7595 62.4277C19.93 62.4277 20.0436 62.4395 20.1068 62.4513C20.435 62.4986 20.7065 62.7114 20.8138 63.001C20.8327 63.0601 20.8643 63.1546 20.8959 63.2965C21.0537 64.0884 21.3378 64.8686 21.7039 65.5541C23.7682 69.3838 27.335 71.3223 32.3032 71.3223H32.4674C37.6629 71.2809 41.9114 68.0954 43.0351 63.4029C43.073 63.2492 43.1109 63.1428 43.1361 63.0719C43.1488 63.0187 43.1677 62.9714 43.193 62.9182C43.3003 62.7055 43.5023 62.5459 43.7485 62.475C43.9 62.4336 44.0894 62.4159 44.3608 62.4159C46.6272 62.4277 48.8935 62.4395 51.1598 62.4395C53.1926 62.4395 55.2316 62.4336 57.2644 62.41C60.7996 62.3686 63.8171 59.6618 63.9813 56.364C64.158 52.9362 61.5824 50.0285 57.9904 49.597L57.9967 49.6147ZM31.9939 2.75999C32.903 2.75999 33.6353 3.44555 33.6353 4.2966C33.6353 5.14764 32.903 5.83321 31.9939 5.83321C31.0849 5.83321 30.3526 5.14764 30.3526 4.2966C30.3526 3.44555 31.0849 2.75999 31.9939 2.75999ZM27.3034 10.6794C28.8248 10.3426 30.3904 10.1712 31.956 10.1712C39.9418 10.1712 47.1196 14.45 50.2318 21.0811C51.2482 23.2442 51.7659 25.5964 51.7722 28.0668C51.7785 30.9331 51.7785 33.7995 51.7785 36.66V37.1682C51.7785 40.9388 51.7785 44.7035 51.7974 48.4741C51.7974 48.5805 51.7974 48.6632 51.7911 48.7223C51.7595 49.1301 51.4123 49.4552 50.9767 49.4906C50.901 49.4906 50.8 49.5025 50.6485 49.5025C47.4478 49.4847 44.2409 49.4847 41.0403 49.4847H13.4845C13.352 49.4847 13.2131 49.4847 13.0931 49.4847C12.6134 49.4729 12.2283 49.1124 12.2157 48.6632C12.2157 48.5391 12.2157 48.3973 12.2157 48.2554C12.2157 46.2165 12.222 44.1775 12.2283 42.1326V42.0085C12.2409 37.6174 12.2598 33.0785 12.1967 28.6164C12.0578 18.5752 19.6838 12.3638 27.3034 10.6676V10.6794ZM39.2853 63.5683C38.6161 65.8614 35.6364 67.729 32.3601 67.9181C32.1833 67.93 32.0065 67.9359 31.8298 67.9359C28.5786 67.9359 25.7442 66.2042 24.7783 63.6274C24.6836 63.3733 24.7278 63.0896 24.8919 62.8651C25.0624 62.6464 25.3338 62.5104 25.6242 62.5104H38.4267C38.7045 62.5104 38.9696 62.6346 39.1401 62.8414C39.3105 63.0483 39.3674 63.3201 39.2916 63.5683H39.2853ZM59.7264 57.7351C59.0572 58.6335 58.0724 59.0708 56.7215 59.0708C54.0448 59.0708 51.3681 59.0708 48.6915 59.0708H39.3232C39.3232 59.0708 12.3419 59.0708 7.27898 59.0708C6.08584 59.0708 5.07578 58.6807 4.41924 57.9656C3.8132 57.3037 3.57331 56.4408 3.72482 55.4775C3.9584 54.0118 5.2841 52.9835 6.94439 52.9835C9.82938 52.9835 12.7144 52.9835 15.5994 52.9835H57.0245C58.3881 52.9835 59.3792 53.5508 59.9726 54.6678C60.5281 55.7139 60.4461 56.7777 59.7201 57.747L59.7264 57.7351Z" fill="#DD663C"/>
</svg>
